<svg width="136" height="32" viewBox="0 0 136 32" fill="none" xmlns="http://www.w3.org/2000/svg">
<rect width="136" height="32" rx="8" fill="#7444B6"/>
<g clip-path="url(#clip0_1894_14372)">
<path d="M62.5966 16.1401H59.3474L58.9188 17.28H56.4365L59.9007 8.93024H62.0557L65.5088 17.28H63.0265L62.5979 16.1401H62.5966ZM61.8741 14.2222L60.9824 11.83L60.0796 14.2222H61.8741Z" fill="white"/>
<path d="M70.053 17.28L68.3154 15.1707V17.28H66.0591V8.47815H68.3154V12.9006L69.906 11.0728H72.7489L70.0072 14.0058L72.8959 17.2772H70.053V17.28Z" fill="white"/>
<path d="M78.6287 13.3872V17.2799H76.4515L76.4293 16.7266C76.0451 17.1662 75.4932 17.3922 74.9288 17.3922C73.5864 17.3922 72.6836 16.5796 72.6836 15.3495C72.6836 14.1195 73.7778 13.2846 75.4141 13.2846C75.7081 13.2846 76.0229 13.3068 76.3502 13.3637C76.2712 12.9351 75.8884 12.7202 75.2214 12.7202C74.7707 12.7202 74.3755 12.8214 74.0135 13.0364L73.0663 11.7162C73.8221 11.2086 74.6459 10.9604 75.8191 10.9604C77.4888 10.9604 78.6287 11.92 78.6287 13.3858V13.3872ZM76.3724 14.8655C76.1353 14.8323 75.9092 14.8087 75.7068 14.8087C75.2893 14.8087 75.0189 15.0111 75.0189 15.3051C75.0189 15.5991 75.1659 15.8016 75.5833 15.8016C76.0465 15.8016 76.3613 15.4521 76.3738 14.8655H76.3724Z" fill="white"/>
<path d="M79.5873 16.5796L80.4222 15.2261C81.0656 15.5423 81.6176 15.6435 82.1931 15.6435C82.4746 15.6435 82.6784 15.5867 82.6784 15.441C82.6784 15.2608 82.3622 15.1817 81.8547 15.0569L81.4816 14.9668C80.3653 14.6963 79.6095 14.2789 79.6095 13.2513C79.6095 11.8743 80.6704 10.9604 82.2943 10.9604C83.333 10.9604 84.2233 11.1975 84.8557 11.6371L83.9196 13.0932C83.4342 12.845 82.9489 12.7216 82.4413 12.7216C82.114 12.7216 81.8991 12.7673 81.8991 12.8908C81.8991 13.0378 82.1931 13.1279 82.6105 13.2291L82.971 13.3193C84.1553 13.6133 84.968 14.1208 84.968 15.283C84.968 16.5574 83.8281 17.3922 82.1584 17.3922C81.1433 17.3922 80.2516 17.1329 79.5859 16.5796H79.5873Z" fill="white"/>
<path d="M92.4147 13.3984V17.28H90.1584V13.7257C90.1584 13.2181 89.7868 12.8909 89.2113 12.8909C88.6357 12.8909 88.2641 13.2181 88.2641 13.7257V17.28H86.0078V8.47815H88.2641V11.6372C88.7495 11.174 89.404 10.9605 90.0239 10.9605C91.4564 10.9605 92.4161 11.9312 92.4161 13.397L92.4147 13.3984Z" fill="white"/>
<path d="M93.4644 9.33661C93.4644 8.59191 94.0066 8.04968 94.7513 8.04968C95.496 8.04968 96.0257 8.59191 96.0257 9.33661C96.0257 10.0813 95.496 10.611 94.7513 10.611C94.0066 10.611 93.4644 10.0813 93.4644 9.33661ZM93.6114 11.0742H95.8676V17.28H93.6114V11.0742Z" fill="white"/>
<path d="M96.8261 14.1763C96.8261 12.2473 98.2142 10.9604 100.312 10.9604C101.158 10.9604 101.949 11.2655 102.535 11.7162L101.272 13.2389C101.07 13.0364 100.776 12.8894 100.358 12.8894C99.6357 12.8894 99.1628 13.3969 99.1628 14.1763C99.1628 14.9557 99.626 15.4632 100.358 15.4632C100.855 15.4632 101.215 15.3273 101.475 15.0125L102.749 16.5019C102.129 17.1107 101.249 17.3936 100.278 17.3936C98.2018 17.3936 96.8247 16.1067 96.8247 14.1777L96.8261 14.1763Z" fill="white"/>
<path d="M67.6112 21.9741C67.6112 20.8009 68.4239 20.0188 69.6387 20.0188C70.2641 20.0188 70.7717 20.2254 71.1489 20.6345L70.6885 21.1005C70.4708 20.8217 70.1047 20.6248 69.6484 20.6248C68.8774 20.6248 68.3657 21.1684 68.3657 21.9797C68.3657 22.791 68.8885 23.3457 69.6581 23.3457C70.1754 23.3457 70.5318 23.1127 70.7759 22.741L71.2668 23.1806C70.8993 23.6826 70.3404 23.9517 69.6429 23.9517C68.4281 23.9517 67.6099 23.1598 67.6099 21.9755L67.6112 21.9741Z" fill="white"/>
<path d="M76.8729 20.0717V23.8991H76.1434V22.2489H74.0952V23.8991H73.3657V20.0717H74.0952V21.6484H76.1434V20.0717H76.8729Z" fill="white"/>
<path d="M81.7186 23.1377H79.9547L79.644 23.8977H78.8633L80.4983 20.0702H81.175L82.81 23.8977H82.0293L81.7186 23.1377ZM81.476 22.5331L80.8394 20.9758L80.2029 22.5331H81.4746H81.476Z" fill="white"/>
<path d="M84.8057 20.0717H85.5351V23.8991H84.8057V20.0717Z" fill="white"/>
<path d="M87.9951 20.0717H88.45L90.8602 22.6621L90.8449 20.0717H91.5744V23.8991H91.1251L88.7149 21.3087L88.7246 23.8991H87.9951V20.0717Z" fill="white"/>
<path d="M39.1768 22.6427C39.1961 22.6455 39.2169 22.6469 39.2362 22.6496C39.2169 22.6482 39.1961 22.6455 39.1768 22.6427Z" fill="white"/>
<path d="M39.5679 22.676C39.5762 22.676 39.5846 22.676 39.593 22.676C39.5651 22.6747 39.5372 22.6719 39.5093 22.6705C39.5288 22.6705 39.5483 22.6747 39.5692 22.6747L39.5679 22.676Z" fill="white"/>
<path d="M44.9802 19.1438C44.9552 19.1507 44.9317 19.1577 44.9081 19.1646C44.9081 19.1646 41.8211 23.0295 37.1644 22.0865C34.8554 21.034 33.2495 18.7042 33.2495 16C33.2495 13.2958 34.8554 10.966 37.1644 9.91345C37.1644 9.91484 37.163 9.91484 37.163 9.91623L37.1616 9.91761C37.1602 9.92177 37.1588 9.92593 37.156 9.93148C37.1533 9.9398 37.1491 9.94673 37.1449 9.95506C37.1408 9.96338 37.1366 9.97447 37.1311 9.98695C37.102 10.0535 37.0742 10.1215 37.0479 10.1894C37.0298 10.2352 37.0104 10.2865 36.9896 10.342C36.9674 10.4016 36.9453 10.4626 36.9245 10.5236C36.9203 10.532 36.9175 10.5417 36.9161 10.55C36.8981 10.6027 36.8801 10.6568 36.8634 10.7108C36.8551 10.7344 36.8482 10.758 36.8426 10.7816C36.8274 10.8315 36.8135 10.8814 36.7996 10.9313C36.7636 11.0659 36.7317 11.2004 36.704 11.3377C36.6901 11.4056 36.6762 11.475 36.6651 11.5443C36.6582 11.5817 36.6526 11.6192 36.6485 11.6566C36.6416 11.6885 36.6374 11.7204 36.6332 11.7523C36.6305 11.7703 36.6277 11.7898 36.6263 11.8078C36.6194 11.8591 36.6124 11.9104 36.6069 11.9631C36.5999 12.0158 36.5958 12.0685 36.5902 12.1226C36.5833 12.2086 36.5764 12.2918 36.5722 12.3764C36.5681 12.479 36.5639 12.5816 36.5639 12.6856C36.5639 13.1377 36.6097 13.5801 36.6942 14.0072C36.7511 14.2915 36.8274 14.5702 36.9189 14.8406C37.0562 15.2456 37.2323 15.6339 37.4417 16C37.5721 16.2274 37.7149 16.4465 37.8702 16.6559C37.9742 16.796 38.0824 16.9319 38.1961 17.0636C38.253 17.1288 38.3112 17.1926 38.3709 17.2564C38.6676 17.5726 38.9949 17.861 39.3471 18.1148C39.5593 18.2674 39.7798 18.4074 40.01 18.535C40.1626 18.6196 40.3193 18.6986 40.4787 18.7721C41.3233 19.1563 42.2621 19.3712 43.2509 19.3712C43.8486 19.3712 44.4283 19.2922 44.9802 19.1438Z" fill="white"/>
<path d="M39.2363 22.6494C39.3265 22.6591 39.418 22.6661 39.5081 22.6716C39.4166 22.6661 39.3265 22.6591 39.2363 22.6494Z" fill="#231B3C"/>
<path d="M48.9078 9.73883C48.5985 9.6265 48.1409 9.48644 47.5931 9.39768C47.5432 9.39075 47.4932 9.38243 47.4419 9.37549C47.3906 9.36717 47.3379 9.36163 47.2866 9.35608C47.3573 9.36301 47.4281 9.37133 47.4974 9.38243C47.5681 9.39075 47.6361 9.40184 47.7054 9.41432C47.7748 9.42542 47.8441 9.43929 47.9121 9.45315C48.0493 9.4795 48.1852 9.5114 48.3184 9.54884C48.3614 9.55993 48.4044 9.57242 48.446 9.5849C48.4834 9.5946 48.5195 9.6057 48.5555 9.61818C48.593 9.62927 48.6318 9.64175 48.6692 9.65423C48.6956 9.66256 48.7219 9.67226 48.7483 9.68197C48.801 9.7 48.8551 9.71941 48.9078 9.73883Z" fill="white"/>
<path d="M53.2507 16C53.2507 18.7042 51.6449 21.034 49.3359 22.0865C49.3373 22.0838 49.3387 22.0796 49.34 22.0768C49.383 21.995 49.702 21.3516 49.8545 20.3628C49.8573 20.342 49.8615 20.3198 49.8642 20.2976C49.8753 20.2241 49.885 20.1492 49.8934 20.073C49.8934 20.0646 49.8961 20.0549 49.8961 20.0452C49.8961 20.0355 49.8961 20.0244 49.8989 20.0147C49.9031 19.9703 49.9086 19.9246 49.9114 19.8802C49.9156 19.833 49.9183 19.7873 49.9211 19.7415C49.9225 19.7138 49.9253 19.686 49.9267 19.6583C49.9294 19.6028 49.9322 19.546 49.9336 19.4891V19.4863C49.9336 19.4295 49.9364 19.3726 49.9364 19.3144C49.9364 18.1079 49.6174 16.9777 49.0585 16C48.3651 14.7866 47.3001 13.8117 46.0215 13.2279C45.177 12.8437 44.2381 12.6288 43.2507 12.6288C42.7321 12.6288 42.2287 12.6884 41.7461 12.8007C41.7613 12.7952 41.7724 12.7924 41.7724 12.7924C43.7486 10.0549 46.1047 9.57649 47.6551 9.62503C47.7148 9.6278 47.7716 9.63057 47.8285 9.63335C47.9339 9.63889 48.0351 9.6486 48.1308 9.65831C48.1599 9.66108 48.1904 9.66386 48.2182 9.66802C48.2334 9.6694 48.2473 9.67079 48.2611 9.67356C48.2861 9.67634 48.3097 9.67911 48.3346 9.68327C48.3679 9.68743 48.3998 9.69159 48.4303 9.69714C48.4678 9.70269 48.5052 9.70823 48.5399 9.71378C48.6148 9.72765 48.6855 9.74013 48.7507 9.754C48.7909 9.7637 48.8297 9.77202 48.8672 9.78034C48.9601 9.80115 49.0405 9.82195 49.1071 9.84136C49.1196 9.84552 49.132 9.8483 49.1445 9.85246C49.1695 9.85939 49.1917 9.86494 49.2111 9.87187C49.2222 9.87465 49.2305 9.87881 49.2402 9.88158C49.2513 9.88435 49.2624 9.88713 49.2707 9.89129C49.2818 9.89545 49.2929 9.89822 49.3012 9.90099C49.3068 9.90377 49.3137 9.90515 49.3179 9.90654C49.3206 9.90654 49.3248 9.90793 49.3276 9.9107C49.329 9.9107 49.3303 9.91209 49.3317 9.91209H49.3331C49.3331 9.91209 49.3345 9.91209 49.3359 9.91209C51.6449 10.9646 53.2507 13.2944 53.2507 15.9986V16Z" fill="white"/>
<path d="M49.3357 22.0865C48.2832 24.394 45.9534 25.9999 43.2506 25.9999C40.5478 25.9999 38.2166 24.394 37.1641 22.0865C37.1641 22.0865 37.1668 22.0865 37.1724 22.0906C37.2528 22.1336 37.8741 22.4415 38.8323 22.5954C38.8351 22.5968 38.8379 22.5968 38.8407 22.5968C38.8767 22.6023 38.9128 22.6079 38.9502 22.6134C38.9669 22.6162 38.9849 22.619 39.0029 22.6204C39.0584 22.6287 39.1166 22.6356 39.1749 22.6426C39.1943 22.6453 39.2151 22.6467 39.2345 22.6495C39.3233 22.6578 39.4134 22.6647 39.5063 22.6717C39.5271 22.6731 39.5465 22.6745 39.5659 22.6758C39.5743 22.6758 39.5826 22.6758 39.5909 22.6758C39.7019 22.6814 39.817 22.6842 39.9334 22.6842C41.1413 22.6842 42.2715 22.3652 43.2492 21.8063C44.4626 21.113 45.4375 20.0493 46.02 18.7707C46.4055 17.9262 46.6204 16.9873 46.6204 15.9985C46.6204 15.4133 46.5428 14.8461 46.4027 14.3053C46.4069 14.3164 46.4097 14.3289 46.4124 14.3414C46.4124 14.3414 50.2774 17.4269 49.3344 22.0851L49.3357 22.0865Z" fill="white"/>
<path d="M49.8936 20.0727C49.8936 20.0631 49.8963 20.0548 49.8977 20.0451C49.8977 20.0354 49.8991 20.0243 49.9005 20.0132C49.8991 20.0326 49.8963 20.052 49.8936 20.0714V20.0727Z" fill="white"/>
<path d="M39.9347 22.6857C39.8196 22.6857 39.7045 22.6816 39.5908 22.676C39.7031 22.6816 39.8169 22.6857 39.9347 22.6857Z" fill="white"/>
<path d="M38.4959 22.5302C38.6069 22.5538 38.7206 22.576 38.8343 22.5954C37.876 22.4415 37.2547 22.1336 37.1743 22.0906C37.3823 22.1849 37.5959 22.2695 37.815 22.3416C38.0369 22.4165 38.2643 22.4789 38.4959 22.5302Z" fill="white"/>
<path d="M39.5081 22.6716C39.4166 22.6661 39.3265 22.6591 39.2363 22.6494C39.3251 22.6591 39.4152 22.6661 39.5081 22.6716Z" fill="white"/>
<path d="M49.8989 20.0146C49.9086 19.9245 49.9156 19.833 49.9211 19.7415C49.9156 19.833 49.9086 19.9231 49.8989 20.0146Z" fill="#231B3C"/>
<path d="M49.9211 19.7415C49.9156 19.833 49.9086 19.9231 49.8989 20.0146C49.9086 19.9259 49.9156 19.8358 49.9211 19.7415Z" fill="#231B3C"/>
<path d="M49.9365 19.3144C49.9365 19.4295 49.9323 19.5446 49.9268 19.6583C49.9323 19.546 49.9365 19.4323 49.9365 19.3144Z" fill="#231B3C"/>
<path d="M49.3403 22.0768C49.5844 21.5402 49.7591 20.9647 49.8548 20.3628C49.7023 21.3516 49.3833 21.995 49.3403 22.0768Z" fill="#231B3C"/>
<path d="M36.9897 10.3419C36.8774 10.6512 36.7373 11.1088 36.6485 11.6566C36.6402 11.7065 36.6333 11.7564 36.6263 11.8077C36.6194 11.859 36.6125 11.9104 36.6069 11.9631C36.6139 11.8923 36.6222 11.8216 36.6333 11.7523C36.6416 11.6829 36.6527 11.6136 36.6652 11.5442C36.6763 11.4749 36.6901 11.4056 36.704 11.3376C36.7304 11.2003 36.7636 11.0644 36.7997 10.9313C36.8136 10.8814 36.8274 10.8314 36.8427 10.7815C36.8482 10.7579 36.8552 10.7344 36.8635 10.7108C36.8801 10.6567 36.8982 10.6026 36.9162 10.5499C36.9176 10.5416 36.9203 10.5319 36.9245 10.5236C36.9453 10.4626 36.9675 10.4016 36.9897 10.3419Z" fill="white"/>
<path d="M49.3359 9.91353C49.3359 9.91353 49.3345 9.91353 49.3331 9.91353H49.3317C49.3317 9.91353 49.3234 9.90937 49.3178 9.90659C49.3137 9.90521 49.3095 9.90382 49.3054 9.90104C49.286 9.89134 49.2568 9.87886 49.2194 9.8636C49.2097 9.85944 49.2014 9.85528 49.1903 9.85112C49.1695 9.8428 49.1473 9.83309 49.1223 9.82339C49.1015 9.81507 49.0807 9.80674 49.0599 9.79842C49.01 9.77762 48.9587 9.75821 48.9074 9.74018C48.8547 9.72076 48.8006 9.70135 48.7479 9.68332C48.7215 9.67361 48.6952 9.66391 48.6688 9.65559C48.6314 9.64311 48.5926 9.63063 48.5551 9.61953C48.5191 9.60705 48.483 9.59734 48.4456 9.58625C48.404 9.57377 48.361 9.56129 48.318 9.55019C48.1849 9.51414 48.049 9.48224 47.9117 9.45451C47.8437 9.44064 47.7744 9.42677 47.705 9.41568C47.669 9.40874 47.6301 9.40319 47.5927 9.39903C47.5608 9.3921 47.5289 9.38794 47.497 9.38378C47.479 9.38101 47.4596 9.37823 47.4415 9.37685C47.3902 9.36853 47.3375 9.36298 47.2862 9.35743C47.2335 9.3505 47.1808 9.34495 47.1268 9.34079C47.0435 9.33386 46.9603 9.32831 46.8757 9.32415C46.7731 9.3186 46.6691 9.31583 46.5665 9.31583C45.3586 9.31583 44.2284 9.63479 43.2521 10.1937C43.0233 10.3226 42.8042 10.4668 42.5948 10.6208C42.4547 10.7248 42.3188 10.833 42.1885 10.9467C42.1233 11.0035 42.0581 11.0618 41.9943 11.1214C41.8681 11.2407 41.7461 11.3641 41.6296 11.4917C41.57 11.5568 41.5131 11.622 41.4576 11.6872C41.3453 11.8203 41.2385 11.9576 41.1359 12.0991C41.0347 12.2391 40.939 12.3847 40.8475 12.5345C40.7129 12.7578 40.5895 12.9908 40.48 13.2293C40.0944 14.0738 39.8795 15.0127 39.8795 16.0014C39.8795 16.0763 39.8809 16.1512 39.8837 16.2247C39.8864 16.3287 39.8934 16.4313 39.9017 16.5326C39.9045 16.5742 39.9086 16.6158 39.9128 16.6574C39.9169 16.7101 39.9239 16.7628 39.9308 16.8155C39.935 16.8557 39.9405 16.8959 39.9461 16.9361C39.953 16.9902 39.9613 17.0443 39.971 17.0984C39.9752 17.1289 39.9807 17.1594 39.9877 17.1899C40.0029 17.2745 40.0196 17.3591 40.0376 17.4423C40.0404 17.4562 40.0431 17.47 40.0459 17.4839C40.0445 17.4811 40.0445 17.4797 40.0445 17.4797C35.6401 14.2999 37.0824 10.1396 37.1614 9.92185C37.1614 9.92046 37.1628 9.91907 37.1628 9.91769C37.1628 9.91769 37.1642 9.91491 37.1642 9.91353C38.2168 7.60594 40.5465 6.00006 43.2507 6.00006C45.9549 6.00006 48.2833 7.60594 49.3359 9.91353Z" fill="white"/>
<path d="M46.5654 9.31458C46.6694 9.31458 46.7721 9.31874 46.8747 9.3229C46.7734 9.31735 46.6694 9.31458 46.5654 9.31458Z" fill="white"/>
<path d="M49.2197 9.862C49.2574 9.87734 49.2867 9.88989 49.3062 9.89965C49.2783 9.8871 49.249 9.87455 49.2197 9.862Z" fill="white"/>
<path d="M49.3184 9.90527C49.3184 9.90527 49.3292 9.9099 49.3338 9.91144H49.3292C49.3292 9.91144 49.3214 9.90682 49.3184 9.90682V9.90527Z" fill="white"/>
<path d="M37.1562 9.93296C37.1562 9.93296 37.1609 9.92217 37.1624 9.91754V9.92217C37.1624 9.92217 37.1578 9.92988 37.1562 9.93296Z" fill="#231B3C"/>
<path d="M37.1639 9.91638L37.1616 9.91868C37.1639 9.91868 37.1639 9.91638 37.1639 9.91638Z" fill="#231B3C"/>
<path d="M36.5645 12.6857C36.5645 12.5816 36.5686 12.479 36.5728 12.3764C36.5672 12.4776 36.5645 12.5816 36.5645 12.6857Z" fill="#231B3C"/>
<path d="M37.1634 9.91754C37.1634 9.91754 37.1616 9.92119 37.1616 9.92301V9.91754H37.1634Z" fill="#231B3C"/>
<path d="M36.9195 14.8407C36.828 14.5702 36.7531 14.2929 36.6948 14.0072C36.7517 14.2915 36.8266 14.5702 36.9195 14.8407Z" fill="#231B3C"/>
</g>
<defs>
<clipPath id="clip0_1894_14372">
<rect width="69.5008" height="20" fill="white" transform="translate(33.2495 6)"/>
</clipPath>
</defs>
</svg>
