<svg width="24" height="24" viewBox="0 0 24 24" fill="none" xmlns="http://www.w3.org/2000/svg">
<path d="M11.2471 23.9753C8.31044 23.7837 5.59245 22.5539 3.51364 20.4761C1.85516 18.8185 0.682411 16.6459 0.228608 14.3903C-0.0833488 12.8398 -0.0757532 11.0771 0.249664 9.50372C0.708174 7.28682 1.86916 5.15556 3.51364 3.51189C5.17213 1.85423 7.34583 0.68207 9.60249 0.228494C11.1538 -0.0833071 12.9173 -0.0757154 14.4915 0.24954C16.7095 0.707821 18.8419 1.86822 20.4864 3.51189C22.1448 5.16954 23.3176 7.34216 23.7714 9.59769C24.0833 11.1482 24.0758 12.9109 23.7503 14.4843C23.2918 16.7012 22.1308 18.8325 20.4864 20.4761C18.0509 22.9104 14.6524 24.1975 11.2471 23.9753V23.9753ZM15.14 20.6584C19.807 18.9291 22.2052 13.8152 20.5441 9.13499C19.7356 6.85704 18.1105 5.04488 15.9253 3.98453C15.0903 3.57933 14.6295 3.42446 14.4722 3.49611C14.2791 3.58405 14.1942 3.87975 14.2181 4.38093C14.2339 4.71127 14.2596 4.83413 14.3335 4.9345C14.4337 5.07033 14.4599 5.08537 15.2437 5.4558C17.0699 6.31894 18.4778 7.9269 19.0959 9.85539C19.369 10.7076 19.4485 11.2269 19.4485 12.1585C19.4485 12.8553 19.4297 13.0952 19.3416 13.5211C19.0208 15.0726 18.3262 16.3845 17.2646 17.4444C16.5493 18.1586 15.7341 18.7082 14.8591 19.0662C14.6556 19.1495 14.4474 19.2553 14.3965 19.3013C14.2708 19.415 14.21 19.6593 14.2097 20.0525C14.2093 20.592 14.3184 20.8224 14.5759 20.826C14.6352 20.8268 14.889 20.7514 15.14 20.6584V20.6584ZM9.58536 20.712C9.72959 20.611 9.806 20.2752 9.78139 19.8503C9.75306 19.3612 9.66033 19.2352 9.18307 19.0372C8.03957 18.563 6.99922 17.8025 6.26435 16.9036C5.45036 15.9079 4.96561 14.9034 4.68451 13.6297C4.57117 13.1162 4.55655 12.9508 4.55439 12.1585C4.55232 11.3982 4.56815 11.189 4.66105 10.7489C4.97504 9.26119 5.69207 7.88185 6.65846 6.9065C7.34977 6.20877 8.24597 5.59664 9.08522 5.24895C9.71796 4.98681 9.78915 4.88261 9.78975 4.21774C9.79007 3.83858 9.71726 3.59917 9.57278 3.50456C9.45902 3.43005 9.43351 3.43354 8.99924 3.58295C5.73419 4.70629 3.40822 7.60143 2.99699 11.054C2.54583 14.8417 4.52502 18.5008 7.95246 20.2156C8.35979 20.4194 9.27449 20.7774 9.39224 20.7791C9.44466 20.7799 9.53156 20.7497 9.58536 20.712V20.712ZM12.6056 18.1196C12.7946 17.9873 12.8462 17.779 12.8462 17.1486V16.5678L13.0709 16.516C14.672 16.1466 15.5932 14.7804 15.2697 13.255C15.0174 12.0655 14.208 11.5492 12.1493 11.2646C11.0455 11.112 10.5654 10.862 10.4207 10.3646C10.2653 9.83035 10.457 9.31235 10.8988 9.0725C11.3393 8.83333 12.0176 8.79157 12.6093 8.96719C12.9371 9.06447 13.2168 9.32926 13.4121 9.72698C13.4977 9.90138 13.6011 10.0698 13.6418 10.1013C13.69 10.1385 13.9063 10.1591 14.26 10.16C14.7787 10.1615 14.8093 10.1561 14.9132 10.0456C15.0075 9.94521 15.0187 9.89649 14.9965 9.68147C14.9048 8.79344 14.0341 7.90389 13.0695 7.71262L12.7992 7.65902V7.08481C12.7992 6.15218 12.7334 6.0737 11.9522 6.0737C11.6907 6.0737 11.434 6.09655 11.3818 6.12447C11.2123 6.21514 11.1538 6.45261 11.1538 7.05032V7.60708L10.798 7.69091C9.99592 7.87992 9.27418 8.41764 8.96766 9.05461C8.74331 9.52082 8.67578 9.95256 8.74342 10.4882C8.8986 11.717 9.66497 12.318 11.4437 12.6058C13.0317 12.8627 13.5135 13.102 13.6475 13.7003C13.7233 14.0386 13.6756 14.3206 13.4907 14.6287C13.3223 14.9091 13.0799 15.0978 12.7287 15.2221C12.441 15.3238 11.6268 15.3354 11.2625 15.243C10.7299 15.1079 10.3794 14.7588 10.2119 14.1967C10.0805 13.7555 10.0381 13.7325 9.35484 13.7325C8.82742 13.7325 8.79316 13.7384 8.68366 13.8478C8.55018 13.9813 8.54043 14.1165 8.63779 14.4843C8.75368 14.9221 9.03054 15.4077 9.33771 15.7118C9.68364 16.0544 10.2832 16.3682 10.8237 16.4896L11.2008 16.5743L11.2055 17.1621C11.2112 17.8727 11.2311 17.9539 11.4331 18.09C11.5698 18.1821 11.6512 18.1962 12.0435 18.1962C12.3859 18.1962 12.5228 18.1776 12.6056 18.1196H12.6056Z" fill="#2674C9"/>
</svg>
