<svg width="119" height="160" viewBox="0 0 119 160" fill="none" xmlns="http://www.w3.org/2000/svg">
<path d="M57.398 7.98828C88.4479 7.98828 113.726 33.266 113.726 64.3159C113.726 95.3659 88.4753 120.644 57.398 120.644C26.3206 120.644 1.04297 95.3659 1.04297 64.3159C1.07033 33.266 26.3206 7.98828 57.398 7.98828Z" fill="#EDF0F6"/>
<path d="M97.5306 12.2557C98.7616 11.4623 100.403 11.8453 101.196 13.0764C101.99 14.3074 101.634 15.9488 100.376 16.7422C99.1446 17.5355 97.4759 17.1799 96.7099 15.9488C95.9439 14.7178 96.2995 13.049 97.5306 12.2557Z" fill="#E8ECF4"/>
<path d="M91.813 9.1098C92.6063 8.61738 93.6459 8.83623 94.1383 9.62958C94.6307 10.4229 94.4119 11.4625 93.6185 11.9549C92.8252 12.4473 91.7856 12.2285 91.2658 11.4351C90.8008 10.6691 91.0196 9.62958 91.813 9.1098Z" fill="#E8ECF4"/>
<path d="M98.7617 113.804C99.9927 113.011 101.634 113.394 102.427 114.625C103.221 115.856 102.865 117.497 101.607 118.291C100.376 119.084 98.707 118.728 97.941 117.497C97.1476 116.266 97.5306 114.597 98.7617 113.804Z" fill="#E8ECF4"/>
<path d="M7.28048 110.221C8.32003 109.564 9.71523 109.865 10.3718 110.904C11.0284 111.944 10.7274 113.312 9.68787 113.968C8.64832 114.625 7.25312 114.324 6.59656 113.312C5.93999 112.3 6.24092 110.877 7.28048 110.221Z" fill="#E8ECF4"/>
<path d="M117.528 55.8626L114.191 64.3979L96.7918 108.853L79.3108 102.068L96.6276 57.9417L100.129 49.0508C104.862 36.9043 122.288 43.6888 117.528 55.8626Z" fill="#FCFDFE"/>
<path d="M117.528 55.8626L114.191 64.3979C109.02 59.9387 103.166 57.7228 96.6274 57.9691L100.129 49.0781C104.862 36.9043 122.288 43.6888 117.528 55.8626Z" fill="url(#paint0_linear_51648_10625)"/>
<path d="M115.34 61.4707L117.528 55.8626C122.288 43.6888 104.862 36.9043 100.129 49.0508L97.7766 55.0145C104.452 54.3853 110.279 56.6286 115.34 61.4707Z" fill="url(#paint1_linear_51648_10625)"/>
<path d="M96.7917 108.853C96.3813 109.947 95.7248 110.905 94.9041 111.753L89.2412 117.415L82.1832 124.501C81.2257 125.458 79.5569 124.829 79.5022 123.461L79.0645 113.476L78.7362 105.488C78.6815 104.312 78.873 103.163 79.2833 102.068C81.253 96.9799 98.7614 103.792 96.7917 108.853Z" fill="url(#paint2_linear_51648_10625)"/>
<path d="M79.3106 102.068L79.2285 102.26C79.2285 102.205 79.2559 102.15 79.3106 102.068Z" fill="url(#paint3_linear_51648_10625)"/>
<path d="M89.2412 117.415L82.1831 124.501C81.2256 125.458 79.5569 124.829 79.5021 123.461L79.0918 113.476C80.9247 113.038 82.8944 113.12 84.782 113.859C86.6696 114.598 88.2016 115.883 89.2412 117.415Z" fill="url(#paint4_linear_51648_10625)"/>
<path d="M71.8698 125.349H65.7419C64.9212 125.349 64.2646 124.692 64.2646 123.871C64.2646 123.051 64.9212 122.394 65.7419 122.394H71.8698C72.6905 122.394 73.3471 123.051 73.3471 123.871C73.3197 124.692 72.6632 125.349 71.8698 125.349Z" fill="#C4CAD8"/>
<path d="M55.3464 125.349H38.4946C34.2269 125.349 30.78 121.875 30.78 117.635C30.78 113.367 34.2543 109.92 38.4946 109.92H57.8906C60.4895 109.92 62.5959 107.813 62.5959 105.215C62.5959 102.616 60.4895 100.509 57.8906 100.509H21.0957C20.275 100.509 19.6184 99.8527 19.6184 99.032C19.6184 98.2112 20.275 97.5547 21.0957 97.5547H57.8906C62.1035 97.5547 65.5231 100.974 65.5231 105.187C65.5231 109.4 62.1035 112.82 57.8906 112.82H38.4946C35.841 112.82 33.7072 114.981 33.7072 117.607C33.7072 120.233 35.8683 122.395 38.4946 122.395H55.3464C56.1671 122.395 56.8236 123.051 56.8236 123.872C56.7963 124.693 56.1397 125.349 55.3464 125.349Z" fill="#C4CAD8"/>
<path d="M12.2867 100.509H8.01902C7.19831 100.509 6.54175 99.8527 6.54175 99.032C6.54175 98.2112 7.19831 97.5547 8.01902 97.5547H12.314C13.1347 97.5547 13.7913 98.2112 13.7913 99.032C13.7639 99.8527 13.1074 100.509 12.2867 100.509Z" fill="#C4CAD8"/>
<path d="M67.2465 10.5323L84.536 62.1272C85.9312 66.3402 83.6879 70.8814 79.475 72.2766L27.8527 89.5934C23.6398 90.9886 19.0986 88.7454 17.7034 84.5324L0.413863 32.9102C-0.981333 28.6972 1.26192 24.156 5.47487 22.7608L57.0971 5.47129C61.2827 4.04873 65.8513 6.31935 67.2465 10.5323Z" fill="url(#paint5_linear_51648_10625)"/>
<path d="M14.1743 14.8272L17.1836 23.8276C17.7581 25.5784 16.8279 27.4387 15.0771 28.0405C13.3263 28.615 11.466 27.6849 10.8641 25.9341L7.88226 16.9337C7.30777 15.1828 8.2379 13.3226 9.98873 12.7207C11.7122 12.1462 13.5998 13.1037 14.1743 14.8272Z" fill="url(#paint6_linear_51648_10625)"/>
<path d="M26.6765 10.6417L29.6858 19.642C30.2603 21.3929 29.3301 23.2531 27.5793 23.855C25.8285 24.4295 23.9682 23.4993 23.3664 21.7485L20.3571 12.7481C19.7826 10.9973 20.7128 9.13703 22.4636 8.53518C24.2144 7.96069 26.102 8.91818 26.6765 10.6417Z" fill="url(#paint7_linear_51648_10625)"/>
<path d="M39.1785 6.45611L42.1877 15.4565C42.7622 17.2073 41.8321 19.0676 40.0813 19.6694C38.3304 20.2439 36.4702 19.3138 35.8683 17.563L32.8591 8.56258C32.2846 6.81175 33.2147 4.95148 34.9655 4.34963C36.7164 3.77514 38.5766 4.73263 39.1785 6.45611Z" fill="url(#paint8_linear_51648_10625)"/>
<path d="M52.5835 15.4839C52.2278 15.5934 51.8722 15.6481 51.5165 15.6481C50.1213 15.6481 48.8356 14.7727 48.3705 13.3775L45.3613 4.37709C44.7868 2.65361 45.7169 0.76599 47.4677 0.16414C47.8234 0.0547132 48.179 0 48.5347 0C49.9298 0 51.2156 0.875417 51.6807 2.27061L54.6899 11.271C55.2644 13.0218 54.3343 14.8821 52.5835 15.4839Z" fill="url(#paint9_linear_51648_10625)"/>
<path d="M42.8717 68.3645C53.2212 68.3645 61.6111 59.9746 61.6111 49.6251C61.6111 39.2757 53.2212 30.8857 42.8717 30.8857C32.5222 30.8857 24.1323 39.2757 24.1323 49.6251C24.1323 59.9746 32.5222 68.3645 42.8717 68.3645Z" fill="url(#paint10_linear_51648_10625)"/>
<path d="M51.0239 57.75C49.9296 58.8442 48.2061 58.8442 47.1119 57.75L43.2819 53.92L39.452 57.75C38.3577 58.8442 36.6342 58.8442 35.5399 57.75C34.4457 56.6557 34.4457 54.9049 35.5399 53.8379L39.3699 50.008L35.5399 46.178C34.4457 45.0838 34.4457 43.3329 35.5399 42.266C36.6069 41.1991 38.385 41.1717 39.452 42.266L43.2819 46.096L47.1119 42.266C48.2061 41.1717 49.957 41.1717 51.0239 42.266C52.1182 43.3603 52.0908 45.1111 51.0239 46.178L47.1939 50.008L51.0239 53.8379C52.1182 54.9049 52.1182 56.6557 51.0239 57.75Z" fill="url(#paint11_linear_51648_10625)"/>
<path d="M12.3962 114.844C13.1896 114.351 14.2291 114.57 14.7216 115.363C15.214 116.157 14.9951 117.196 14.2018 117.689C13.4084 118.181 12.3689 117.962 11.8491 117.169C11.384 116.403 11.6029 115.336 12.3962 114.844Z" fill="#D6DCE8"/>
<path d="M33.8484 155.524V145.531H34.9825L41.1205 153.582H40.7661V145.531H42.1411V155.524H41.0212L34.8974 147.473H35.2235V155.524H33.8484ZM47.2017 155.652C46.493 155.652 45.8787 155.506 45.3589 155.213C44.8392 154.91 44.4375 154.485 44.154 153.937C43.8705 153.379 43.7287 152.718 43.7287 151.952C43.7287 151.187 43.8705 150.53 44.154 149.982C44.4375 149.424 44.8392 148.999 45.3589 148.706C45.8787 148.404 46.493 148.252 47.2017 148.252C47.9105 148.252 48.5248 148.404 49.0446 148.706C49.5738 148.999 49.9801 149.424 50.2636 149.982C50.5566 150.53 50.7031 151.187 50.7031 151.952C50.7031 152.718 50.5566 153.379 50.2636 153.937C49.9801 154.485 49.5738 154.91 49.0446 155.213C48.5248 155.506 47.9105 155.652 47.2017 155.652ZM47.2017 154.532C47.8255 154.532 48.3216 154.315 48.6902 153.88C49.0587 153.445 49.243 152.803 49.243 151.952C49.243 151.102 49.0587 150.464 48.6902 150.039C48.3216 149.604 47.8255 149.386 47.2017 149.386C46.5875 149.386 46.0961 149.604 45.7275 150.039C45.3589 150.464 45.1746 151.102 45.1746 151.952C45.1746 152.803 45.3542 153.445 45.7133 153.88C46.0819 154.315 46.578 154.532 47.2017 154.532ZM58.4664 155.652C57.8427 155.652 57.2898 155.506 56.8078 155.213C56.3353 154.92 55.9668 154.494 55.7022 153.937C55.447 153.379 55.3194 152.718 55.3194 151.952C55.3194 151.177 55.447 150.516 55.7022 149.968C55.9668 149.42 56.3353 148.999 56.8078 148.706C57.2898 148.404 57.8427 148.252 58.4664 148.252C59.0806 148.252 59.6193 148.408 60.0824 148.72C60.5549 149.023 60.8668 149.438 61.018 149.968H60.8479V145.091H62.2796V155.524H60.862V153.908H61.0321C60.8715 154.447 60.5596 154.872 60.0966 155.184C59.6335 155.496 59.0901 155.652 58.4664 155.652ZM58.8208 154.532C59.435 154.532 59.9312 154.315 60.3092 153.88C60.6872 153.445 60.8762 152.803 60.8762 151.952C60.8762 151.102 60.6872 150.464 60.3092 150.039C59.9312 149.604 59.435 149.386 58.8208 149.386C58.197 149.386 57.6962 149.604 57.3182 150.039C56.9496 150.464 56.7653 151.102 56.7653 151.952C56.7653 152.803 56.9496 153.445 57.3182 153.88C57.6962 154.315 58.197 154.532 58.8208 154.532ZM66.8919 155.652C66.2588 155.652 65.7059 155.506 65.2334 155.213C64.7609 154.92 64.3923 154.494 64.1277 153.937C63.8725 153.379 63.745 152.718 63.745 151.952C63.745 151.177 63.8725 150.516 64.1277 149.968C64.3923 149.42 64.7609 148.999 65.2334 148.706C65.7059 148.404 66.2588 148.252 66.8919 148.252C67.5156 148.252 68.059 148.408 68.5221 148.72C68.9852 149.032 69.2923 149.457 69.4435 149.996H69.2876L69.4293 148.38H70.8185C70.7902 148.673 70.7618 148.966 70.7335 149.259C70.7146 149.542 70.7051 149.821 70.7051 150.095V155.524H69.2734V153.937H69.4293C69.2781 154.466 68.9663 154.887 68.4938 155.198C68.0307 155.501 67.4967 155.652 66.8919 155.652ZM67.2463 154.532C67.8606 154.532 68.352 154.315 68.7206 153.88C69.0986 153.445 69.2876 152.803 69.2876 151.952C69.2876 151.102 69.0986 150.464 68.7206 150.039C68.352 149.604 67.8606 149.386 67.2463 149.386C66.6226 149.386 66.1217 149.604 65.7437 150.039C65.3751 150.464 65.1909 151.102 65.1909 151.952C65.1909 152.803 65.3751 153.445 65.7437 153.88C66.1123 154.315 66.6131 154.532 67.2463 154.532ZM75.36 155.652C74.5851 155.652 73.9992 155.444 73.6022 155.028C73.2053 154.603 73.0069 153.97 73.0069 153.129V149.486H71.6177V148.38H73.0069V146.495L74.4386 146.112V148.38H76.4232V149.486H74.4386V153.001C74.4386 153.53 74.5331 153.908 74.7221 154.135C74.9111 154.362 75.1852 154.475 75.5443 154.475C75.7238 154.475 75.8798 154.461 76.0121 154.433C76.1538 154.395 76.2814 154.353 76.3948 154.305V155.468C76.2531 155.524 76.0877 155.567 75.8987 155.595C75.7097 155.633 75.5301 155.652 75.36 155.652ZM80.2545 155.652C79.6214 155.652 79.0685 155.506 78.596 155.213C78.1235 154.92 77.7549 154.494 77.4903 153.937C77.2351 153.379 77.1076 152.718 77.1076 151.952C77.1076 151.177 77.2351 150.516 77.4903 149.968C77.7549 149.42 78.1235 148.999 78.596 148.706C79.0685 148.404 79.6214 148.252 80.2545 148.252C80.8782 148.252 81.4216 148.408 81.8847 148.72C82.3478 149.032 82.6549 149.457 82.8061 149.996H82.6502L82.7919 148.38H84.1811C84.1528 148.673 84.1244 148.966 84.0961 149.259C84.0772 149.542 84.0677 149.821 84.0677 150.095V155.524H82.636V153.937H82.7919C82.6407 154.466 82.3289 154.887 81.8564 155.198C81.3933 155.501 80.8593 155.652 80.2545 155.652ZM80.6089 154.532C81.2232 154.532 81.7146 154.315 82.0832 153.88C82.4612 153.445 82.6502 152.803 82.6502 151.952C82.6502 151.102 82.4612 150.464 82.0832 150.039C81.7146 149.604 81.2232 149.386 80.6089 149.386C79.9852 149.386 79.4843 149.604 79.1063 150.039C78.7377 150.464 78.5535 151.102 78.5535 151.952C78.5535 152.803 78.7377 153.445 79.1063 153.88C79.4749 154.315 79.9757 154.532 80.6089 154.532Z" fill="#C4CAD8"/>
<defs>
<linearGradient id="paint0_linear_51648_10625" x1="80.5876" y1="53.3546" x2="120.828" y2="53.5679" gradientUnits="userSpaceOnUse">
<stop stop-color="#D5DAE7"/>
<stop offset="1" stop-color="#F1F5FD"/>
</linearGradient>
<linearGradient id="paint1_linear_51648_10625" x1="86.6278" y1="50.7955" x2="120.705" y2="52.1137" gradientUnits="userSpaceOnUse">
<stop stop-color="#C1C6D3"/>
<stop offset="1" stop-color="#D6DDEC"/>
</linearGradient>
<linearGradient id="paint2_linear_51648_10625" x1="76.2619" y1="109.853" x2="93.7571" y2="116.65" gradientUnits="userSpaceOnUse">
<stop stop-color="#D4D9E6"/>
<stop offset="1" stop-color="#EEF2F9"/>
</linearGradient>
<linearGradient id="paint3_linear_51648_10625" x1="79.2128" y1="102.168" x2="79.3003" y2="102.168" gradientUnits="userSpaceOnUse">
<stop offset="1.1e-07" stop-color="#D6DCE8"/>
<stop offset="1" stop-color="#F1F3F9"/>
</linearGradient>
<linearGradient id="paint4_linear_51648_10625" x1="77.5597" y1="117.378" x2="87.72" y2="121.325" gradientUnits="userSpaceOnUse">
<stop stop-color="#C4CAD8"/>
<stop offset="1" stop-color="#D6D7DC"/>
</linearGradient>
<linearGradient id="paint5_linear_51648_10625" x1="-0.00997545" y1="47.5226" x2="84.957" y2="47.5226" gradientUnits="userSpaceOnUse">
<stop offset="1.1e-07" stop-color="#F0F3FA"/>
<stop offset="1" stop-color="white"/>
</linearGradient>
<linearGradient id="paint6_linear_51648_10625" x1="2.48683" y1="19.3263" x2="18.4764" y2="19.6747" gradientUnits="userSpaceOnUse">
<stop stop-color="#C1C6D3"/>
<stop offset="1" stop-color="#D6DDEC"/>
</linearGradient>
<linearGradient id="paint7_linear_51648_10625" x1="14.9469" y1="15.1408" x2="30.9818" y2="15.4911" gradientUnits="userSpaceOnUse">
<stop stop-color="#C1C6D3"/>
<stop offset="1" stop-color="#D6DDEC"/>
</linearGradient>
<linearGradient id="paint8_linear_51648_10625" x1="27.4488" y1="10.9552" x2="43.4837" y2="11.3056" gradientUnits="userSpaceOnUse">
<stop stop-color="#C1C6D3"/>
<stop offset="1" stop-color="#D6DDEC"/>
</linearGradient>
<linearGradient id="paint9_linear_51648_10625" x1="39.951" y1="6.76898" x2="55.9859" y2="7.11953" gradientUnits="userSpaceOnUse">
<stop stop-color="#C1C6D3"/>
<stop offset="1" stop-color="#D6DDEC"/>
</linearGradient>
<linearGradient id="paint10_linear_51648_10625" x1="3.8163" y1="47.0981" x2="65.9296" y2="49.296" gradientUnits="userSpaceOnUse">
<stop stop-color="#C1C6D3"/>
<stop offset="1" stop-color="#D6DDEC"/>
</linearGradient>
<linearGradient id="paint11_linear_51648_10625" x1="34.7172" y1="50.0071" x2="51.846" y2="50.0071" gradientUnits="userSpaceOnUse">
<stop offset="1.1e-07" stop-color="#F0F3FA"/>
<stop offset="1" stop-color="white"/>
</linearGradient>
</defs>
</svg>
