<svg width="90" height="24" viewBox="0 0 90 24" fill="none" xmlns="http://www.w3.org/2000/svg">
<g clip-path="url(#clip0_448_66095)">
<path d="M38.9136 3.8429L35.0139 12.175H37.0241L37.8161 10.4205H42.4332L43.2252 12.175H45.2354L41.3358 3.8429H38.9136ZM38.5069 8.88618L40.1247 5.29906L41.7424 8.88618H38.5087H38.5069Z" fill="#1C1B1F"/>
<path d="M53.0898 5.85304H51.0672L47.8352 9.81308V3.62085H45.9795V12.1749H47.6683L49.7051 9.79887L51.1453 12.1749H53.2674L50.8878 8.42085L53.0898 5.85304Z" fill="#1C1B1F"/>
<path d="M59.3993 5.85302L59.2395 7.25235C58.9216 6.75513 58.5256 6.37155 58.0497 6.09808C57.572 5.8246 57.0375 5.68787 56.4444 5.68787C55.8512 5.68787 55.2848 5.82638 54.8106 6.10518C54.3365 6.38221 53.9671 6.77111 53.7043 7.27188C53.4415 7.77266 53.3101 8.35513 53.3101 9.02105C53.3101 9.68698 53.4415 10.2606 53.7043 10.7596C53.9671 11.2603 54.3365 11.6475 54.8106 11.9263C55.2848 12.2033 55.8281 12.3436 56.4444 12.3436C57.0606 12.3436 57.572 12.2068 58.0497 11.9334C58.5274 11.6599 58.9234 11.2728 59.2377 10.7738L59.3993 12.1784H61.3207L60.9549 9.02283L61.3207 5.85657H59.3993V5.85302ZM57.9502 10.6583C57.643 10.8182 57.3145 10.8981 56.9664 10.8981C56.6184 10.8981 56.3112 10.8182 56.0448 10.6583C55.7784 10.4985 55.5689 10.2783 55.4179 9.99775C55.2652 9.71717 55.1906 9.39042 55.1906 9.01928C55.1906 8.64813 55.267 8.32139 55.4179 8.03548C55.5689 7.75135 55.7784 7.5276 56.0448 7.36955C56.3112 7.20973 56.6184 7.1316 56.9664 7.1316C57.3145 7.1316 57.643 7.21151 57.9502 7.36955C58.2575 7.52938 58.5292 7.75135 58.7671 8.03548C59.0033 8.32139 59.1898 8.64813 59.3229 9.01928C59.1898 9.39042 59.0051 9.71539 58.7671 9.99775C58.5292 10.2783 58.2575 10.5003 57.9502 10.6583Z" fill="#1C1B1F"/>
<path d="M68.4097 8.61439C68.0172 8.44747 67.4809 8.33559 66.799 8.27521L65.2665 8.15268C64.8438 8.11539 64.5562 8.05146 64.3999 7.95912C64.2436 7.86678 64.1673 7.74602 64.1673 7.59863C64.1673 7.38376 64.2933 7.22216 64.5455 7.11561C64.7977 7.00907 65.1564 6.95402 65.6234 6.95402C66.0372 6.95402 66.3746 6.99841 66.6339 7.0872C66.8931 7.17599 67.092 7.28964 67.2287 7.42638C67.3655 7.56312 67.4489 7.70873 67.4791 7.865H69.3686C69.3242 7.43526 69.1413 7.05879 68.8181 6.73204C68.4967 6.40707 68.0687 6.15135 67.5342 5.96489C67.0014 5.78021 66.3941 5.68787 65.7122 5.68787C65.0303 5.68787 64.4585 5.766 63.9506 5.9205C63.4427 6.07677 63.0485 6.30585 62.7679 6.60951C62.4856 6.91317 62.3453 7.29142 62.3453 7.74247C62.3453 8.06744 62.4323 8.36578 62.6063 8.63748C62.7804 8.9074 63.0751 9.13115 63.4889 9.31051C63.9044 9.48809 64.462 9.60707 65.167 9.66567L66.3444 9.75446C66.8487 9.79885 67.195 9.86634 67.3832 9.95513C67.5715 10.0439 67.6674 10.1735 67.6674 10.344C67.6674 10.5802 67.5324 10.7596 67.2625 10.8768C66.9926 10.9957 66.5948 11.0543 66.0674 11.0543C65.6891 11.0543 65.3588 11.0135 65.0729 10.9318C64.787 10.8501 64.5562 10.7329 64.3786 10.582C64.201 10.431 64.0891 10.2499 64.0447 10.0439H62.1553C62.1784 10.5038 62.3471 10.907 62.6667 11.255C62.9846 11.6031 63.4303 11.8712 64.0003 12.0612C64.5704 12.2495 65.2416 12.3436 66.0105 12.3436C66.7795 12.3436 67.3921 12.2601 67.9107 12.0932C68.4292 11.9263 68.8199 11.6794 69.0827 11.3545C69.3455 11.0295 69.4769 10.6406 69.4769 10.1878C69.4769 9.8397 69.397 9.53248 69.239 9.26611C69.0791 8.99974 68.8039 8.78309 68.4114 8.61617L68.4097 8.61439Z" fill="#1C1B1F"/>
<path d="M76.3423 6.04838C75.9196 5.80687 75.4082 5.68789 74.8097 5.68789C74.2912 5.68789 73.8171 5.81042 73.3873 6.0537C72.9931 6.27745 72.6646 6.5971 72.3982 7.00376V3.62085H70.5425V12.1749H72.3982V9.12052C72.3982 8.72806 72.471 8.39066 72.6148 8.11008C72.7587 7.82951 72.9665 7.60753 73.2364 7.44948C73.5063 7.28966 73.8242 7.20975 74.1864 7.20975C74.705 7.20975 75.101 7.35537 75.3744 7.64838C75.6479 7.94138 75.7847 8.3729 75.7847 8.94294V12.1767H77.6404V8.66591C77.6404 8.05148 77.5285 7.52229 77.3065 7.07657C77.0845 6.63261 76.7613 6.28988 76.3405 6.04838H76.3423Z" fill="#1C1B1F"/>
<path d="M79.8761 3.20886C79.5423 3.20886 79.2706 3.29588 79.0593 3.46991C78.8479 3.64393 78.7432 3.87479 78.7432 4.16425C78.7432 4.4537 78.8479 4.69521 79.0593 4.86924C79.2706 5.04327 79.5423 5.13028 79.8761 5.13028C80.21 5.13028 80.4906 5.04327 80.6983 4.86924C80.9061 4.69521 81.0091 4.4608 81.0091 4.16425C81.0091 3.86769 80.9061 3.64393 80.6983 3.46991C80.4906 3.29588 80.2171 3.20886 79.8761 3.20886Z" fill="#1C1B1F"/>
<path d="M78.9526 5.78552V12.1749H80.8084V5.78552L79.8761 5.96488L78.9526 5.78552Z" fill="#1C1B1F"/>
<path d="M86.9578 10.5642C86.6133 10.8093 86.1925 10.93 85.697 10.93C85.3046 10.93 84.9618 10.8537 84.6688 10.7027C84.3758 10.5518 84.1521 10.3334 83.9958 10.0475C83.8395 9.76156 83.7632 9.41883 83.7632 9.01928C83.7632 8.61972 83.8413 8.26634 83.9958 7.98043C84.1521 7.69453 84.3758 7.4761 84.6688 7.32516C84.9618 7.17422 85.3046 7.09786 85.697 7.09786C86.1854 7.09786 86.6027 7.21506 86.9472 7.44769C87.2917 7.68032 87.5119 8.0124 87.6078 8.44214H89.4635C89.3889 7.89342 89.1794 7.41395 88.8366 7.00374C88.4921 6.59353 88.05 6.27033 87.5083 6.0377C86.9685 5.80507 86.3647 5.68787 85.697 5.68787C84.9423 5.68787 84.2764 5.82815 83.7028 6.11051C83.1292 6.39286 82.6799 6.78354 82.3585 7.28254C82.0371 7.78154 81.8755 8.36223 81.8755 9.02105C81.8755 9.67988 82.0371 10.2499 82.3585 10.7542C82.6799 11.2586 83.1292 11.6492 83.7028 11.9263C84.2764 12.2033 84.9423 12.3436 85.697 12.3436C86.3629 12.3436 86.9667 12.2282 87.5083 11.9991C88.0482 11.77 88.4921 11.4468 88.8366 11.033C89.1811 10.6193 89.3907 10.1398 89.4635 9.59996H87.6078C87.519 9.99952 87.3023 10.3227 86.9578 10.566V10.5642Z" fill="#1C1B1F"/>
<path d="M37.2017 16.5328H35.4756V20.7912H36.2871V19.3403H37.1733C38.0878 19.3403 38.6933 18.765 38.6933 17.9073C38.6933 17.0495 38.1002 16.531 37.2034 16.531L37.2017 16.5328ZM37.1164 18.6673H36.2871V17.2058H37.1164C37.5657 17.2058 37.8587 17.4988 37.8587 17.9374C37.8587 18.3761 37.5764 18.6691 37.1164 18.6691V18.6673Z" fill="#1C1B1F"/>
<path d="M42.0584 16.5327L40.24 20.7911H41.1084L41.4529 19.9458H43.4151L43.7596 20.7911H44.628L42.8096 16.5327H42.0549H42.0584ZM41.7317 19.271L42.4402 17.5396L43.1488 19.271H41.7334H41.7317Z" fill="#1C1B1F"/>
<path d="M47.9116 18.5003L46.8462 16.5327H45.9778L47.5032 19.2195V20.7911H48.3147V19.2195L49.8331 16.5327H48.97L47.9116 18.5003Z" fill="#1C1B1F"/>
<path d="M29.6918 2.13488C27.6302 2.31575 25.7495 3.15229 24.2528 4.43598C22.1863 2.08464 19.1806 0.599976 15.8355 0.599976C9.63831 0.599976 4.59336 5.69455 4.55619 11.9673C4.55619 11.9673 4.55619 11.9698 4.55619 11.9723C4.55619 11.9924 4.55619 12.0125 4.55619 12.0351C4.55619 13.7333 3.34451 15.1502 1.75371 15.4441C1.39442 15.5119 1.13672 15.8385 1.13672 16.2078V21.0888C1.13672 21.5485 1.52822 21.9078 1.98167 21.8676C4.04327 21.6867 5.92398 20.8502 7.42061 19.5665C9.48716 21.9178 12.4953 23.4 15.838 23.4C22.0351 23.4 27.0801 18.3054 27.1172 12.0326C27.1172 12.0326 27.1172 12.0301 27.1172 12.0276C27.1172 12.0075 27.1172 11.9849 27.1172 11.9648C27.1172 10.2666 28.3289 8.84978 29.9197 8.55586C30.279 8.48803 30.5367 8.16146 30.5367 7.79217V2.91364C30.5367 2.45392 30.1452 2.09469 29.6918 2.13488ZM10.8797 12.0326C10.9466 9.30698 13.085 7.03603 15.781 7.00588C18.519 6.97574 20.759 9.20901 20.7912 11.9723C20.7243 14.698 18.5859 16.9689 15.89 16.9991C13.1519 17.0292 10.9119 14.796 10.8797 12.0326Z" fill="#1C1B1F"/>
</g>
<defs>
<clipPath id="clip0_448_66095">
<rect width="88.927" height="24" fill="white" transform="translate(0.536621)"/>
</clipPath>
</defs>
</svg>
