<svg width="389" height="69" viewBox="0 0 389 69" fill="none" xmlns="http://www.w3.org/2000/svg">
<g clip-path="url(#clip0_1_52)">
      <path d="M116.819 55.6211C116.819 59.8818 118.799 62.0121 122.759 62.0121C124.879 62.0121 126.479 61.1418 127.56 59.3927H137.006C135.101 65.8003 130.332 69 122.701 69C120.358 69 118.221 68.6436 116.274 67.939C114.327 67.2261 112.669 66.2148 111.283 64.9051C109.897 63.5954 108.825 62.0287 108.074 60.2051C107.315 58.3814 106.944 56.3506 106.944 54.0876C106.944 51.8246 107.307 49.6528 108.024 47.7794C108.742 45.9061 109.765 44.3145 111.102 43.0048C112.43 41.6951 114.047 40.6838 115.936 39.9709C117.825 39.258 119.954 38.9099 122.33 38.9099C124.706 38.9099 126.776 39.2663 128.641 39.9709C130.514 40.6838 132.098 41.7117 133.393 43.0545C134.688 44.4057 135.678 46.047 136.363 47.995C137.048 49.9429 137.386 52.1396 137.386 54.5766V55.6128H116.819V55.6211ZM128.261 49.8849C127.94 48.5006 127.271 47.3898 126.265 46.5526C125.258 45.7154 124.037 45.2926 122.594 45.2926C121.084 45.2926 119.847 45.6905 118.898 46.4946C117.941 47.2987 117.339 48.426 117.091 49.8766H128.261V49.8849Z" fill="#FFFFFF"/>
      <path d="M153.358 22.638V67.9638H143.59V22.638H153.358Z" fill="#FFFFFF"/>
      <path d="M169.387 39.9543V67.9638H159.619V39.9543H169.387Z" fill="#FFFFFF"/>
      <path d="M185.417 39.9543V55.7371C185.417 59.1938 187.075 60.9262 190.383 60.9262C193.692 60.9262 195.35 59.2021 195.35 55.7371V39.9543H205.118V57.6437C205.118 61.4319 203.888 64.2668 201.422 66.1651C198.955 68.055 195.276 69.0083 190.383 69.0083C185.491 69.0083 181.812 68.0633 179.345 66.1651C176.878 64.2751 175.649 61.4319 175.649 57.6437V39.9543H185.417Z" fill="#FFFFFF"/>
      <path d="M211.322 39.9543H221.089V43.3944C223.754 40.8081 226.741 39.515 230.049 39.515C234.149 39.515 237.284 41.2641 239.437 44.7538C241.632 41.2226 244.758 39.457 248.826 39.457C250.121 39.457 251.342 39.6476 252.497 40.0289C253.652 40.4103 254.634 41.0154 255.467 41.8277C256.292 42.6484 256.952 43.7094 257.439 45.0191C257.925 46.3288 258.165 47.9121 258.165 49.7689V67.9555H248.397V54.1373C248.397 52.7198 248.298 51.5511 248.1 50.6392C247.902 49.7274 247.613 49.0228 247.233 48.5089C246.854 48.0032 246.417 47.6551 245.913 47.4727C245.41 47.2904 244.866 47.1992 244.297 47.1992C241.17 47.1992 239.602 49.5119 239.602 54.1373V67.9555H229.834V54.1373C229.834 52.7198 229.744 51.5428 229.562 50.6144C229.381 49.686 229.125 48.9482 228.778 48.4011C228.432 47.854 227.995 47.481 227.458 47.2821C226.922 47.0831 226.287 46.9837 225.569 46.9837C224.959 46.9837 224.381 47.0748 223.845 47.2572C223.309 47.4396 222.83 47.796 222.418 48.3182C222.005 48.8487 221.684 49.5782 221.444 50.5066C221.213 51.435 221.089 52.6452 221.089 54.1373V67.9555H211.322V39.9543Z" fill="#FFFFFF"/>
      <path d="M277.115 67.9224H264.682V22.638H284.474C289.844 22.638 293.961 23.956 296.815 26.6003C299.67 29.2446 301.097 32.9665 301.097 37.7743C301.097 42.582 299.67 46.3039 296.815 48.9482C293.961 51.5925 289.844 52.9105 284.474 52.9105H277.115V67.9224ZM277.115 43.4193H281.24C285.81 43.4193 288.095 41.5376 288.095 37.7743C288.095 34.0109 285.81 32.1293 281.24 32.1293H277.115V43.4193Z" fill="#FFFFFF"/>
      <path d="M333.255 60.0559H315.493L312.639 67.9224H299.381L317.589 22.638H331.168L349.376 67.9224H336.118L333.264 60.0559H333.255ZM329.955 51.1034L324.37 36.0252L318.785 51.1034H329.947H329.955Z" fill="#FFFFFF"/>
      <path d="M359.053 46.1879L341.604 22.6463H356.446L365.331 35.0222L374.15 22.6463H388.992L371.485 46.1879V67.9307H359.053V46.1879Z" fill="#FFFFFF"/>
      <path d="M164.503 17.3909C169.283 17.3909 173.157 13.4978 173.157 8.69546C173.157 3.89309 169.283 0 164.503 0C159.724 0 155.849 3.89309 155.849 8.69546C155.849 13.4978 159.724 17.3909 164.503 17.3909Z" fill="#FFFFFF"/>
      <path d="M121.299 15.6999L125.151 21.8008C118.807 25.0917 110.805 28.5068 101.416 31.0268V0H81.5092V34.5249C78.4154 34.7901 75.2392 34.931 71.964 34.931H71.9393C68.6723 34.931 65.5043 34.7818 62.4189 34.5249V0H42.5118V31.0268C33.1234 28.5068 25.121 25.1 18.7768 21.8008L22.6295 15.6999L0 14.7466L10.4939 34.931L14.4209 28.7141C21.755 32.5769 31.2507 36.6386 42.5201 39.4487V67.9224H62.4271V42.7064C65.5126 42.9551 68.6888 43.0877 71.9475 43.0877H71.9723C75.2392 43.0877 78.4237 42.9551 81.5174 42.7064V67.9224H101.424V39.457C112.694 36.6386 122.189 32.5852 129.524 28.7224L133.451 34.9393L143.945 14.7549L121.299 15.7082V15.6999Z" fill="#FFFFFF"/>
</g>
<defs>
<clipPath id="clip0_1_52">
<rect width="389" height="69" fill="white"/>
</clipPath>
</defs>
</svg>
