<svg width="178" height="70" viewBox="0 0 178 70" fill="none" xmlns="http://www.w3.org/2000/svg">
<g clip-path="url(#clip0_1_67)">
<path d="M169.112 17.9229C174.025 17.9229 178.008 13.9107 178.008 8.96144C178.008 4.01217 174.025 0 169.112 0C164.198 0 160.215 4.01217 160.215 8.96144C160.215 13.9107 164.198 17.9229 169.112 17.9229Z" fill="#8A5BCD"/>
<path d="M124.697 16.1801L128.657 22.4677C122.135 25.8592 113.909 29.3788 104.257 31.9758V0H83.7926V35.5809C80.6123 35.8543 77.3471 35.9995 73.9801 35.9995H73.9546C70.5962 35.9995 67.3394 35.8457 64.1675 35.5809V0H43.7028V31.9758C34.0514 29.3788 25.8248 25.8677 19.3028 22.4677L23.2635 16.1801L0 15.1977L10.7879 35.9995L14.8249 29.5924C22.3645 33.5733 32.1262 37.7593 43.7113 40.6554V70H64.176V44.0127C67.3479 44.269 70.6131 44.4057 73.9631 44.4057H73.9886C77.3471 44.4057 80.6207 44.269 83.8011 44.0127V70H104.266V40.6639C115.851 37.7593 125.613 33.5819 133.152 29.6009L137.189 36.0081L147.977 15.2062L124.697 16.1887V16.1801Z" fill="#8A5BCD"/>
</g>
<defs>
<clipPath id="clip0_1_67">
<rect width="178" height="70" fill="white"/>
</clipPath>
</defs>
</svg>
