<svg width="204" height="59" viewBox="0 0 204 59" fill="none" xmlns="http://www.w3.org/2000/svg">
<g clip-path="url(#clip0_971_9606)">
<path d="M86.1412 29.764H76.6039L75.3461 33.11H68.0598L78.228 8.60114H84.5536L94.6893 33.11H87.403L86.1452 29.764H86.1412ZM84.0204 24.1344L81.403 17.1127L78.7531 24.1344H84.0204Z" fill="white"/>
<path d="M108.029 33.1099L102.928 26.9186V33.1099H96.3053V7.27814H102.928V20.2591L107.597 14.8941H115.942L107.894 23.5034L116.373 33.1058H108.029V33.1099Z" fill="white"/>
<path d="M133.197 21.6838V33.1099H126.806L126.741 31.4857C125.613 32.7761 123.993 33.4396 122.337 33.4396C118.396 33.4396 115.746 31.0543 115.746 27.4437C115.746 23.8331 118.958 21.3826 123.761 21.3826C124.624 21.3826 125.548 21.4477 126.509 21.6146C126.277 20.3568 125.153 19.7259 123.195 19.7259C121.872 19.7259 120.712 20.0231 119.65 20.654L116.87 16.7788C119.088 15.289 121.506 14.5604 124.95 14.5604C129.851 14.5604 133.197 17.3772 133.197 21.6798V21.6838ZM126.574 26.0231C125.878 25.9254 125.214 25.8562 124.62 25.8562C123.395 25.8562 122.601 26.4505 122.601 27.3134C122.601 28.1764 123.033 28.7707 124.258 28.7707C125.617 28.7707 126.541 27.7449 126.578 26.0231H126.574Z" fill="white"/>
<path d="M136.014 31.0543L138.464 27.0814C140.353 28.0095 141.973 28.3066 143.662 28.3066C144.488 28.3066 145.087 28.1397 145.087 27.7123C145.087 27.1832 144.159 26.9511 142.669 26.5848L141.574 26.3202C138.297 25.5264 136.079 24.3012 136.079 21.2849C136.079 17.2429 139.193 14.5604 143.959 14.5604C147.008 14.5604 149.621 15.2564 151.478 16.5468L148.73 20.8209C147.305 20.0922 145.881 19.73 144.391 19.73C143.43 19.73 142.799 19.8643 142.799 20.2266C142.799 20.6581 143.662 20.9226 144.887 21.2198L145.946 21.4844C149.422 22.3473 151.807 23.8372 151.807 27.2483C151.807 30.9891 148.461 33.4396 143.56 33.4396C140.581 33.4396 137.963 32.6784 136.009 31.0543H136.014Z" fill="white"/>
<path d="M173.666 21.7164V33.1099H167.043V22.6771C167.043 21.1872 165.952 20.2266 164.263 20.2266C162.574 20.2266 161.483 21.1872 161.483 22.6771V33.1099H154.86V7.27814H161.483V16.5509C162.908 15.1913 164.829 14.5644 166.649 14.5644C170.853 14.5644 173.67 17.4138 173.67 21.7164H173.666Z" fill="white"/>
<path d="M176.744 9.79383C176.744 7.60795 178.335 6.01636 180.521 6.01636C182.707 6.01636 184.262 7.60795 184.262 9.79383C184.262 11.9797 182.707 13.5347 180.521 13.5347C178.335 13.5347 176.744 11.9797 176.744 9.79383ZM177.175 14.8942H183.798V33.11H177.175V14.8942Z" fill="white"/>
<path d="M186.615 24C186.615 18.3378 190.689 14.5604 196.848 14.5604C199.331 14.5604 201.651 15.4559 203.373 16.7788L199.665 21.2483C199.071 20.654 198.208 20.2225 196.982 20.2225C194.862 20.2225 193.473 21.7123 193.473 24C193.473 26.2876 194.833 27.7775 196.982 27.7775C198.44 27.7775 199.498 27.3785 200.259 26.4545L204 30.8263C202.18 32.6133 199.596 33.4437 196.746 33.4437C190.653 33.4437 186.611 29.6662 186.611 24.0041L186.615 24Z" fill="white"/>
<path d="M107.312 51.2768L108.118 49.8358C109.075 50.6255 110.137 50.9145 111.171 50.9145C112.583 50.9145 113.402 50.4301 113.402 49.5631C113.402 48.6513 112.461 48.2564 111.049 47.8616L110.41 47.6784C108.558 47.1777 107.178 46.4043 107.178 44.5685C107.178 42.517 108.834 41.1533 111.338 41.1533C112.779 41.1533 114.053 41.5767 115.132 42.4437L114.175 43.9335C113.341 43.2659 112.445 42.9322 111.35 42.9322C110.166 42.9322 109.392 43.4328 109.392 44.2225C109.392 45.118 110.288 45.4355 111.395 45.7571L112.046 45.9403C113.776 46.4125 115.612 47.3528 115.612 49.3718C115.612 51.3908 113.882 52.6974 111.301 52.6974C109.754 52.6974 108.309 52.213 107.308 51.2849L107.312 51.2768Z" fill="#C297FF"/>
<path d="M121.49 46.8887C121.49 43.445 123.871 41.1492 127.441 41.1492C129.277 41.1492 130.767 41.7557 131.874 42.9565L130.522 44.3242C129.883 43.506 128.809 42.928 127.469 42.928C125.206 42.928 123.704 44.5237 123.704 46.9049C123.704 49.2862 125.239 50.9144 127.498 50.9144C129.016 50.9144 130.062 50.2306 130.779 49.1397L132.22 50.43C131.141 51.9036 129.501 52.6933 127.453 52.6933C123.887 52.6933 121.486 50.369 121.486 46.8927L121.49 46.8887Z" fill="#C297FF"/>
<path d="M145.319 50.308H140.141L139.229 52.5387H136.938L141.737 41.304H143.723L148.518 52.5387H146.227L145.315 50.308H145.319ZM144.606 48.5333L142.738 43.962L140.87 48.5333H144.602H144.606Z" fill="#C297FF"/>
<path d="M154.38 41.304H155.715L162.79 48.9078L162.745 41.304H164.886V52.5387H163.567L156.493 44.9349L156.521 52.5387H154.38V41.304Z" fill="#C297FF"/>
<path d="M29.3528 46.4044C32.9145 44.3691 35.7761 41.2429 37.4898 37.4898C35.0109 38.6214 32.2551 39.2524 29.3528 39.2524C26.4505 39.2524 23.6947 38.6214 21.2157 37.4898C17.4627 35.7802 14.3365 32.9186 12.3012 29.3528C10.6608 26.4831 9.72456 23.1655 9.72456 19.6242C9.72456 16.7219 10.3555 13.9661 11.4871 11.4871C4.7137 14.5807 0 21.4152 0 29.3528C0 37.2904 4.7137 44.1289 11.4912 47.2185C13.9702 48.3501 16.7259 48.981 19.6282 48.981C23.1696 48.981 26.4871 48.0448 29.3569 46.4044H29.3528Z" fill="url(#paint0_linear_971_9606)"/>
<g style="mix-blend-mode:multiply" opacity="0.2">
<path d="M11.4911 47.2184C11.4911 47.2184 14.7639 48.981 19.6282 48.981C23.1696 48.981 26.4871 48.0448 29.3568 46.4043C32.9186 44.369 35.7802 41.2429 37.4939 37.4898C36.4477 37.9661 35.3568 38.3528 34.2252 38.6418C34.2252 38.6418 25.1682 49.9864 11.4952 47.2184H11.4911Z" fill="#290056"/>
</g>
<path d="M58.7096 29.3528C58.7096 21.4152 53.9959 14.5767 47.2184 11.4871C44.7394 10.3555 41.9837 9.72455 39.0814 9.72455C35.54 9.72455 32.2225 10.6608 29.3527 12.3012C25.791 14.3365 22.9294 17.4627 21.2157 21.2157C23.6947 20.0841 26.4504 19.4532 29.3527 19.4532C32.255 19.4532 35.0108 20.0841 37.4898 21.2157C41.2428 22.9254 44.369 25.787 46.4043 29.3528C48.0447 32.2225 48.981 35.54 48.981 39.0814C48.981 41.9837 48.35 44.7395 47.2184 47.2184C53.9959 44.1289 58.7096 37.2904 58.7096 29.3528Z" fill="url(#paint1_linear_971_9606)"/>
<g style="mix-blend-mode:multiply" opacity="0.2">
<path d="M25.0135 19.9376C25.0135 19.9376 22.4247 20.6662 21.2157 21.2157C22.9253 17.4627 25.7869 14.3365 29.3527 12.3012C32.2225 10.6608 35.54 9.72455 39.0814 9.72455C43.6119 9.72455 47.2184 11.4871 47.2184 11.4871C47.2184 11.4871 34.5997 6.66349 25.0135 19.9376Z" fill="#290056"/>
</g>
<path d="M46.4044 29.3528C44.3691 25.7911 41.2429 22.9295 37.4898 21.2158C38.6214 23.6947 39.2524 26.4505 39.2524 29.3528C39.2524 32.2551 38.6214 35.0109 37.4898 37.4898C35.7802 41.2429 32.9186 44.3691 29.3528 46.4044C26.4831 48.0448 23.1655 48.981 19.6242 48.981C16.7219 48.981 13.9661 48.3501 11.4871 47.2185C14.5767 53.9959 21.4152 58.7097 29.3528 58.7097C37.2904 58.7097 44.1289 53.9959 47.2185 47.2185C48.3501 44.7395 48.981 41.9837 48.981 39.0814C48.981 35.54 48.0448 32.2225 46.4044 29.3528Z" fill="url(#paint2_linear_971_9606)"/>
<g style="mix-blend-mode:multiply" opacity="0.2">
<path d="M47.2184 47.2185C47.2184 47.2185 48.981 43.9457 48.981 39.0814C48.981 35.54 48.0448 32.2225 46.4043 29.3528C44.369 25.7911 41.2429 22.9295 37.4898 21.2158C37.9661 22.2619 38.3528 23.3528 38.6418 24.4844C38.6418 24.4844 49.9864 33.5414 47.2184 47.2144V47.2185Z" fill="#290056"/>
</g>
<path d="M29.3528 0C21.4152 0 14.5767 4.7137 11.4871 11.4912C10.3555 13.9701 9.72455 16.7259 9.72455 19.6282C9.72455 23.1696 10.6608 26.4871 12.3012 29.3569C14.3365 32.9186 17.4627 35.7802 21.2157 37.4939C20.0841 35.0149 19.4532 32.2592 19.4532 29.3569C19.4532 26.4545 20.0841 23.6988 21.2157 21.2198C22.9254 17.4668 25.787 14.3406 29.3528 12.3053C32.2225 10.6649 35.54 9.72863 39.0814 9.72863C41.9837 9.72863 44.7395 10.3596 47.2184 11.4912C44.1289 4.7137 37.2904 0 29.3528 0Z" fill="url(#paint3_linear_971_9606)"/>
<g style="mix-blend-mode:multiply" opacity="0.2">
<path d="M19.9376 33.692C19.9376 33.692 20.6662 36.2809 21.2157 37.4898C17.4627 35.7802 14.3365 32.9186 12.3012 29.3528C10.6608 26.4831 9.72455 23.1655 9.72455 19.6242C9.72455 15.0936 11.4871 11.4871 11.4871 11.4871C11.4871 11.4871 6.66349 24.1058 19.9376 33.692Z" fill="#290056"/>
</g>
</g>
<defs>
<linearGradient id="paint0_linear_971_9606" x1="27.6554" y1="49.0421" x2="1.45726" y2="12.3541" gradientUnits="userSpaceOnUse">
<stop offset="0.09" stop-color="#430585"/>
<stop offset="0.2" stop-color="#4C0F8E"/>
<stop offset="0.4" stop-color="#652CA6"/>
<stop offset="0.65" stop-color="#8E5CCD"/>
<stop offset="0.93" stop-color="#C297FF"/>
</linearGradient>
<linearGradient id="paint1_linear_971_9606" x1="30.7571" y1="11.1289" x2="59.5481" y2="43.7951" gradientUnits="userSpaceOnUse">
<stop offset="0.1" stop-color="#430585"/>
<stop offset="0.21" stop-color="#4C0F8E"/>
<stop offset="0.4" stop-color="#652CA6"/>
<stop offset="0.65" stop-color="#8E5CCD"/>
<stop offset="0.93" stop-color="#C297FF"/>
</linearGradient>
<linearGradient id="paint2_linear_971_9606" x1="21.1384" y1="57.7327" x2="44.943" y2="28.7748" gradientUnits="userSpaceOnUse">
<stop offset="0.15" stop-color="#D52EB2"/>
<stop offset="0.24" stop-color="#CB2BAF"/>
<stop offset="0.38" stop-color="#B224A7"/>
<stop offset="0.55" stop-color="#89189A"/>
<stop offset="0.76" stop-color="#500889"/>
<stop offset="0.81" stop-color="#430585"/>
</linearGradient>
<linearGradient id="paint3_linear_971_9606" x1="31.7422" y1="-3.8711" x2="24.1669" y2="39.1506" gradientUnits="userSpaceOnUse">
<stop offset="0.15" stop-color="#D52EB2"/>
<stop offset="0.24" stop-color="#CB2BAF"/>
<stop offset="0.38" stop-color="#B224A7"/>
<stop offset="0.55" stop-color="#89189A"/>
<stop offset="0.76" stop-color="#500889"/>
<stop offset="0.81" stop-color="#430585"/>
</linearGradient>
<clipPath id="clip0_971_9606">
<rect width="204" height="58.7096" fill="white"/>
</clipPath>
</defs>
</svg>
