<svg width="156" height="45" viewBox="0 0 156 45" fill="none" xmlns="http://www.w3.org/2000/svg">
<g clip-path="url(#clip0_1457_3999)">
<path d="M65.8726 22.7606H58.5794L57.6175 25.3193H52.0457L59.8214 6.5773H64.6586L72.4094 25.3193H66.8376L65.8757 22.7606H65.8726ZM64.2509 18.4557L62.2493 13.0861L60.2229 18.4557H64.2509Z" fill="#430585"/>
<path d="M82.61 25.3193L78.7097 20.5848V25.3193H73.6452V5.56564H78.7097V15.4923L82.28 11.3897H88.6612L82.5073 17.9732L88.9912 25.3162H82.61V25.3193Z" fill="#430585"/>
<path d="M101.856 16.5818V25.3193H96.9693L96.9194 24.0773C96.0572 25.0641 94.8183 25.5715 93.5514 25.5715C90.5383 25.5715 88.5118 23.7474 88.5118 20.9863C88.5118 18.2253 90.9678 16.3514 94.6409 16.3514C95.3008 16.3514 96.0074 16.4012 96.742 16.5288C96.5646 15.567 95.7055 15.0845 94.2082 15.0845C93.1966 15.0845 92.3094 15.3117 91.497 15.7942L89.371 12.8309C91.0674 11.6916 92.9164 11.1344 95.5498 11.1344C99.2976 11.1344 101.856 13.2884 101.856 16.5786V16.5818ZM96.7918 19.9C96.2595 19.8253 95.7522 19.7724 95.2977 19.7724C94.3607 19.7724 93.7538 20.2268 93.7538 20.8867C93.7538 21.5466 94.0837 22.0011 95.0207 22.0011C96.0603 22.0011 96.7669 21.2167 96.7949 19.9H96.7918Z" fill="#430585"/>
<path d="M104.01 23.7474L105.884 20.7093C107.329 21.419 108.567 21.6463 109.859 21.6463C110.491 21.6463 110.949 21.5186 110.949 21.1918C110.949 20.7871 110.239 20.6097 109.1 20.3295L108.262 20.1272C105.757 19.5202 104.06 18.5833 104.06 16.2767C104.06 13.1857 106.441 11.1344 110.087 11.1344C112.418 11.1344 114.416 11.6667 115.836 12.6534L113.735 15.9219C112.645 15.3647 111.556 15.0876 110.416 15.0876C109.682 15.0876 109.199 15.1903 109.199 15.4674C109.199 15.7973 109.859 15.9997 110.796 16.2269L111.606 16.4292C114.264 17.0891 116.088 18.2284 116.088 20.8369C116.088 23.6976 113.529 25.5715 109.781 25.5715C107.503 25.5715 105.501 24.9894 104.007 23.7474H104.01Z" fill="#430585"/>
<path d="M132.804 16.6067V25.3193H127.739V17.3413C127.739 16.202 126.905 15.4674 125.613 15.4674C124.321 15.4674 123.487 16.202 123.487 17.3413V25.3193H118.423V5.56564H123.487V12.6566C124.577 11.6169 126.046 11.1375 127.437 11.1375C130.653 11.1375 132.807 13.3165 132.807 16.6067H132.804Z" fill="#430585"/>
<path d="M135.157 7.48934C135.157 5.81777 136.374 4.60068 138.046 4.60068C139.717 4.60068 140.906 5.81777 140.906 7.48934C140.906 9.1609 139.717 10.35 138.046 10.35C136.374 10.35 135.157 9.1609 135.157 7.48934ZM135.487 11.3896H140.551V25.3193H135.487V11.3896Z" fill="#430585"/>
<path d="M142.705 18.3529C142.705 14.0231 145.821 11.1344 150.531 11.1344C152.43 11.1344 154.204 11.8192 155.521 12.8309L152.685 16.2487C152.23 15.7942 151.571 15.4643 150.634 15.4643C149.012 15.4643 147.95 16.6036 147.95 18.3529C147.95 20.1023 148.99 21.2416 150.634 21.2416C151.748 21.2416 152.557 20.9365 153.139 20.2299L156 23.5731C154.609 24.9396 152.632 25.5746 150.453 25.5746C145.793 25.5746 142.702 22.6859 142.702 18.356L142.705 18.3529Z" fill="#430585"/>
<path d="M82.0622 39.2117L82.6785 38.1097C83.41 38.7136 84.2225 38.9346 85.0131 38.9346C86.0932 38.9346 86.7189 38.5642 86.7189 37.9012C86.7189 37.2039 85.9999 36.902 84.9197 36.6L84.431 36.46C83.0147 36.0771 81.9595 35.4857 81.9595 34.0818C81.9595 32.513 83.2264 31.4702 85.1407 31.4702C86.2427 31.4702 87.217 31.7939 88.0418 32.4569L87.3103 33.5962C86.6722 33.0857 85.9874 32.8305 85.1501 32.8305C84.2443 32.8305 83.6528 33.2133 83.6528 33.8172C83.6528 34.502 84.3376 34.7448 85.1843 34.9907L85.6824 35.1308C87.0053 35.4919 88.4091 36.2109 88.4091 37.7549C88.4091 39.2988 87.0862 40.298 85.1127 40.298C83.9299 40.298 82.8248 39.9276 82.0591 39.2179L82.0622 39.2117Z" fill="#C297FF"/>
<path d="M92.904 35.8561C92.904 33.2227 94.725 31.4671 97.4549 31.4671C98.8587 31.4671 99.998 31.9309 100.845 32.8491L99.8112 33.895C99.3225 33.2694 98.5008 32.8274 97.4767 32.8274C95.746 32.8274 94.5973 34.0476 94.5973 35.8685C94.5973 37.6895 95.7709 38.9346 97.4984 38.9346C98.6595 38.9346 99.4595 38.4117 100.007 37.5775L101.109 38.5642C100.284 39.691 99.0299 40.2949 97.4642 40.2949C94.7374 40.2949 92.9009 38.5175 92.9009 35.8592L92.904 35.8561Z" fill="#C297FF"/>
<path d="M111.126 38.4708H107.167L106.469 40.1766H104.717L108.387 31.5854H109.906L113.573 40.1766H111.82L111.123 38.4708H111.126ZM110.581 37.1137L109.153 33.618L107.724 37.1137H110.578H110.581Z" fill="#C297FF"/>
<path d="M118.055 31.5854H119.076L124.486 37.4L124.452 31.5854H126.089V40.1766H125.081L119.671 34.362L119.693 40.1766H118.055V31.5854Z" fill="#C297FF"/>
<path d="M22.4462 35.4857C25.1699 33.9293 27.3582 31.5387 28.6687 28.6687C26.773 29.534 24.6657 30.0165 22.4462 30.0165C20.2268 30.0165 18.1195 29.534 16.2238 28.6687C13.3538 27.3613 10.9632 25.173 9.40682 22.4462C8.15237 20.2517 7.43643 17.7148 7.43643 15.0067C7.43643 12.7873 7.91891 10.6799 8.78426 8.78424C3.6046 11.15 0 16.3763 0 22.4462C0 28.5161 3.6046 33.7456 8.78737 36.1082C10.6831 36.9736 12.7904 37.456 15.0098 37.456C17.7179 37.456 20.2549 36.7401 22.4494 35.4857H22.4462Z" fill="url(#paint0_linear_1457_3999)"/>
<g style="mix-blend-mode:multiply" opacity="0.2">
<path d="M8.78735 36.1082C8.78735 36.1082 11.29 37.456 15.0098 37.456C17.7179 37.456 20.2548 36.7401 22.4493 35.4857C25.173 33.9293 27.3613 31.5387 28.6718 28.6687C27.8718 29.0329 27.0376 29.3286 26.1722 29.5496C26.1722 29.5496 19.2463 38.2249 8.79047 36.1082H8.78735Z" fill="#290056"/>
</g>
<path d="M44.8956 22.4462C44.8956 16.3763 41.291 11.1469 36.1082 8.78426C34.2126 7.91891 32.1052 7.43643 29.8858 7.43643C27.1777 7.43643 24.6408 8.15237 22.4463 9.40682C19.7226 10.9632 17.5343 13.3538 16.2238 16.2238C18.1195 15.3585 20.2268 14.876 22.4463 14.876C24.6657 14.876 26.773 15.3585 28.6687 16.2238C31.5387 17.5312 33.9293 19.7195 35.4857 22.4462C36.7401 24.6408 37.4561 27.1777 37.4561 29.8858C37.4561 32.1052 36.9736 34.2126 36.1082 36.1082C41.291 33.7456 44.8956 28.5162 44.8956 22.4462Z" fill="url(#paint1_linear_1457_3999)"/>
<g style="mix-blend-mode:multiply" opacity="0.2">
<path d="M19.128 15.2464C19.128 15.2464 17.1483 15.8036 16.2238 16.2238C17.5312 13.3538 19.7195 10.9632 22.4463 9.40682C24.6408 8.15237 27.1777 7.43643 29.8858 7.43643C33.3503 7.43643 36.1082 8.78426 36.1082 8.78426C36.1082 8.78426 26.4586 5.09562 19.128 15.2464Z" fill="#290056"/>
</g>
<path d="M35.4857 22.4462C33.9293 19.7225 31.5387 17.5343 28.6687 16.2238C29.534 18.1195 30.0165 20.2268 30.0165 22.4462C30.0165 24.6656 29.534 26.773 28.6687 28.6687C27.3613 31.5387 25.173 33.9293 22.4462 35.4857C20.2517 36.7401 17.7148 37.456 15.0067 37.456C12.7873 37.456 10.6799 36.9736 8.78424 36.1082C11.1468 41.291 16.3763 44.8956 22.4462 44.8956C28.5161 44.8956 33.7456 41.291 36.1082 36.1082C36.9736 34.2125 37.456 32.1052 37.456 29.8858C37.456 27.1777 36.7401 24.6407 35.4857 22.4462Z" fill="url(#paint2_linear_1457_3999)"/>
<g style="mix-blend-mode:multiply" opacity="0.2">
<path d="M36.1082 36.1082C36.1082 36.1082 37.4561 33.6055 37.4561 29.8858C37.4561 27.1777 36.7401 24.6407 35.4857 22.4462C33.9293 19.7225 31.5387 17.5343 28.6687 16.2238C29.0329 17.0238 29.3286 17.858 29.5496 18.7233C29.5496 18.7233 38.2249 25.6493 36.1082 36.1051V36.1082Z" fill="#290056"/>
</g>
<path d="M22.4462 0C16.3763 0 11.1468 3.6046 8.78423 8.78737C7.91888 10.6831 7.4364 12.7904 7.4364 15.0098C7.4364 17.7179 8.15234 20.2549 9.40679 22.4494C10.9632 25.173 13.3538 27.3613 16.2238 28.6718C15.3584 26.7761 14.8759 24.6688 14.8759 22.4494C14.8759 20.2299 15.3584 18.1226 16.2238 16.2269C17.5311 13.3569 19.7194 10.9663 22.4462 9.40993C24.6407 8.15548 27.1776 7.43954 29.8858 7.43954C32.1052 7.43954 34.2125 7.92202 36.1082 8.78737C33.7456 3.6046 28.5161 0 22.4462 0Z" fill="url(#paint3_linear_1457_3999)"/>
<g style="mix-blend-mode:multiply" opacity="0.2">
<path d="M15.2464 25.7644C15.2464 25.7644 15.8035 27.7442 16.2238 28.6687C13.3538 27.3613 10.9632 25.173 9.40679 22.4462C8.15234 20.2517 7.4364 17.7148 7.4364 15.0067C7.4364 11.5422 8.78423 8.78424 8.78423 8.78424C8.78423 8.78424 5.09559 18.4339 15.2464 25.7644Z" fill="#290056"/>
</g>
</g>
<defs>
<linearGradient id="paint0_linear_1457_3999" x1="21.1482" y1="37.5027" x2="1.11438" y2="9.44726" gradientUnits="userSpaceOnUse">
<stop offset="0.09" stop-color="#430585"/>
<stop offset="0.2" stop-color="#4C0F8E"/>
<stop offset="0.4" stop-color="#652CA6"/>
<stop offset="0.65" stop-color="#8E5CCD"/>
<stop offset="0.93" stop-color="#C297FF"/>
</linearGradient>
<linearGradient id="paint1_linear_1457_3999" x1="23.5202" y1="8.51034" x2="45.5368" y2="33.4904" gradientUnits="userSpaceOnUse">
<stop offset="0.1" stop-color="#430585"/>
<stop offset="0.21" stop-color="#4C0F8E"/>
<stop offset="0.4" stop-color="#652CA6"/>
<stop offset="0.65" stop-color="#8E5CCD"/>
<stop offset="0.93" stop-color="#C297FF"/>
</linearGradient>
<linearGradient id="paint2_linear_1457_3999" x1="16.1646" y1="44.1485" x2="34.3682" y2="22.0042" gradientUnits="userSpaceOnUse">
<stop offset="0.15" stop-color="#D52EB2"/>
<stop offset="0.24" stop-color="#CB2BAF"/>
<stop offset="0.38" stop-color="#B224A7"/>
<stop offset="0.55" stop-color="#89189A"/>
<stop offset="0.76" stop-color="#500889"/>
<stop offset="0.81" stop-color="#430585"/>
</linearGradient>
<linearGradient id="paint3_linear_1457_3999" x1="24.2734" y1="-2.96025" x2="18.4805" y2="29.9387" gradientUnits="userSpaceOnUse">
<stop offset="0.15" stop-color="#D52EB2"/>
<stop offset="0.24" stop-color="#CB2BAF"/>
<stop offset="0.38" stop-color="#B224A7"/>
<stop offset="0.55" stop-color="#89189A"/>
<stop offset="0.76" stop-color="#500889"/>
<stop offset="0.81" stop-color="#430585"/>
</linearGradient>
<clipPath id="clip0_1457_3999">
<rect width="156" height="44.8956" fill="white"/>
</clipPath>
</defs>
</svg>
