<svg width="110" height="32" viewBox="0 0 110 32" fill="none" xmlns="http://www.w3.org/2000/svg">
<g id="Frame" clip-path="url(#clip0_3046_6694)">
<g id="Group">
<g id="Capa_1">
<path id="Vector" d="M46.2291 16.2602H41.1247L40.4515 18.051H36.5518L41.9939 4.93359H45.3795L50.8042 18.051H46.9045L46.2313 16.2602H46.2291ZM45.0941 13.2472L43.6932 9.48906L42.275 13.2472H45.0941Z" fill="#430585"/>
<path id="Vector_2" d="M57.9428 18.0512L55.213 14.7376V18.0512H51.6685V4.22363H55.213V11.1712L57.7119 8.2998H62.178L57.8709 12.9076L62.409 18.0469H57.9428V18.0512Z" fill="#430585"/>
<path id="Vector_3" d="M71.4154 11.9366V18.0519H67.995L67.9601 17.1827C67.3566 17.8733 66.4895 18.2284 65.6028 18.2284C63.494 18.2284 62.0757 16.9517 62.0757 15.0193C62.0757 13.0869 63.7946 11.7754 66.3654 11.7754C66.8272 11.7754 67.3218 11.8102 67.8359 11.8995C67.7117 11.2264 67.1104 10.8887 66.0625 10.8887C65.3545 10.8887 64.7336 11.0477 64.165 11.3854L62.677 9.31136C63.8643 8.51399 65.1584 8.12402 67.0015 8.12402C69.6246 8.12402 71.4154 9.63162 71.4154 11.9344V11.9366ZM67.8708 14.259C67.4982 14.2067 67.1431 14.1697 66.825 14.1697C66.1693 14.1697 65.7445 14.4877 65.7445 14.9496C65.7445 15.4115 65.9754 15.7295 66.6311 15.7295C67.3588 15.7295 67.8533 15.1805 67.873 14.259H67.8708Z" fill="#430585"/>
<path id="Vector_4" d="M72.9211 16.9517L74.2326 14.8254C75.2435 15.3221 76.1106 15.4812 77.0147 15.4812C77.457 15.4812 77.7772 15.3919 77.7772 15.1631C77.7772 14.8799 77.2805 14.7557 76.4831 14.5596L75.8971 14.418C74.1433 13.9932 72.956 13.3374 72.956 11.7231C72.956 9.55972 74.6226 8.12402 77.1738 8.12402C78.8055 8.12402 80.2042 8.49657 81.1976 9.18718L79.7271 11.4747C78.9646 11.0847 78.2021 10.8909 77.4047 10.8909C76.8905 10.8909 76.5529 10.9627 76.5529 11.1566C76.5529 11.3876 77.0147 11.5292 77.6705 11.6882L78.2369 11.8298C80.0975 12.2917 81.3741 13.0891 81.3741 14.9147C81.3741 16.9169 79.5833 18.2284 76.9603 18.2284C75.3655 18.2284 73.9647 17.821 72.9189 16.9517H72.9211Z" fill="#430585"/>
<path id="Vector_5" d="M93.0735 11.9533V18.0512H89.5289V12.4675C89.5289 11.6701 88.945 11.156 88.0409 11.156C87.1368 11.156 86.5529 11.6701 86.5529 12.4675V18.0512H83.0083V4.22363H86.5529V9.1865C87.3154 8.45884 88.3437 8.12334 89.3175 8.12334C91.568 8.12334 93.0756 9.64836 93.0756 11.9511L93.0735 11.9533Z" fill="#430585"/>
<path id="Vector_6" d="M94.7217 5.57253C94.7217 4.40262 95.5735 3.55078 96.7434 3.55078C97.9133 3.55078 98.7456 4.40262 98.7456 5.57253C98.7456 6.74244 97.9133 7.57467 96.7434 7.57467C95.5735 7.57467 94.7217 6.74244 94.7217 5.57253ZM94.9526 8.30232H98.4972V18.0516H94.9526V8.30232Z" fill="#430585"/>
<path id="Vector_7" d="M100.003 13.1762C100.003 10.1458 102.183 8.12402 105.48 8.12402C106.809 8.12402 108.05 8.60332 108.972 9.31136L106.987 11.7035C106.669 11.3854 106.207 11.1545 105.552 11.1545C104.417 11.1545 103.674 11.9518 103.674 13.1762C103.674 14.4006 104.401 15.198 105.552 15.198C106.332 15.198 106.898 14.9845 107.305 14.4899L109.307 16.8297C108.334 17.7861 106.95 18.2306 105.425 18.2306C102.164 18.2306 100 16.2088 100 13.1784L100.003 13.1762Z" fill="#430585"/>
<path id="Vector_8" d="M58.7992 22.4375L56.7273 28.4504H55.662L54.2001 24.0562L52.7448 28.4504H51.6816L49.6011 22.4375H50.8276L52.2742 26.9145L53.6642 22.4375H54.736L56.1412 26.9145L57.5791 22.4375H58.797H58.7992Z" fill="#430585"/>
<path id="Vector_9" d="M65.3222 27.2536H62.551L62.063 28.4475H60.8364L63.405 22.4346H64.4682L67.0346 28.4475H65.808L65.32 27.2536H65.3222ZM64.9409 26.3038L63.9409 23.8572L62.941 26.3038H64.9387H64.9409Z" fill="#430585"/>
<path id="Vector_10" d="M73.9726 27.4976V28.4475H70.1709V22.4346H71.3168V27.4955H73.9726V27.4976Z" fill="#430585"/>
<path id="Vector_11" d="M81.0497 27.4976V28.4475H77.248V22.4346H78.394V27.4955H81.0497V27.4976Z" fill="#430585"/>
<path id="Vector_12" d="M88.4742 27.4976V28.4475H84.3218V22.4346H88.4088V23.3844H85.4677V24.9291H88.1496V25.8724H85.4677V27.4976H88.4742Z" fill="#430585"/>
<path id="Vector_13" d="M96.2576 23.3874H94.4211V28.4483H93.2751V23.3874H91.4473V22.4375H96.2576V23.3874Z" fill="#430585"/>
<path id="Vector_14" d="M16.018 25.1246C17.9243 24.0353 19.4559 22.3621 20.3731 20.3535C19.0463 20.9591 17.5714 21.2968 16.018 21.2968C14.4647 21.2968 12.9898 20.9591 11.663 20.3535C9.65432 19.4384 7.98115 17.9069 6.89185 15.9984C6.01387 14.4625 5.51279 12.6869 5.51279 10.7916C5.51279 9.23821 5.85048 7.76329 6.45613 6.43652C2.83093 8.09226 0.308105 11.7501 0.308105 15.9984C0.308105 20.2467 2.83093 23.9068 6.45831 25.5603C7.78508 26.166 9.26 26.5037 10.8133 26.5037C12.7087 26.5037 14.4843 26.0026 16.0202 25.1246H16.018Z" fill="url(#paint0_linear_3046_6694)"/>
<g id="Vector_15" style="mix-blend-mode:multiply" opacity="0.2">
<path d="M6.45801 25.5614C6.45801 25.5614 8.20961 26.5047 10.813 26.5047C12.7084 26.5047 14.484 26.0036 16.0199 25.1256C17.9262 24.0363 19.4577 22.3632 20.3749 20.3545C19.815 20.6094 19.2312 20.8164 18.6255 20.971C18.6255 20.971 13.7781 27.0428 6.46019 25.5614H6.45801Z" fill="#290056"/>
</g>
<path id="Vector_16" d="M31.7302 15.9994C31.7302 11.7511 29.2074 8.09104 25.58 6.43748C24.2532 5.83182 22.7783 5.49414 21.225 5.49414C19.3296 5.49414 17.554 5.99522 16.0181 6.8732C14.1118 7.9625 12.5803 9.63567 11.6631 11.6443C12.9899 11.0387 14.4648 10.701 16.0181 10.701C17.5715 10.701 19.0464 11.0387 20.3732 11.6443C22.3818 12.5594 24.055 14.0909 25.1443 15.9994C26.0223 17.5353 26.5234 19.3109 26.5234 21.2062C26.5234 22.7596 26.1857 24.2345 25.58 25.5613C29.2074 23.9077 31.7302 20.2477 31.7302 15.9994Z" fill="url(#paint1_linear_3046_6694)"/>
<g id="Vector_17" style="mix-blend-mode:multiply" opacity="0.2">
<path d="M13.6957 10.9603C13.6957 10.9603 12.3101 11.3502 11.6631 11.6443C12.5781 9.63567 14.1097 7.9625 16.0181 6.8732C17.554 5.99522 19.3296 5.49414 21.225 5.49414C23.6498 5.49414 25.58 6.43748 25.58 6.43748C25.58 6.43748 18.8263 3.85583 13.6957 10.9603Z" fill="#290056"/>
</g>
<path id="Vector_18" d="M25.1441 15.9986C24.0548 14.0923 22.3817 12.5607 20.373 11.6436C20.9786 12.9703 21.3163 14.4452 21.3163 15.9986C21.3163 17.5519 20.9786 19.0268 20.373 20.3536C19.458 22.3623 17.9264 24.0355 16.018 25.1248C14.482 26.0027 12.7065 26.5038 10.8111 26.5038C9.25774 26.5038 7.78283 26.1661 6.45605 25.5605C8.10962 29.1879 11.7697 31.7107 16.018 31.7107C20.2662 31.7107 23.9263 29.1879 25.5799 25.5605C26.1855 24.2337 26.5232 22.7588 26.5232 21.2055C26.5232 19.3101 26.0221 17.5345 25.1441 15.9986Z" fill="url(#paint2_linear_3046_6694)"/>
<g id="Vector_19" style="mix-blend-mode:multiply" opacity="0.2">
<path d="M25.5799 25.5605C25.5799 25.5605 26.5233 23.8089 26.5233 21.2055C26.5233 19.3101 26.0222 17.5345 25.1442 15.9986C24.0549 14.0923 22.3817 12.5607 20.373 11.6436C20.6279 12.2035 20.8349 12.7873 20.9896 13.393C20.9896 13.393 27.0614 18.2404 25.5799 25.5583V25.5605Z" fill="#290056"/>
</g>
<path id="Vector_20" d="M16.0179 0.289062C11.7697 0.289062 8.10959 2.81189 6.45603 6.43927C5.85038 7.76604 5.5127 9.24095 5.5127 10.7943C5.5127 12.6897 6.01377 14.4653 6.89175 16.0012C7.98106 17.9074 9.65422 19.439 11.6629 20.3562C11.0572 19.0294 10.7196 17.5545 10.7196 16.0012C10.7196 14.4478 11.0572 12.9729 11.6629 11.6461C12.5779 9.63746 14.1095 7.96429 16.0179 6.87499C17.5539 5.99701 19.3294 5.49593 21.2248 5.49593C22.7781 5.49593 24.2531 5.83361 25.5798 6.43927C23.9263 2.81189 20.2662 0.289062 16.0179 0.289062Z" fill="url(#paint3_linear_3046_6694)"/>
<g id="Vector_21" style="mix-blend-mode:multiply" opacity="0.2">
<path d="M10.9788 18.3208C10.9788 18.3208 11.3688 19.7064 11.6629 20.3535C9.65422 19.4384 7.98106 17.9069 6.89175 15.9984C6.01377 14.4625 5.5127 12.6869 5.5127 10.7916C5.5127 8.36677 6.45603 6.43652 6.45603 6.43652C6.45603 6.43652 3.87438 13.1902 10.9788 18.3208Z" fill="#290056"/>
</g>
</g>
</g>
</g>
<defs>
<linearGradient id="paint0_linear_3046_6694" x1="15.1074" y1="26.5363" x2="1.08804" y2="6.90057" gradientUnits="userSpaceOnUse">
<stop offset="0.09" stop-color="#430585"/>
<stop offset="0.2" stop-color="#4C0F8E"/>
<stop offset="0.4" stop-color="#652CA6"/>
<stop offset="0.65" stop-color="#8E5CCD"/>
<stop offset="0.93" stop-color="#C297FF"/>
</linearGradient>
<linearGradient id="paint1_linear_3046_6694" x1="16.7697" y1="6.24576" x2="32.179" y2="23.7291" gradientUnits="userSpaceOnUse">
<stop offset="0.1" stop-color="#430585"/>
<stop offset="0.21" stop-color="#4C0F8E"/>
<stop offset="0.4" stop-color="#652CA6"/>
<stop offset="0.65" stop-color="#8E5CCD"/>
<stop offset="0.93" stop-color="#C297FF"/>
</linearGradient>
<linearGradient id="paint2_linear_3046_6694" x1="11.6215" y1="31.1878" x2="24.362" y2="15.6892" gradientUnits="userSpaceOnUse">
<stop offset="0.15" stop-color="#D52EB2"/>
<stop offset="0.24" stop-color="#CB2BAF"/>
<stop offset="0.38" stop-color="#B224A7"/>
<stop offset="0.55" stop-color="#89189A"/>
<stop offset="0.76" stop-color="#500889"/>
<stop offset="0.81" stop-color="#430585"/>
</linearGradient>
<linearGradient id="paint3_linear_3046_6694" x1="17.2968" y1="-1.78279" x2="13.2424" y2="21.2429" gradientUnits="userSpaceOnUse">
<stop offset="0.15" stop-color="#D52EB2"/>
<stop offset="0.24" stop-color="#CB2BAF"/>
<stop offset="0.38" stop-color="#B224A7"/>
<stop offset="0.55" stop-color="#89189A"/>
<stop offset="0.76" stop-color="#500889"/>
<stop offset="0.81" stop-color="#430585"/>
</linearGradient>
<clipPath id="clip0_3046_6694">
<rect width="109" height="31.422" fill="white" transform="translate(0.308594 0.289062)"/>
</clipPath>
</defs>
</svg>
