<svg width="110" height="32" viewBox="0 0 110 32" fill="none" xmlns="http://www.w3.org/2000/svg">
<g id="Frame" clip-path="url(#clip0_3046_8057)">
<g id="Group">
<g id="Capa_1">
<path id="Vector" d="M46.4201 16.26H41.3157L40.6425 18.0509H36.7428L42.1849 4.93347H45.5705L50.9952 18.0509H47.0955L46.4223 16.26H46.4201ZM45.2851 13.247L43.8842 9.48894L42.466 13.247H45.2851Z" fill="#430585"/>
<path id="Vector_2" d="M58.1338 18.0505L55.404 14.7369V18.0505H51.8594V4.2229H55.404V11.1705L57.9029 8.29907H62.369L58.0619 12.9068L62.6 18.0462H58.1338V18.0505Z" fill="#430585"/>
<path id="Vector_3" d="M71.6064 11.9357V18.0511H68.186L68.1511 17.1818C67.5476 17.8724 66.6805 18.2275 65.7939 18.2275C63.685 18.2275 62.2667 16.9509 62.2667 15.0185C62.2667 13.086 63.9856 11.7745 66.5564 11.7745C67.0182 11.7745 67.5128 11.8094 68.0269 11.8987C67.9027 11.2255 67.3015 10.8878 66.2535 10.8878C65.5455 10.8878 64.9246 11.0469 64.356 11.3845L62.868 9.31051C64.0553 8.51314 65.3494 8.12317 67.1925 8.12317C69.8156 8.12317 71.6064 9.63076 71.6064 11.9336V11.9357ZM68.0618 14.2581C67.6892 14.2058 67.3341 14.1688 67.0161 14.1688C66.3603 14.1688 65.9355 14.4869 65.9355 14.9487C65.9355 15.4106 66.1664 15.7287 66.8222 15.7287C67.5498 15.7287 68.0444 15.1797 68.064 14.2581H68.0618Z" fill="#430585"/>
<path id="Vector_4" d="M73.1122 16.9509L74.4237 14.8246C75.4346 15.3213 76.3017 15.4803 77.2058 15.4803C77.648 15.4803 77.9683 15.391 77.9683 15.1622C77.9683 14.879 77.4716 14.7548 76.6742 14.5588L76.0882 14.4172C74.3344 13.9923 73.147 13.3366 73.147 11.7222C73.147 9.55887 74.8137 8.12317 77.3648 8.12317C78.9966 8.12317 80.3953 8.49571 81.3887 9.18633L79.9182 11.4739C79.1556 11.0839 78.3931 10.89 77.5958 10.89C77.0816 10.89 76.7439 10.9619 76.7439 11.1558C76.7439 11.3867 77.2058 11.5283 77.8616 11.6874L78.428 11.829C80.2885 12.2908 81.5652 13.0882 81.5652 14.9139C81.5652 16.916 79.7744 18.2275 77.1513 18.2275C75.5566 18.2275 74.1557 17.8201 73.11 16.9509H73.1122Z" fill="#430585"/>
<path id="Vector_5" d="M93.2648 11.9526V18.0505H89.7202V12.4667C89.7202 11.6694 89.1363 11.1552 88.2322 11.1552C87.3281 11.1552 86.7442 11.6694 86.7442 12.4667V18.0505H83.1996V4.2229H86.7442V9.18576C87.5067 8.45811 88.535 8.1226 89.5089 8.1226C91.7594 8.1226 93.267 9.64763 93.267 11.9504L93.2648 11.9526Z" fill="#430585"/>
<path id="Vector_6" d="M94.9129 5.57167C94.9129 4.40176 95.7648 3.54993 96.9347 3.54993C98.1046 3.54993 98.9368 4.40176 98.9368 5.57167C98.9368 6.74158 98.1046 7.57381 96.9347 7.57381C95.7648 7.57381 94.9129 6.74158 94.9129 5.57167ZM95.1439 8.30147H98.6885V18.0507H95.1439V8.30147Z" fill="#430585"/>
<path id="Vector_7" d="M100.194 13.1754C100.194 10.1449 102.375 8.12317 105.671 8.12317C107 8.12317 108.242 8.60246 109.163 9.31051L107.179 11.7026C106.861 11.3845 106.399 11.1536 105.743 11.1536C104.608 11.1536 103.865 11.951 103.865 13.1754C103.865 14.3997 104.593 15.1971 105.743 15.1971C106.523 15.1971 107.089 14.9836 107.497 14.4891L109.499 16.8289C108.525 17.7853 107.142 18.2297 105.617 18.2297C102.355 18.2297 100.192 16.208 100.192 13.1775L100.194 13.1754Z" fill="#430585"/>
<path id="Vector_8" d="M58.9903 22.4366L56.9184 28.4496H55.8531L54.3912 24.0553L52.9359 28.4496H51.8728L49.7922 22.4366H51.0188L52.4654 26.9137L53.8553 22.4366H54.9272L56.3324 26.9137L57.7703 22.4366H58.9881H58.9903Z" fill="#C297FF"/>
<path id="Vector_9" d="M65.5132 27.2536H62.742L62.254 28.4475H61.0274L63.596 22.4346H64.6592L67.2256 28.4475H65.999L65.511 27.2536H65.5132ZM65.1319 26.3038L64.1319 23.8572L63.132 26.3038H65.1298H65.1319Z" fill="#C297FF"/>
<path id="Vector_10" d="M74.164 27.4976V28.4475H70.3623V22.4346H71.5083V27.4955H74.164V27.4976Z" fill="#C297FF"/>
<path id="Vector_11" d="M81.241 27.4976V28.4475H77.4394V22.4346H78.5853V27.4955H81.241V27.4976Z" fill="#C297FF"/>
<path id="Vector_12" d="M88.6656 27.4976V28.4475H84.5132V22.4346H88.6003V23.3844H85.6592V24.9291H88.341V25.8724H85.6592V27.4976H88.6656Z" fill="#C297FF"/>
<path id="Vector_13" d="M96.4491 23.3865H94.6125V28.4474H93.4666V23.3865H91.6387V22.4366H96.4491V23.3865Z" fill="#C297FF"/>
<path id="Vector_14" d="M16.2093 25.1246C18.1155 24.0353 19.6471 22.3621 20.5643 20.3535C19.2375 20.9591 17.7626 21.2968 16.2093 21.2968C14.6559 21.2968 13.181 20.9591 11.8542 20.3535C9.84555 19.4384 8.17238 17.9069 7.08307 15.9984C6.2051 14.4625 5.70402 12.6869 5.70402 10.7916C5.70402 9.23821 6.0417 7.76329 6.64735 6.43652C3.02215 8.09226 0.499329 11.7501 0.499329 15.9984C0.499329 20.2467 3.02215 23.9068 6.64953 25.5603C7.9763 26.166 9.45122 26.5037 11.0046 26.5037C12.9 26.5037 14.6755 26.0026 16.2114 25.1246H16.2093Z" fill="url(#paint0_linear_3046_8057)"/>
<g id="Vector_15" style="mix-blend-mode:multiply" opacity="0.2">
<path d="M6.64935 25.5607C6.64935 25.5607 8.40095 26.5041 11.0044 26.5041C12.8998 26.5041 14.6753 26.003 16.2113 25.125C18.1175 24.0357 19.6491 22.3626 20.5663 20.3539C20.0064 20.6088 19.4225 20.8157 18.8169 20.9704C18.8169 20.9704 13.9695 27.0422 6.65153 25.5607H6.64935Z" fill="#290056"/>
</g>
<path id="Vector_16" d="M31.9212 15.9986C31.9212 11.7504 29.3984 8.09031 25.771 6.43674C24.4442 5.83109 22.9693 5.49341 21.416 5.49341C19.5206 5.49341 17.745 5.99449 16.2091 6.87247C14.3028 7.96177 12.7713 9.63494 11.8541 11.6436C13.1808 11.038 14.6558 10.7003 16.2091 10.7003C17.7624 10.7003 19.2374 11.038 20.5641 11.6436C22.5728 12.5586 24.246 14.0902 25.3353 15.9986C26.2133 17.5346 26.7143 19.3101 26.7143 21.2055C26.7143 22.7589 26.3767 24.2338 25.771 25.5605C29.3984 23.907 31.9212 20.2469 31.9212 15.9986Z" fill="url(#paint1_linear_3046_8057)"/>
<g id="Vector_17" style="mix-blend-mode:multiply" opacity="0.2">
<path d="M13.8867 10.9595C13.8867 10.9595 12.5011 11.3495 11.8541 11.6436C12.7691 9.63494 14.3006 7.96177 16.2091 6.87247C17.745 5.99449 19.5206 5.49341 21.416 5.49341C23.8408 5.49341 25.771 6.43674 25.771 6.43674C25.771 6.43674 19.0173 3.8551 13.8867 10.9595Z" fill="#290056"/>
</g>
<path id="Vector_18" d="M25.3353 15.9985C24.246 14.0922 22.5728 12.5606 20.5641 11.6434C21.1698 12.9702 21.5075 14.4451 21.5075 15.9985C21.5075 17.5518 21.1698 19.0267 20.5641 20.3535C19.6491 22.3622 18.1176 24.0353 16.2091 25.1246C14.6732 26.0026 12.8976 26.5037 11.0022 26.5037C9.4489 26.5037 7.97399 26.166 6.64722 25.5604C8.30078 29.1877 11.9608 31.7106 16.2091 31.7106C20.4574 31.7106 24.1175 29.1877 25.771 25.5604C26.3767 24.2336 26.7144 22.7587 26.7144 21.2053C26.7144 19.3099 26.2133 17.5344 25.3353 15.9985Z" fill="url(#paint2_linear_3046_8057)"/>
<g id="Vector_19" style="mix-blend-mode:multiply" opacity="0.2">
<path d="M25.7713 25.5604C25.7713 25.5604 26.7147 23.8088 26.7147 21.2053C26.7147 19.3099 26.2136 17.5344 25.3356 15.9985C24.2463 14.0922 22.5731 12.5606 20.5645 11.6434C20.8193 12.2033 21.0263 12.7872 21.181 13.3929C21.181 13.3929 27.2528 18.2403 25.7713 25.5582V25.5604Z" fill="#290056"/>
</g>
<path id="Vector_20" d="M16.2093 0.288696C11.961 0.288696 8.30094 2.81152 6.64738 6.4389C6.04172 7.76567 5.70404 9.24059 5.70404 10.7939C5.70404 12.6893 6.20512 14.4649 7.0831 16.0008C8.1724 17.9071 9.84557 19.4386 11.8542 20.3558C11.2486 19.0291 10.9109 17.5541 10.9109 16.0008C10.9109 14.4475 11.2486 12.9725 11.8542 11.6458C12.7693 9.63709 14.3008 7.96392 16.2093 6.87462C17.7452 5.99664 19.5208 5.49556 21.4161 5.49556C22.9695 5.49556 24.4444 5.83325 25.7712 6.4389C24.1176 2.81152 20.4576 0.288696 16.2093 0.288696Z" fill="url(#paint3_linear_3046_8057)"/>
<g id="Vector_21" style="mix-blend-mode:multiply" opacity="0.2">
<path d="M11.1702 18.3208C11.1702 18.3208 11.5601 19.7064 11.8542 20.3535C9.84557 19.4384 8.1724 17.9069 7.0831 15.9984C6.20512 14.4625 5.70404 12.6869 5.70404 10.7916C5.70404 8.36677 6.64738 6.43652 6.64738 6.43652C6.64738 6.43652 4.06573 13.1902 11.1702 18.3208Z" fill="#290056"/>
</g>
</g>
</g>
</g>
<defs>
<linearGradient id="paint0_linear_3046_8057" x1="15.2986" y1="26.5363" x2="1.27927" y2="6.90057" gradientUnits="userSpaceOnUse">
<stop offset="0.09" stop-color="#430585"/>
<stop offset="0.2" stop-color="#4C0F8E"/>
<stop offset="0.4" stop-color="#652CA6"/>
<stop offset="0.65" stop-color="#8E5CCD"/>
<stop offset="0.93" stop-color="#C297FF"/>
</linearGradient>
<linearGradient id="paint1_linear_3046_8057" x1="16.9607" y1="6.24503" x2="32.37" y2="23.7283" gradientUnits="userSpaceOnUse">
<stop offset="0.1" stop-color="#430585"/>
<stop offset="0.21" stop-color="#4C0F8E"/>
<stop offset="0.4" stop-color="#652CA6"/>
<stop offset="0.65" stop-color="#8E5CCD"/>
<stop offset="0.93" stop-color="#C297FF"/>
</linearGradient>
<linearGradient id="paint2_linear_3046_8057" x1="11.8127" y1="31.1877" x2="24.5532" y2="15.6891" gradientUnits="userSpaceOnUse">
<stop offset="0.15" stop-color="#D52EB2"/>
<stop offset="0.24" stop-color="#CB2BAF"/>
<stop offset="0.38" stop-color="#B224A7"/>
<stop offset="0.55" stop-color="#89189A"/>
<stop offset="0.76" stop-color="#500889"/>
<stop offset="0.81" stop-color="#430585"/>
</linearGradient>
<linearGradient id="paint3_linear_3046_8057" x1="17.4881" y1="-1.78316" x2="13.4337" y2="21.2425" gradientUnits="userSpaceOnUse">
<stop offset="0.15" stop-color="#D52EB2"/>
<stop offset="0.24" stop-color="#CB2BAF"/>
<stop offset="0.38" stop-color="#B224A7"/>
<stop offset="0.55" stop-color="#89189A"/>
<stop offset="0.76" stop-color="#500889"/>
<stop offset="0.81" stop-color="#430585"/>
</linearGradient>
<clipPath id="clip0_3046_8057">
<rect width="109" height="31.422" fill="white" transform="translate(0.5 0.28894)"/>
</clipPath>
</defs>
</svg>
