<svg width="136" height="32" viewBox="0 0 136 32" fill="none" xmlns="http://www.w3.org/2000/svg">
<rect width="136" height="32" rx="8" fill="#F3BA2F"/>
<path d="M28.1925 21.2877V23.0806L26.4756 24L24.8091 23.0806V21.2877L26.4756 22.2071L28.1925 21.2877ZM19 15.0802L20.6665 15.9996V19.0804L23.5458 20.6434V22.4363L19 19.9998V15.0802ZM33.9503 15.0802V19.9998L29.354 22.4363V20.6434L32.2333 19.0804V15.9996L33.9503 15.0802ZM29.354 12.6438L31.071 13.5632V15.356L28.1917 16.919V20.0458L26.5252 20.9652L24.8588 20.0458V16.919L21.8785 15.356V13.5632L23.5955 12.6438L26.4747 14.2068L29.354 12.6438ZM21.8793 16.644L23.5458 17.5634V19.3562L21.8793 18.4368V16.644ZM31.0718 16.644V18.4368L29.4054 19.3562V17.5634L31.0718 16.644ZM20.6665 11.0808L22.3835 12.0002L20.6665 12.9196V14.7125L19 13.793V12.0002L20.6665 11.0808ZM32.283 11.0808L34 12.0002V13.793L32.283 14.7125V12.9196L30.6165 12.0002L32.283 11.0808ZM26.4747 11.0808L28.1917 12.0002L26.4747 12.9196L24.8083 12.0002L26.4747 11.0808ZM26.4747 8L31.071 10.4364L29.4045 11.3559L26.5252 9.79285L23.5955 11.3559L21.929 10.4364L26.4747 8Z" fill="white"/>
<path d="M49.14 15.904C49.7093 16.0627 50.148 16.352 50.456 16.772C50.7733 17.192 50.932 17.7053 50.932 18.312C50.932 19.152 50.6287 19.81 50.022 20.286C49.4247 20.762 48.5987 21 47.544 21H43.064V11.13H47.404C48.4307 11.13 49.2333 11.3587 49.812 11.816C50.4 12.264 50.694 12.894 50.694 13.706C50.694 14.2287 50.554 14.6813 50.274 15.064C50.0033 15.4467 49.6253 15.7267 49.14 15.904ZM44.828 15.288H47.11C48.3513 15.288 48.972 14.826 48.972 13.902C48.972 13.4353 48.818 13.09 48.51 12.866C48.202 12.642 47.7353 12.53 47.11 12.53H44.828V15.288ZM47.348 19.6C48.0013 19.6 48.4773 19.4833 48.776 19.25C49.0747 19.0167 49.224 18.6527 49.224 18.158C49.224 17.6633 49.07 17.2947 48.762 17.052C48.4633 16.8093 47.992 16.688 47.348 16.688H44.828V19.6H47.348ZM52.5666 14.154H54.3166V21H52.5666V14.154ZM54.4006 10.976V12.698H52.4686V10.976H54.4006ZM60.1973 13.986C61.0187 13.986 61.63 14.2193 62.0313 14.686C62.4327 15.1527 62.6333 15.8573 62.6333 16.8V21H60.8833V16.898C60.8833 16.366 60.7807 15.9787 60.5753 15.736C60.3793 15.4933 60.0667 15.372 59.6373 15.372C59.1333 15.372 58.7273 15.5307 58.4193 15.848C58.1207 16.1653 57.9713 16.59 57.9713 17.122V21H56.2213V14.154H57.9293V15.176C58.1627 14.7933 58.4753 14.4993 58.8673 14.294C59.2593 14.0887 59.7027 13.986 60.1973 13.986ZM67.4508 13.986C68.4121 13.986 69.1261 14.2193 69.5928 14.686C70.0594 15.1527 70.2928 15.8713 70.2928 16.842V21H68.6268V19.95C68.4681 20.314 68.2161 20.5987 67.8708 20.804C67.5348 21.0093 67.1428 21.112 66.6948 21.112C66.2374 21.112 65.8221 21.0187 65.4488 20.832C65.0754 20.6453 64.7814 20.3887 64.5668 20.062C64.3521 19.7353 64.2448 19.3713 64.2448 18.97C64.2448 18.466 64.3708 18.0693 64.6228 17.78C64.8841 17.4907 65.3041 17.2807 65.8828 17.15C66.4614 17.0193 67.2594 16.954 68.2768 16.954H68.6268V16.632C68.6268 16.1653 68.5241 15.8293 68.3188 15.624C68.1228 15.4187 67.7914 15.316 67.3248 15.316C66.9608 15.316 66.5781 15.3813 66.1768 15.512C65.7848 15.6333 65.3974 15.806 65.0148 16.03L64.5248 14.826C64.9074 14.5833 65.3694 14.3827 65.9108 14.224C66.4521 14.0653 66.9654 13.986 67.4508 13.986ZM67.0448 19.852C67.5114 19.852 67.8894 19.698 68.1788 19.39C68.4774 19.0727 68.6268 18.6667 68.6268 18.172V17.878H68.3748C67.7494 17.878 67.2641 17.906 66.9188 17.962C66.5734 18.018 66.3261 18.116 66.1768 18.256C66.0274 18.396 65.9528 18.5873 65.9528 18.83C65.9528 19.1287 66.0554 19.376 66.2608 19.572C66.4661 19.7587 66.7274 19.852 67.0448 19.852ZM76.1473 13.986C76.9687 13.986 77.58 14.2193 77.9813 14.686C78.3827 15.1527 78.5833 15.8573 78.5833 16.8V21H76.8333V16.898C76.8333 16.366 76.7307 15.9787 76.5253 15.736C76.3293 15.4933 76.0167 15.372 75.5873 15.372C75.0833 15.372 74.6773 15.5307 74.3693 15.848C74.0707 16.1653 73.9213 16.59 73.9213 17.122V21H72.1713V14.154H73.8793V15.176C74.1127 14.7933 74.4253 14.4993 74.8173 14.294C75.2093 14.0887 75.6527 13.986 76.1473 13.986ZM83.5828 21.112C82.8641 21.112 82.2388 20.9673 81.7068 20.678C81.1841 20.3887 80.7828 19.978 80.5028 19.446C80.2228 18.914 80.0828 18.2933 80.0828 17.584C80.0828 16.8747 80.2274 16.2493 80.5168 15.708C80.8154 15.1573 81.2354 14.7327 81.7768 14.434C82.3181 14.1353 82.9434 13.986 83.6528 13.986C84.1381 13.986 84.6094 14.0653 85.0668 14.224C85.5334 14.3733 85.9068 14.5787 86.1868 14.84L85.6828 16.072C85.3934 15.8387 85.0854 15.6613 84.7588 15.54C84.4414 15.4187 84.1241 15.358 83.8068 15.358C83.2001 15.358 82.7288 15.5493 82.3928 15.932C82.0568 16.3053 81.8888 16.8467 81.8888 17.556C81.8888 18.256 82.0568 18.7973 82.3928 19.18C82.7288 19.5533 83.2001 19.74 83.8068 19.74C84.1241 19.74 84.4414 19.6793 84.7588 19.558C85.0854 19.4367 85.3934 19.2593 85.6828 19.026L86.1868 20.244C85.8881 20.5147 85.5054 20.7293 85.0388 20.888C84.5721 21.0373 84.0868 21.112 83.5828 21.112ZM93.4027 17.892H88.7407C88.7967 18.5267 88.9881 18.998 89.3147 19.306C89.6414 19.614 90.1081 19.768 90.7147 19.768C91.4707 19.768 92.1614 19.5253 92.7867 19.04L93.2907 20.244C92.9734 20.5053 92.5721 20.7153 92.0867 20.874C91.6107 21.0327 91.1301 21.112 90.6447 21.112C89.5247 21.112 88.6381 20.7947 87.9847 20.16C87.3407 19.5253 87.0187 18.6573 87.0187 17.556C87.0187 16.856 87.1587 16.2353 87.4387 15.694C87.7187 15.1527 88.1107 14.7327 88.6147 14.434C89.1281 14.1353 89.7067 13.986 90.3507 13.986C91.2934 13.986 92.0354 14.2893 92.5767 14.896C93.1274 15.5027 93.4027 16.338 93.4027 17.402V17.892ZM90.3927 15.218C89.9261 15.218 89.5481 15.3673 89.2587 15.666C88.9787 15.9647 88.8061 16.394 88.7407 16.954H91.9047C91.8861 16.3847 91.7461 15.9553 91.4847 15.666C91.2234 15.3673 90.8594 15.218 90.3927 15.218ZM102.335 21.126C101.579 21.126 100.87 21.0233 100.207 20.818C99.5443 20.6127 98.9843 20.3233 98.527 19.95L99.129 18.634C99.605 18.998 100.104 19.264 100.627 19.432C101.159 19.6 101.733 19.684 102.349 19.684C103.03 19.684 103.553 19.5673 103.917 19.334C104.29 19.0913 104.477 18.7553 104.477 18.326C104.477 17.9527 104.304 17.668 103.959 17.472C103.623 17.276 103.058 17.0893 102.265 16.912C101.444 16.7347 100.776 16.5293 100.263 16.296C99.7497 16.0627 99.3623 15.764 99.101 15.4C98.8397 15.036 98.709 14.574 98.709 14.014C98.709 13.4353 98.8677 12.9173 99.185 12.46C99.5023 12.0027 99.9503 11.648 100.529 11.396C101.108 11.1347 101.775 11.004 102.531 11.004C103.222 11.004 103.88 11.1113 104.505 11.326C105.13 11.5313 105.644 11.816 106.045 12.18L105.443 13.496C104.566 12.796 103.595 12.446 102.531 12.446C101.896 12.446 101.392 12.5767 101.019 12.838C100.655 13.09 100.473 13.4447 100.473 13.902C100.473 14.2847 100.636 14.5787 100.963 14.784C101.29 14.9893 101.845 15.1807 102.629 15.358C103.46 15.5447 104.132 15.7547 104.645 15.988C105.168 16.212 105.564 16.5013 105.835 16.856C106.115 17.2107 106.255 17.6587 106.255 18.2C106.255 18.788 106.096 19.306 105.779 19.754C105.471 20.1927 105.018 20.5333 104.421 20.776C103.833 21.0093 103.138 21.126 102.335 21.126ZM112.497 21.126C111.526 21.126 110.677 20.9207 109.949 20.51C109.23 20.09 108.675 19.4973 108.283 18.732C107.9 17.9667 107.709 17.0753 107.709 16.058C107.709 15.0407 107.9 14.154 108.283 13.398C108.675 12.6327 109.23 12.0447 109.949 11.634C110.677 11.214 111.526 11.004 112.497 11.004C113.159 11.004 113.785 11.1067 114.373 11.312C114.961 11.5173 115.455 11.8067 115.857 12.18L115.255 13.496C114.807 13.1413 114.363 12.8847 113.925 12.726C113.486 12.558 113.019 12.474 112.525 12.474C111.573 12.474 110.835 12.782 110.313 13.398C109.799 14.014 109.543 14.9007 109.543 16.058C109.543 17.2247 109.799 18.116 110.313 18.732C110.835 19.348 111.573 19.656 112.525 19.656C113.019 19.656 113.486 19.5767 113.925 19.418C114.363 19.25 114.807 18.9887 115.255 18.634L115.857 19.95C115.455 20.3233 114.961 20.6127 114.373 20.818C113.785 21.0233 113.159 21.126 112.497 21.126Z" fill="white"/>
</svg>
