<svg xmlns="http://www.w3.org/2000/svg" width="18" height="18" viewBox="0 0 18 18" fill="none">
  <path d="M11.8164 10.6914H11.2239L11.0139 10.4889C11.7489 9.63391 12.1914 8.52391 12.1914 7.31641C12.1914 4.62391 10.0089 2.44141 7.31641 2.44141C4.62391 2.44141 2.44141 4.62391 2.44141 7.31641C2.44141 10.0089 4.62391 12.1914 7.31641 12.1914C8.52391 12.1914 9.63391 11.7489 10.4889 11.0139L10.6914 11.2239V11.8164L14.4414 15.5589L15.5589 14.4414L11.8164 10.6914ZM7.31641 10.6914C5.44891 10.6914 3.94141 9.18391 3.94141 7.31641C3.94141 5.44891 5.44891 3.94141 7.31641 3.94141C9.18391 3.94141 10.6914 5.44891 10.6914 7.31641C10.6914 9.18391 9.18391 10.6914 7.31641 10.6914Z" fill="var(--search-icon-color)"/>
</svg>
