<svg width="46" height="24" viewBox="0 0 46 24" fill="none" xmlns="http://www.w3.org/2000/svg">
<g clip-path="url(#clip0_10026_104067)">
<path d="M23.5191 22.2863C21.7129 23.3737 19.5976 24 17.3352 24C14.9209 24 12.6717 23.2878 10.7911 22.0599L4.96094 24L7.00514 18.1087C5.94421 16.3189 5.33607 14.2318 5.33607 12.0008C5.33441 5.37244 10.7069 0 17.3352 0C19.5976 0 21.7145 0.626317 23.5207 1.71535C21.0023 3.91159 19.2952 7.02004 18.9167 10.5201C18.8622 11.006 18.8358 11.5001 18.8358 12.0008C18.8358 12.5015 18.8605 12.9543 18.9101 13.422C19.2753 16.9453 20.9874 20.0752 23.5191 22.2863Z" fill="white"/>
<path d="M44.8634 24.1133L39.0332 22.1732H39.0316C37.151 23.401 34.9018 24.1133 32.4875 24.1133C29.6137 24.1133 26.9778 23.1036 24.9122 21.418C22.2119 19.2184 20.4883 15.8671 20.4883 12.1141C20.4883 8.36117 22.2119 5.00814 24.9122 2.80859C26.9778 1.12299 29.6137 0.113281 32.4875 0.113281C39.1158 0.113281 44.4883 5.48573 44.4883 12.1141C44.4883 14.3451 43.8785 16.4322 42.8192 18.2219L44.8634 24.1133Z" fill="#A2A2FF"/>
<path d="M18.8359 12C18.8359 12.4793 18.8607 12.9536 18.9103 13.4212C18.5963 13.6675 18.2013 13.8145 17.7717 13.8145C16.7521 13.8145 15.9258 12.9866 15.9258 11.967C15.9258 10.9474 16.7521 10.1211 17.7717 10.1211C18.203 10.1211 18.6029 10.2698 18.9169 10.5194C18.8624 11.0052 18.8359 11.4993 18.8359 12Z" fill="#060030"/>
<path d="M26.7689 11.9666C26.7689 10.9471 25.9425 10.1207 24.923 10.1207C23.9036 10.1207 23.0771 10.9471 23.0771 11.9666C23.0771 12.9861 23.9036 13.8125 24.923 13.8125C25.9425 13.8125 26.7689 12.9861 26.7689 11.9666Z" fill="white"/>
<path d="M12.4652 11.9705C12.4652 10.951 11.6388 10.1246 10.6193 10.1246C9.59987 10.1246 8.77344 10.951 8.77344 11.9705C8.77344 12.99 9.59987 13.8164 10.6193 13.8164C11.6388 13.8164 12.4652 12.99 12.4652 11.9705Z" fill="#060030"/>
<path d="M33.9027 11.9666C33.9027 10.9471 33.0763 10.1207 32.0568 10.1207C31.0374 10.1207 30.2109 10.9471 30.2109 11.9666C30.2109 12.9861 31.0374 13.8125 32.0568 13.8125C33.0763 13.8125 33.9027 12.9861 33.9027 11.9666Z" fill="white"/>
<path d="M41.0541 11.9822C41.0541 10.9628 40.2277 10.1363 39.2082 10.1363C38.1887 10.1363 37.3623 10.9628 37.3623 11.9822C37.3623 13.0017 38.1887 13.8281 39.2082 13.8281C40.2277 13.8281 41.0541 13.0017 41.0541 11.9822Z" fill="white"/>
</g>
<defs>
<clipPath id="clip0_10026_104067">
<rect width="45.2221" height="24" fill="white" transform="translate(0.77832)"/>
</clipPath>
</defs>
</svg>
