<svg width="134" height="39" viewBox="0 0 134 39" fill="none" xmlns="http://www.w3.org/2000/svg">
<g clip-path="url(#clip0_590_5706)">
<path d="M56.3633 19.6566H50.081L49.2525 21.8606H44.453L51.1509 5.71655H55.3176L61.994 21.8606H57.1945L56.366 19.6566H56.3633ZM54.9663 15.9483L53.2423 11.3231L51.4967 15.9483H54.9663Z" fill="white"/>
<path d="M70.7807 21.8608L67.421 17.7825V21.8608H63.0586V4.84265H67.421V13.3933L70.4965 9.85934H75.9931L70.6922 15.5303L76.2773 21.8554H70.7807V21.8608Z" fill="white"/>
<path d="M87.3617 14.3343V21.8607H83.1521L83.1092 20.7909C82.3665 21.6408 81.2994 22.0779 80.2081 22.0779C77.6126 22.0779 75.8671 20.5067 75.8671 18.1284C75.8671 15.7501 77.9826 14.1359 81.1465 14.1359C81.715 14.1359 82.3236 14.1788 82.9564 14.2888C82.8036 13.4602 82.0635 13.0446 80.7738 13.0446C79.9024 13.0446 79.1382 13.2404 78.4384 13.656L76.6071 11.1034C78.0684 10.122 79.6611 9.64209 81.9295 9.64209C85.1577 9.64209 87.3617 11.4975 87.3617 14.3317V14.3343ZM82.9993 17.1926C82.5408 17.1282 82.1037 17.0827 81.7123 17.0827C80.9052 17.0827 80.3824 17.4741 80.3824 18.0426C80.3824 18.611 80.6666 19.0025 81.4736 19.0025C82.3692 19.0025 82.9778 18.3268 83.002 17.1926H82.9993Z" fill="white"/>
<path d="M89.2145 20.5067L90.8286 17.8897C92.0727 18.5011 93.1399 18.6968 94.2526 18.6968C94.7969 18.6968 95.1911 18.5869 95.1911 18.3053C95.1911 17.9568 94.5797 17.8039 93.5984 17.5626L92.8771 17.3883C90.7187 16.8655 89.2574 16.0584 89.2574 14.0716C89.2574 11.4091 91.3086 9.64209 94.4483 9.64209C96.4566 9.64209 98.178 10.1006 99.4007 10.9506L97.5908 13.7659C96.6524 13.286 95.7139 13.0473 94.7326 13.0473C94.0998 13.0473 93.6842 13.1358 93.6842 13.3744C93.6842 13.6587 94.2526 13.8329 95.0597 14.0287L95.7568 14.203C98.0466 14.7714 99.6179 15.7527 99.6179 17.9997C99.6179 20.4638 97.4138 22.0779 94.1856 22.0779C92.2229 22.0779 90.4988 21.5765 89.2118 20.5067H89.2145Z" fill="white"/>
<path d="M114.016 14.3559V21.8608H109.654V14.9886C109.654 14.0073 108.935 13.3745 107.823 13.3745C106.71 13.3745 105.991 14.0073 105.991 14.9886V21.8608H101.629V4.84265H105.991V10.9506C106.93 10.0551 108.195 9.64215 109.394 9.64215C112.164 9.64215 114.019 11.5191 114.019 14.3532L114.016 14.3559Z" fill="white"/>
<path d="M116.046 6.50227C116.046 5.06242 117.094 4.01404 118.534 4.01404C119.974 4.01404 120.998 5.06242 120.998 6.50227C120.998 7.94212 119.974 8.96637 118.534 8.96637C117.094 8.96637 116.046 7.94212 116.046 6.50227ZM116.33 9.86192H120.693V21.8607H116.33V9.86192Z" fill="white"/>
<path d="M122.546 15.86C122.546 12.1303 125.229 9.64209 129.286 9.64209C130.922 9.64209 132.45 10.232 133.584 11.1034L131.142 14.0474C130.75 13.656 130.182 13.3718 129.375 13.3718C127.978 13.3718 127.064 14.3531 127.064 15.86C127.064 17.3669 127.959 18.3482 129.375 18.3482C130.335 18.3482 131.032 18.0855 131.533 17.4768L133.997 20.3565C132.799 21.5336 131.096 22.0806 129.219 22.0806C125.205 22.0806 122.543 19.5923 122.543 15.8627L122.546 15.86Z" fill="white"/>
<path d="M82.3424 29.6472C82.3424 31.138 81.2914 32.1381 79.7041 32.1381H78.165V34.6585H76.7546V27.2582H79.755C81.3155 27.2582 82.3451 28.2181 82.3451 29.6472H82.3424ZM80.8919 29.6981C80.8919 28.9393 80.3824 28.4272 79.6022 28.4272H78.1623V30.9664H79.6022C80.4012 30.9664 80.8919 30.457 80.8919 29.6955V29.6981Z" fill="#C297FF"/>
<path d="M90.5498 33.1865H87.1392L86.5386 34.6558H85.0291L88.1903 27.2555H89.4988L92.6573 34.6558H91.1478L90.5471 33.1865H90.5498ZM90.0806 32.0175L88.8499 29.0064L87.6192 32.0175H90.0779H90.0806Z" fill="#C297FF"/>
<path d="M101.699 27.2582L99.0575 31.929V34.6585H97.6472V31.929L94.998 27.2582H96.5076L98.3577 30.6768L100.197 27.2582H101.696H101.699Z" fill="#C297FF"/>
<path d="M19.3348 30.5669C21.6809 29.2262 23.5658 27.167 24.6947 24.6948C23.0617 25.4402 21.2465 25.8558 19.3348 25.8558C17.423 25.8558 15.6078 25.4402 13.9749 24.6948C11.5027 23.5687 9.44349 21.6837 8.10285 19.3349C7.02229 17.4446 6.40559 15.2594 6.40559 12.9267C6.40559 11.0149 6.82119 9.19968 7.56659 7.56677C3.10493 9.60455 0 14.1064 0 19.3349C0 24.5634 3.10493 29.068 7.56927 31.1031C9.20218 31.8485 11.0174 32.2641 12.9292 32.2641C15.2619 32.2641 17.4471 31.6474 19.3374 30.5669H19.3348Z" fill="url(#paint0_linear_590_5706)"/>
<g style="mix-blend-mode:multiply" opacity="0.2">
<path d="M7.56921 31.1031C7.56921 31.1031 9.72497 32.2641 12.9291 32.2641C15.2618 32.2641 17.4471 31.6474 19.3374 30.5668C21.6835 29.2262 23.5685 27.167 24.6973 24.6948C24.0082 25.0085 23.2896 25.2633 22.5442 25.4536C22.5442 25.4536 16.5783 32.9264 7.5719 31.1031H7.56921Z" fill="#290056"/>
</g>
<path d="M38.6722 19.335C38.6722 14.1065 35.5673 9.60198 31.1029 7.56688C29.47 6.82148 27.6548 6.40588 25.743 6.40588C23.4103 6.40588 21.2251 7.02258 19.3347 8.10314C16.9886 9.44378 15.1037 11.503 13.9749 13.9752C15.6078 13.2298 17.423 12.8142 19.3347 12.8142C21.2465 12.8142 23.0617 13.2298 24.6946 13.9752C27.1668 15.1013 29.226 16.9862 30.5667 19.335C31.6472 21.2254 32.2639 23.4106 32.2639 25.7433C32.2639 27.6551 31.8483 29.4703 31.1029 31.1032C35.5673 29.0681 38.6722 24.5636 38.6722 19.335Z" fill="url(#paint1_linear_590_5706)"/>
<g style="mix-blend-mode:multiply" opacity="0.2">
<path d="M16.4765 13.1332C16.4765 13.1332 14.7712 13.6132 13.9749 13.9752C15.101 11.503 16.9859 9.44378 19.3347 8.10314C21.2251 7.02258 23.4103 6.40588 25.743 6.40588C28.7273 6.40588 31.1029 7.56688 31.1029 7.56688C31.1029 7.56688 22.7909 4.38956 16.4765 13.1332Z" fill="#290056"/>
</g>
<path d="M30.5666 19.335C29.226 16.9889 27.1667 15.1039 24.6946 13.9751C25.44 15.608 25.8556 17.4232 25.8556 19.335C25.8556 21.2467 25.44 23.062 24.6946 24.6949C23.5684 27.167 21.6835 29.2263 19.3347 30.5669C17.4444 31.6475 15.2591 32.2642 12.9264 32.2642C11.0147 32.2642 9.19943 31.8486 7.56653 31.1032C9.60163 35.5675 14.1062 38.6724 19.3347 38.6724C24.5632 38.6724 29.0678 35.5675 31.1029 31.1032C31.8483 29.4703 32.2639 27.655 32.2639 25.7433C32.2639 23.4105 31.6472 21.2253 30.5666 19.335Z" fill="url(#paint2_linear_590_5706)"/>
<g style="mix-blend-mode:multiply" opacity="0.2">
<path d="M31.1029 31.1032C31.1029 31.1032 32.2639 28.9474 32.2639 25.7433C32.2639 23.4105 31.6472 21.2253 30.5666 19.335C29.226 16.9889 27.1667 15.1039 24.6946 13.9751C25.0083 14.6642 25.263 15.3828 25.4534 16.1282C25.4534 16.1282 32.9261 22.094 31.1029 31.1005V31.1032Z" fill="#290056"/>
</g>
<path d="M19.3348 0.000244141C14.1063 0.000244141 9.60173 3.10517 7.56664 7.56952C6.82124 9.20242 6.40564 11.0177 6.40564 12.9294C6.40564 15.2621 7.02234 17.4474 8.10289 19.3377C9.44354 21.6838 11.5028 23.5688 13.9749 24.6976C13.2295 23.0647 12.8139 21.2494 12.8139 19.3377C12.8139 17.4259 13.2295 15.6107 13.9749 13.9778C15.1011 11.5056 16.986 9.44642 19.3348 8.10577C21.2251 7.02522 23.4104 6.40852 25.7431 6.40852C27.6548 6.40852 29.4701 6.82412 31.103 7.56952C29.0679 3.10517 24.5633 0.000244141 19.3348 0.000244141Z" fill="url(#paint3_linear_590_5706)"/>
<g style="mix-blend-mode:multiply" opacity="0.2">
<path d="M13.133 22.1932C13.133 22.1932 13.6129 23.8985 13.9749 24.6948C11.5028 23.5687 9.44354 21.6837 8.10289 19.3349C7.02234 17.4446 6.40564 15.2594 6.40564 12.9267C6.40564 9.94239 7.56664 7.56677 7.56664 7.56677C7.56664 7.56677 4.38931 15.8788 13.133 22.1932Z" fill="#290056"/>
</g>
</g>
<defs>
<linearGradient id="paint0_linear_590_5706" x1="18.214" y1="32.3043" x2="0.9599" y2="8.13789" gradientUnits="userSpaceOnUse">
<stop offset="0.09" stop-color="#430585"/>
<stop offset="0.2" stop-color="#4C0F8E"/>
<stop offset="0.4" stop-color="#652CA6"/>
<stop offset="0.65" stop-color="#8E5CCD"/>
<stop offset="0.93" stop-color="#C297FF"/>
</linearGradient>
<linearGradient id="paint1_linear_590_5706" x1="20.2571" y1="7.33361" x2="39.2219" y2="28.8509" gradientUnits="userSpaceOnUse">
<stop offset="0.1" stop-color="#430585"/>
<stop offset="0.21" stop-color="#4C0F8E"/>
<stop offset="0.4" stop-color="#652CA6"/>
<stop offset="0.65" stop-color="#8E5CCD"/>
<stop offset="0.93" stop-color="#C297FF"/>
</linearGradient>
<linearGradient id="paint2_linear_590_5706" x1="13.9239" y1="38.0289" x2="29.604" y2="18.9542" gradientUnits="userSpaceOnUse">
<stop offset="0.15" stop-color="#D52EB2"/>
<stop offset="0.24" stop-color="#CB2BAF"/>
<stop offset="0.38" stop-color="#B224A7"/>
<stop offset="0.55" stop-color="#89189A"/>
<stop offset="0.76" stop-color="#500889"/>
<stop offset="0.81" stop-color="#430585"/>
</linearGradient>
<linearGradient id="paint3_linear_590_5706" x1="20.9087" y1="-2.54966" x2="15.9188" y2="25.7889" gradientUnits="userSpaceOnUse">
<stop offset="0.15" stop-color="#D52EB2"/>
<stop offset="0.24" stop-color="#CB2BAF"/>
<stop offset="0.38" stop-color="#B224A7"/>
<stop offset="0.55" stop-color="#89189A"/>
<stop offset="0.76" stop-color="#500889"/>
<stop offset="0.81" stop-color="#430585"/>
</linearGradient>
<clipPath id="clip0_590_5706">
<rect width="134" height="38.6722" fill="white"/>
</clipPath>
</defs>
</svg>
