<svg width="77" height="22" viewBox="0 0 77 22" fill="none" xmlns="http://www.w3.org/2000/svg">
<g clip-path="url(#clip0_2948_59420)">
<path d="M32.5911 11.1536H29.038L28.5694 12.4001H25.855L29.6431 3.26953H31.9996L35.7756 12.4001H33.0612L32.5926 11.1536H32.5911ZM31.801 9.05631L30.8259 6.44043L29.8387 9.05631H31.801Z" fill="white"/>
<path d="M40.7453 12.3984L38.8452 10.0918V12.3984H36.3779V2.77344H38.8452V7.6094L40.5846 5.61072H43.6933L40.6953 8.81801L43.854 12.3953H40.7453V12.3984Z" fill="white"/>
<path d="M50.1226 8.14207V12.3988H47.7418L47.7175 11.7937C47.2975 12.2744 46.6939 12.5216 46.0767 12.5216C44.6088 12.5216 43.6216 11.6329 43.6216 10.2878C43.6216 8.94276 44.8181 8.02985 46.6075 8.02985C46.929 8.02985 47.2732 8.05412 47.6311 8.11629C47.5446 7.64771 47.1261 7.41266 46.3967 7.41266C45.9038 7.41266 45.4717 7.52336 45.0759 7.75841L44.0401 6.31475C44.8666 5.75973 45.7674 5.48828 47.0503 5.48828C48.8761 5.48828 50.1226 6.53767 50.1226 8.14055V8.14207ZM47.6553 9.75861C47.396 9.72221 47.1489 9.69643 46.9274 9.69643C46.471 9.69643 46.1753 9.91784 46.1753 10.2393C46.1753 10.5608 46.336 10.7822 46.7925 10.7822C47.299 10.7822 47.6432 10.4001 47.6569 9.75861H47.6553Z" fill="white"/>
<path d="M51.171 11.6329L52.0839 10.1529C52.7875 10.4986 53.391 10.6093 54.0204 10.6093C54.3282 10.6093 54.5511 10.5472 54.5511 10.3879C54.5511 10.1908 54.2054 10.1044 53.6503 9.96788L53.2424 9.86931C52.0217 9.5736 51.1952 9.11715 51.1952 7.99346C51.1952 6.48762 52.3553 5.48828 54.1311 5.48828C55.2669 5.48828 56.2404 5.74759 56.9319 6.22831L55.9083 7.82058C55.3776 7.54914 54.8468 7.41417 54.2918 7.41417C53.9339 7.41417 53.6989 7.46422 53.6989 7.59918C53.6989 7.75993 54.0204 7.85849 54.4768 7.9692L54.8711 8.06776C56.1661 8.38925 57.0548 8.94427 57.0548 10.2151C57.0548 11.6087 55.8083 12.5216 53.9824 12.5216C52.8724 12.5216 51.8973 12.238 51.1694 11.6329H51.171Z" fill="white"/>
<path d="M65.1979 8.15381V12.3984H62.7306V8.51169C62.7306 7.95667 62.3242 7.59879 61.6949 7.59879C61.0656 7.59879 60.6592 7.95667 60.6592 8.51169V12.3984H58.1919V2.77344H60.6592V6.22791C61.1899 5.72142 61.9057 5.48789 62.5835 5.48789C64.15 5.48789 65.1994 6.5494 65.1994 8.15229L65.1979 8.15381Z" fill="white"/>
<path d="M66.3457 3.71391C66.3457 2.89957 66.9386 2.30664 67.753 2.30664C68.5673 2.30664 69.1466 2.89957 69.1466 3.71391C69.1466 4.52824 68.5673 5.10753 67.753 5.10753C66.9386 5.10753 66.3457 4.52824 66.3457 3.71391ZM66.5064 5.61402H68.9737V12.4001H66.5064V5.61402Z" fill="white"/>
<path d="M70.0215 9.00493C70.0215 6.89555 71.5395 5.48828 73.8339 5.48828C74.7589 5.48828 75.6233 5.8219 76.2648 6.31475L74.8833 7.97981C74.6619 7.75841 74.3404 7.59767 73.8839 7.59767C73.0939 7.59767 72.5768 8.15269 72.5768 9.00493C72.5768 9.85718 73.0833 10.4122 73.8839 10.4122C74.4268 10.4122 74.8211 10.2636 75.1047 9.91935L76.4983 11.548C75.8204 12.2137 74.8575 12.5231 73.796 12.5231C71.5259 12.5231 70.02 11.1158 70.02 9.00645L70.0215 9.00493Z" fill="white"/>
<path d="M38.0748 17.5327C38.0748 16.2498 38.9634 15.3945 40.2918 15.3945C40.9757 15.3945 41.5308 15.6205 41.9432 16.0678L41.4398 16.5774C41.2017 16.2726 40.8013 16.0572 40.3024 16.0572C39.4593 16.0572 38.8997 16.6517 38.8997 17.5388C38.8997 18.4259 39.4714 19.0325 40.313 19.0325C40.8787 19.0325 41.2684 18.7777 41.5353 18.3713L42.0721 18.852C41.6703 19.401 41.0591 19.6952 40.2964 19.6952C38.9679 19.6952 38.0732 18.8293 38.0732 17.5342L38.0748 17.5327Z" fill="white"/>
<path d="M48.2028 15.4512V19.6366H47.4051V17.832H45.1653V19.6366H44.3677V15.4512H45.1653V17.1754H47.4051V15.4512H48.2028Z" fill="white"/>
<path d="M53.5013 18.8056H51.5724L51.2327 19.6366H50.3789L52.1668 15.4512H52.9068L54.6947 19.6366H53.841L53.5013 18.8056ZM53.2359 18.1444L52.5398 16.4414L51.8438 18.1444H53.2344H53.2359Z" fill="white"/>
<path d="M56.877 15.4512H57.6746V19.6366H56.877V15.4512Z" fill="white"/>
<path d="M60.3647 15.4512H60.8621L63.4977 18.2839L63.4811 15.4512H64.2787V19.6366H63.7874L61.1518 16.8038L61.1624 19.6366H60.3647V15.4512Z" fill="white"/>
<path d="M6.98145 18.2637C7.00275 18.2667 7.02558 18.2682 7.04688 18.2713C7.02558 18.2698 7.00275 18.2667 6.98145 18.2637Z" fill="white"/>
<path d="M7.40891 18.299C7.418 18.299 7.4271 18.299 7.4362 18.299C7.40587 18.2975 7.37554 18.2945 7.34521 18.293C7.36645 18.293 7.38768 18.2975 7.41042 18.2975L7.40891 18.299Z" fill="white"/>
<path d="M13.3277 14.4373C13.3004 14.4448 13.2746 14.4524 13.2488 14.46C13.2488 14.46 9.87319 18.6863 4.78094 17.6552C2.25605 16.5042 0.5 13.9565 0.5 10.9995C0.5 8.04238 2.25605 5.49474 4.78094 4.34375C4.78094 4.34527 4.77943 4.34527 4.77943 4.34678L4.77791 4.3483C4.77639 4.35285 4.77488 4.3574 4.77184 4.36346C4.76881 4.37256 4.76426 4.38015 4.75971 4.38924C4.75516 4.39834 4.75061 4.41047 4.74455 4.42412C4.7127 4.49691 4.68237 4.57122 4.65356 4.64552C4.63385 4.69557 4.61262 4.75168 4.58987 4.81233C4.56561 4.87754 4.54134 4.94426 4.5186 5.01099C4.51405 5.02009 4.51101 5.0307 4.5095 5.0398C4.48978 5.09743 4.47007 5.15657 4.45187 5.21571C4.44277 5.24149 4.43519 5.26727 4.42913 5.29305C4.41244 5.34764 4.39728 5.40223 4.38212 5.45683C4.34269 5.60392 4.30781 5.75102 4.27748 5.90115C4.26232 5.97545 4.24715 6.05127 4.23502 6.1271C4.22744 6.16804 4.22137 6.20899 4.21682 6.24993C4.20924 6.28481 4.20469 6.31969 4.20014 6.35456C4.19711 6.37428 4.19408 6.39551 4.19256 6.41522C4.18498 6.47133 4.17739 6.52744 4.17133 6.58507C4.16375 6.64269 4.1592 6.70032 4.15313 6.75946C4.14555 6.85348 4.13797 6.94446 4.13342 7.03697C4.12887 7.14919 4.12432 7.2614 4.12432 7.37514C4.12432 7.8695 4.17436 8.35325 4.26687 8.82032C4.32904 9.13119 4.41244 9.43599 4.51253 9.7317C4.66266 10.1745 4.85525 10.5991 5.08423 10.9995C5.22678 11.2482 5.38297 11.4878 5.55282 11.7167C5.66655 11.8699 5.78483 12.0185 5.90918 12.1626C5.97136 12.2338 6.03505 12.3036 6.10026 12.3734C6.42478 12.7191 6.78266 13.0345 7.16784 13.312C7.39985 13.4789 7.64097 13.632 7.8927 13.7715C8.05951 13.864 8.23087 13.9505 8.40526 14.0308C9.32878 14.4509 10.3554 14.6859 11.4366 14.6859C12.0902 14.6859 12.7241 14.5995 13.3277 14.4373Z" fill="white"/>
<path d="M7.04639 18.2715C7.14496 18.2821 7.24504 18.2897 7.34361 18.2957C7.24353 18.2897 7.14496 18.2821 7.04639 18.2715Z" fill="#231B3C"/>
<path d="M17.6223 4.15292C17.2842 4.03008 16.7837 3.87692 16.1847 3.77987C16.1302 3.77229 16.0756 3.76319 16.0195 3.75561C15.9633 3.74651 15.9057 3.74044 15.8496 3.73438C15.9269 3.74196 16.0043 3.75106 16.0801 3.76319C16.1574 3.77229 16.2318 3.78442 16.3076 3.79807C16.3834 3.8102 16.4592 3.82536 16.5335 3.84053C16.6837 3.86934 16.8323 3.90422 16.9778 3.94516C17.0249 3.95729 17.0719 3.97094 17.1174 3.98459C17.1583 3.9952 17.1977 4.00734 17.2372 4.02098C17.2781 4.03312 17.3206 4.04676 17.3615 4.06041C17.3903 4.06951 17.4191 4.08013 17.4479 4.09074C17.5056 4.11045 17.5647 4.13169 17.6223 4.15292Z" fill="white"/>
<path d="M22.372 11C22.372 13.9571 20.6159 16.5047 18.091 17.6557C18.0926 17.6527 18.0941 17.6481 18.0956 17.6451C18.1426 17.5556 18.4914 16.852 18.6582 15.7708C18.6612 15.748 18.6658 15.7238 18.6688 15.6995C18.6809 15.6191 18.6916 15.5372 18.7007 15.4538C18.7007 15.4447 18.7037 15.4341 18.7037 15.4235C18.7037 15.4129 18.7037 15.4008 18.7067 15.3901C18.7113 15.3416 18.7173 15.2916 18.7204 15.243C18.7249 15.1915 18.728 15.1414 18.731 15.0914C18.7325 15.0611 18.7355 15.0307 18.7371 15.0004C18.7401 14.9398 18.7431 14.8776 18.7446 14.8154V14.8124C18.7446 14.7502 18.7477 14.688 18.7477 14.6243C18.7477 13.305 18.3989 12.0691 17.7878 11C17.0295 9.67312 15.8649 8.60706 14.4667 7.96863C13.5432 7.54857 12.5166 7.31352 11.4369 7.31352C10.8697 7.31352 10.3192 7.37873 9.7915 7.50156C9.80818 7.4955 9.82032 7.49247 9.82032 7.49247C11.9813 4.49899 14.5577 3.97581 16.2531 4.02889C16.3183 4.03192 16.3805 4.03496 16.4427 4.03799C16.5579 4.04406 16.6686 4.05467 16.7732 4.06529C16.8051 4.06832 16.8385 4.07135 16.8688 4.0759C16.8855 4.07742 16.9006 4.07893 16.9158 4.08197C16.9431 4.085 16.9689 4.08803 16.9962 4.09258C17.0326 4.09713 17.0674 4.10168 17.1008 4.10775C17.1417 4.11381 17.1827 4.11988 17.2206 4.12594C17.3025 4.14111 17.3798 4.15476 17.4511 4.16992C17.4951 4.18054 17.5375 4.18963 17.5785 4.19873C17.6801 4.22148 17.768 4.24423 17.8408 4.26546C17.8545 4.27001 17.8681 4.27304 17.8818 4.27759C17.9091 4.28517 17.9333 4.29124 17.9546 4.29882C17.9667 4.30185 17.9758 4.3064 17.9864 4.30943C17.9985 4.31247 18.0107 4.3155 18.0198 4.32005C18.0319 4.3246 18.044 4.32763 18.0531 4.33066C18.0592 4.3337 18.0668 4.33521 18.0713 4.33673C18.0744 4.33673 18.0789 4.33825 18.0819 4.34128C18.0835 4.34128 18.085 4.3428 18.0865 4.3428H18.088C18.088 4.3428 18.0895 4.3428 18.091 4.3428C20.6159 5.49378 22.372 8.04142 22.372 10.9985V11Z" fill="white"/>
<path d="M18.0907 17.6553C16.9397 20.1787 14.392 21.9347 11.4365 21.9347C8.4809 21.9347 5.93175 20.1787 4.78076 17.6553C4.78076 17.6553 4.78379 17.6553 4.78986 17.6598C4.87781 17.7069 5.55718 18.0435 6.60505 18.2118C6.60809 18.2133 6.61112 18.2133 6.61415 18.2133C6.65358 18.2194 6.69301 18.2255 6.73395 18.2315C6.75215 18.2346 6.77186 18.2376 6.79158 18.2391C6.85223 18.2482 6.91593 18.2558 6.97962 18.2634C7.00085 18.2664 7.02359 18.2679 7.04482 18.271C7.14188 18.2801 7.24045 18.2877 7.34205 18.2952C7.36479 18.2968 7.38603 18.2983 7.40726 18.2998C7.41635 18.2998 7.42545 18.2998 7.43455 18.2998C7.55587 18.3059 7.68173 18.3089 7.80912 18.3089C9.12994 18.3089 10.3659 17.9601 11.435 17.349C12.7618 16.5907 13.8279 15.4276 14.4648 14.0295C14.8864 13.1059 15.1214 12.0793 15.1214 10.9981C15.1214 10.3581 15.0365 9.7379 14.8834 9.14648C14.8879 9.15862 14.8909 9.17226 14.894 9.18591C14.894 9.18591 19.1203 12.56 18.0891 17.6538L18.0907 17.6553Z" fill="white"/>
<path d="M18.7007 15.4541C18.7007 15.4435 18.7037 15.4343 18.7053 15.4237C18.7053 15.413 18.7068 15.4008 18.7083 15.3887C18.7068 15.41 18.7037 15.4313 18.7007 15.4526V15.4541Z" fill="white"/>
<path d="M7.81065 18.3114C7.68478 18.3114 7.55892 18.3068 7.43457 18.3008C7.5574 18.3068 7.68175 18.3114 7.81065 18.3114Z" fill="white"/>
<path d="M6.23668 18.1409C6.358 18.1667 6.48235 18.1909 6.6067 18.2121C5.55883 18.0438 4.87946 17.7072 4.7915 17.6602C5.01897 17.7633 5.2525 17.8558 5.4921 17.9346C5.73474 18.0165 5.98344 18.0848 6.23668 18.1409Z" fill="white"/>
<path d="M7.34361 18.2957C7.24353 18.2897 7.14496 18.2821 7.04639 18.2715C7.14344 18.2821 7.24201 18.2897 7.34361 18.2957Z" fill="white"/>
<path d="M18.7065 15.3905C18.7172 15.292 18.7247 15.1919 18.7308 15.0918C18.7247 15.1919 18.7172 15.2905 18.7065 15.3905Z" fill="#231B3C"/>
<path d="M18.7308 15.0918C18.7247 15.1919 18.7172 15.2905 18.7065 15.3905C18.7172 15.2935 18.7247 15.1949 18.7308 15.0918Z" fill="#231B3C"/>
<path d="M18.7474 14.623C18.7474 14.7489 18.7429 14.8748 18.7368 14.9991C18.7429 14.8763 18.7474 14.7519 18.7474 14.623Z" fill="#231B3C"/>
<path d="M18.0952 17.6439C18.3621 17.057 18.5532 16.4277 18.6578 15.7695C18.491 16.8508 18.1422 17.5544 18.0952 17.6439Z" fill="#231B3C"/>
<path d="M4.58993 4.8125C4.46709 5.15067 4.31393 5.6511 4.21688 6.2501C4.20778 6.30469 4.2002 6.35928 4.19262 6.41539C4.18503 6.4715 4.17745 6.52761 4.17139 6.58523C4.17897 6.50789 4.18807 6.43055 4.2002 6.35473C4.2093 6.27891 4.22143 6.20309 4.23508 6.12726C4.24721 6.05144 4.26237 5.97562 4.27754 5.90131C4.30635 5.75118 4.34275 5.60257 4.38217 5.45699C4.39734 5.4024 4.4125 5.34781 4.42918 5.29322C4.43525 5.26744 4.44283 5.24166 4.45193 5.21588C4.47013 5.15673 4.48984 5.09759 4.50956 5.03997C4.51107 5.03087 4.5141 5.02025 4.51865 5.01116C4.5414 4.94443 4.56566 4.87771 4.58993 4.8125Z" fill="white"/>
<path d="M18.0906 4.34388C18.0906 4.34388 18.0891 4.34388 18.0876 4.34388H18.0861C18.0861 4.34388 18.077 4.33933 18.0709 4.3363C18.0664 4.33478 18.0618 4.33326 18.0573 4.33023C18.036 4.31962 18.0042 4.30597 17.9632 4.28929C17.9526 4.28474 17.9435 4.28019 17.9314 4.27564C17.9086 4.26654 17.8844 4.25592 17.8571 4.24531C17.8343 4.23621 17.8116 4.22711 17.7889 4.21801C17.7343 4.19527 17.6782 4.17404 17.622 4.15432C17.5644 4.13309 17.5053 4.11186 17.4476 4.09215C17.4188 4.08153 17.39 4.07092 17.3612 4.06182C17.3203 4.04817 17.2778 4.03452 17.2369 4.02239C17.1974 4.00874 17.158 3.99813 17.1171 3.986C17.0716 3.97235 17.0246 3.9587 16.9775 3.94657C16.832 3.90714 16.6834 3.87226 16.5332 3.84193C16.4589 3.82677 16.3831 3.8116 16.3073 3.79947C16.2678 3.79189 16.2254 3.78582 16.1844 3.78128C16.1496 3.77369 16.1147 3.76914 16.0798 3.76459C16.0601 3.76156 16.0389 3.75853 16.0192 3.75701C15.963 3.74791 15.9054 3.74185 15.8493 3.73578C15.7917 3.7282 15.7341 3.72213 15.6749 3.71758C15.5839 3.71 15.4929 3.70394 15.4004 3.69939C15.2882 3.69332 15.1745 3.69029 15.0623 3.69029C13.7414 3.69029 12.5055 4.03907 11.438 4.6502C11.1877 4.79123 10.9481 4.94894 10.7192 5.11727C10.566 5.231 10.4174 5.34929 10.2748 5.47363C10.2036 5.53581 10.1323 5.5995 10.0625 5.66471C9.92453 5.79512 9.79109 5.93009 9.6637 6.0696C9.5985 6.14087 9.53632 6.21215 9.47566 6.28342C9.35283 6.429 9.23606 6.57913 9.12385 6.73381C9.01315 6.88697 8.90851 7.0462 8.80843 7.20997C8.66133 7.45412 8.52637 7.70888 8.40657 7.96971C7.98499 8.89323 7.74994 9.91987 7.74994 11.0011C7.74994 11.083 7.75146 11.1649 7.75449 11.2452C7.75752 11.359 7.76511 11.4712 7.77421 11.5819C7.77724 11.6274 7.78179 11.6729 7.78634 11.7184C7.79089 11.776 7.79847 11.8336 7.80605 11.8913C7.8106 11.9352 7.81667 11.9792 7.82273 12.0232C7.83031 12.0823 7.83941 12.1415 7.85003 12.2006C7.85458 12.234 7.86064 12.2673 7.86823 12.3007C7.88491 12.3932 7.9031 12.4857 7.92282 12.5767C7.92585 12.5919 7.92888 12.607 7.93192 12.6222C7.9304 12.6192 7.9304 12.6176 7.9304 12.6176C3.11415 9.14041 4.69126 4.59106 4.7777 4.35298C4.7777 4.35146 4.77921 4.34994 4.77921 4.34843C4.77921 4.34843 4.78073 4.3454 4.78073 4.34388C5.93172 1.8205 8.47936 0.0644531 11.4364 0.0644531C14.3935 0.0644531 16.9396 1.8205 18.0906 4.34388Z" fill="white"/>
<path d="M15.061 3.68945C15.1748 3.68945 15.287 3.694 15.3992 3.69855C15.2885 3.69249 15.1748 3.68945 15.061 3.68945Z" fill="white"/>
<path d="M17.9634 4.28711C18.0043 4.30379 18.0362 4.31744 18.0574 4.32805C18.0271 4.31441 17.9952 4.30076 17.9634 4.28711Z" fill="white"/>
<path d="M18.0713 4.33398C18.0713 4.33398 18.0819 4.33855 18.0865 4.34007H18.0819C18.0819 4.34007 18.0743 4.33551 18.0713 4.33551V4.33398Z" fill="white"/>
<path d="M4.77197 4.36287C4.77197 4.36287 4.77654 4.35222 4.77806 4.34766V4.35222C4.77806 4.35222 4.77349 4.35983 4.77197 4.36287Z" fill="#231B3C"/>
<path d="M4.78013 4.34766L4.77783 4.34996C4.78013 4.34996 4.78013 4.34766 4.78013 4.34766Z" fill="#231B3C"/>
<path d="M4.12451 7.37528C4.12451 7.26154 4.12906 7.14933 4.13361 7.03711C4.12754 7.14781 4.12451 7.26154 4.12451 7.37528Z" fill="#231B3C"/>
<path d="M4.77965 4.34766C4.77965 4.34766 4.77783 4.3513 4.77783 4.35312V4.34766H4.77965Z" fill="#231B3C"/>
<path d="M4.51275 9.7317C4.41267 9.43599 4.33078 9.1327 4.26709 8.82031C4.32926 9.13119 4.41115 9.43599 4.51275 9.7317Z" fill="#231B3C"/>
</g>
<defs>
<clipPath id="clip0_2948_59420">
<rect width="76" height="21.8703" fill="white" transform="translate(0.5 0.0644531)"/>
</clipPath>
</defs>
</svg>
