<svg width="110" height="32" viewBox="0 0 110 32" fill="none" xmlns="http://www.w3.org/2000/svg">
<g id="Frame" clip-path="url(#clip0_3046_3436)">
<g id="Group">
<g id="Capa_1">
<path id="Vector" d="M46.4205 16.26H41.3161L40.6429 18.0509H36.7432L42.1853 4.93347H45.5709L50.9956 18.0509H47.0959L46.4227 16.26H46.4205ZM45.2855 13.247L43.8846 9.48894L42.4664 13.247H45.2855Z" fill="white"/>
<path id="Vector_2" d="M58.1342 18.0505L55.4045 14.7369V18.0505H51.8599V4.2229H55.4045V11.1705L57.9033 8.29907H62.3695L58.0624 12.9068L62.6004 18.0462H58.1342V18.0505Z" fill="white"/>
<path id="Vector_3" d="M71.6068 11.9357V18.0511H68.1864L68.1515 17.1818C67.548 17.8724 66.6809 18.2275 65.7943 18.2275C63.6854 18.2275 62.2671 16.9509 62.2671 15.0185C62.2671 13.086 63.986 11.7745 66.5568 11.7745C67.0186 11.7745 67.5132 11.8094 68.0273 11.8987C67.9031 11.2255 67.3019 10.8878 66.2539 10.8878C65.5459 10.8878 64.925 11.0469 64.3564 11.3845L62.8684 9.31051C64.0557 8.51314 65.3498 8.12317 67.1929 8.12317C69.816 8.12317 71.6068 9.63076 71.6068 11.9336V11.9357ZM68.0622 14.2581C67.6896 14.2058 67.3345 14.1688 67.0165 14.1688C66.3607 14.1688 65.9359 14.4869 65.9359 14.9487C65.9359 15.4106 66.1668 15.7287 66.8226 15.7287C67.5502 15.7287 68.0448 15.1797 68.0644 14.2581H68.0622Z" fill="white"/>
<path id="Vector_4" d="M73.1125 16.9509L74.4241 14.8246C75.4349 15.3213 76.302 15.4803 77.2061 15.4803C77.6484 15.4803 77.9686 15.391 77.9686 15.1622C77.9686 14.879 77.4719 14.7548 76.6745 14.5588L76.0885 14.4172C74.3347 13.9923 73.1474 13.3366 73.1474 11.7222C73.1474 9.55887 74.814 8.12317 77.3652 8.12317C78.9969 8.12317 80.3956 8.49571 81.3891 9.18633L79.9185 11.4739C79.156 11.0839 78.3935 10.89 77.5961 10.89C77.0819 10.89 76.7443 10.9619 76.7443 11.1558C76.7443 11.3867 77.2061 11.5283 77.8619 11.6874L78.4283 11.829C80.2889 12.2908 81.5655 13.0882 81.5655 14.9139C81.5655 16.916 79.7747 18.2275 77.1517 18.2275C75.5569 18.2275 74.1561 17.8201 73.1104 16.9509H73.1125Z" fill="white"/>
<path id="Vector_5" d="M93.2649 11.9526V18.0505H89.7203V12.4667C89.7203 11.6694 89.1364 11.1552 88.2323 11.1552C87.3282 11.1552 86.7443 11.6694 86.7443 12.4667V18.0505H83.1997V4.2229H86.7443V9.18576C87.5068 8.45811 88.5351 8.1226 89.5089 8.1226C91.7594 8.1226 93.267 9.64763 93.267 11.9504L93.2649 11.9526Z" fill="white"/>
<path id="Vector_6" d="M94.9131 5.57167C94.9131 4.40176 95.7649 3.54993 96.9348 3.54993C98.1047 3.54993 98.937 4.40176 98.937 5.57167C98.937 6.74158 98.1047 7.57381 96.9348 7.57381C95.7649 7.57381 94.9131 6.74158 94.9131 5.57167ZM95.144 8.30147H98.6886V18.0507H95.144V8.30147Z" fill="white"/>
<path id="Vector_7" d="M100.194 13.1754C100.194 10.1449 102.375 8.12317 105.671 8.12317C107 8.12317 108.242 8.60246 109.163 9.31051L107.179 11.7026C106.861 11.3845 106.399 11.1536 105.743 11.1536C104.608 11.1536 103.865 11.951 103.865 13.1754C103.865 14.3997 104.593 15.1971 105.743 15.1971C106.523 15.1971 107.089 14.9836 107.497 14.4891L109.499 16.8289C108.525 17.7853 107.142 18.2297 105.617 18.2297C102.355 18.2297 100.192 16.208 100.192 13.1775L100.194 13.1754Z" fill="white"/>
<path id="Vector_8" d="M58.9906 22.4366L56.9187 28.4496H55.8534L54.3915 24.0553L52.9362 28.4496H51.873L49.7925 22.4366H51.019L52.4656 26.9137L53.8556 22.4366H54.9275L56.3327 26.9137L57.7705 22.4366H58.9884H58.9906Z" fill="#C297FF"/>
<path id="Vector_9" d="M65.5136 27.2536H62.7424L62.2544 28.4475H61.0278L63.5964 22.4346H64.6596L67.226 28.4475H65.9994L65.5114 27.2536H65.5136ZM65.1323 26.3038L64.1323 23.8572L63.1324 26.3038H65.1302H65.1323Z" fill="#C297FF"/>
<path id="Vector_10" d="M74.164 27.4976V28.4475H70.3623V22.4346H71.5083V27.4955H74.164V27.4976Z" fill="#C297FF"/>
<path id="Vector_11" d="M81.2411 27.4976V28.4475H77.4395V22.4346H78.5854V27.4955H81.2411V27.4976Z" fill="#C297FF"/>
<path id="Vector_12" d="M88.6656 27.4976V28.4475H84.5132V22.4346H88.6002V23.3844H85.6591V24.9291H88.341V25.8724H85.6591V27.4976H88.6656Z" fill="#C297FF"/>
<path id="Vector_13" d="M96.449 23.3865H94.6125V28.4474H93.4665V23.3865H91.6387V22.4366H96.449V23.3865Z" fill="#C297FF"/>
<path id="Vector_14" d="M16.2094 25.1246C18.1157 24.0353 19.6473 22.3621 20.5645 20.3535C19.2377 20.9591 17.7628 21.2968 16.2094 21.2968C14.6561 21.2968 13.1812 20.9591 11.8544 20.3535C9.84573 19.4384 8.17256 17.9069 7.08326 15.9984C6.20528 14.4625 5.7042 12.6869 5.7042 10.7916C5.7042 9.23821 6.04188 7.76329 6.64754 6.43652C3.02234 8.09226 0.499512 11.7501 0.499512 15.9984C0.499512 20.2467 3.02234 23.9068 6.64971 25.5603C7.97649 26.166 9.4514 26.5037 11.0047 26.5037C12.9001 26.5037 14.6757 26.0026 16.2116 25.1246H16.2094Z" fill="url(#paint0_linear_3046_3436)"/>
<g id="Vector_15" style="mix-blend-mode:multiply" opacity="0.2">
<path d="M6.64941 25.5607C6.64941 25.5607 8.40101 26.5041 11.0044 26.5041C12.8998 26.5041 14.6754 26.003 16.2113 25.125C18.1176 24.0357 19.6492 22.3626 20.5663 20.3539C20.0064 20.6088 19.4226 20.8157 18.8169 20.9704C18.8169 20.9704 13.9695 27.0422 6.65159 25.5607H6.64941Z" fill="#290056"/>
</g>
<path id="Vector_16" d="M31.9216 15.9986C31.9216 11.7504 29.3988 8.09031 25.7714 6.43674C24.4447 5.83109 22.9697 5.49341 21.4164 5.49341C19.521 5.49341 17.7454 5.99449 16.2095 6.87247C14.3032 7.96177 12.7717 9.63494 11.8545 11.6436C13.1813 11.038 14.6562 10.7003 16.2095 10.7003C17.7629 10.7003 19.2378 11.038 20.5646 11.6436C22.5732 12.5586 24.2464 14.0902 25.3357 15.9986C26.2137 17.5346 26.7148 19.3101 26.7148 21.2055C26.7148 22.7589 26.3771 24.2338 25.7714 25.5605C29.3988 23.907 31.9216 20.2469 31.9216 15.9986Z" fill="url(#paint1_linear_3046_3436)"/>
<g id="Vector_17" style="mix-blend-mode:multiply" opacity="0.2">
<path d="M13.8871 10.9595C13.8871 10.9595 12.5015 11.3495 11.8545 11.6436C12.7695 9.63494 14.3011 7.96177 16.2095 6.87247C17.7454 5.99449 19.521 5.49341 21.4164 5.49341C23.8412 5.49341 25.7714 6.43674 25.7714 6.43674C25.7714 6.43674 19.0177 3.8551 13.8871 10.9595Z" fill="#290056"/>
</g>
<path id="Vector_18" d="M25.3355 15.9985C24.2462 14.0922 22.5731 12.5606 20.5644 11.6434C21.17 12.9702 21.5077 14.4451 21.5077 15.9985C21.5077 17.5518 21.17 19.0267 20.5644 20.3535C19.6494 22.3622 18.1178 24.0353 16.2094 25.1246C14.6734 26.0026 12.8979 26.5037 11.0025 26.5037C9.44915 26.5037 7.97423 26.166 6.64746 25.5604C8.30102 29.1877 11.9611 31.7106 16.2094 31.7106C20.4576 31.7106 24.1177 29.1877 25.7713 25.5604C26.3769 24.2336 26.7146 22.7587 26.7146 21.2053C26.7146 19.3099 26.2135 17.5344 25.3355 15.9985Z" fill="url(#paint2_linear_3046_3436)"/>
<g id="Vector_19" style="mix-blend-mode:multiply" opacity="0.2">
<path d="M25.7713 25.5604C25.7713 25.5604 26.7147 23.8088 26.7147 21.2053C26.7147 19.3099 26.2136 17.5344 25.3356 15.9985C24.2463 14.0922 22.5731 12.5606 20.5645 11.6434C20.8193 12.2033 21.0263 12.7872 21.181 13.3929C21.181 13.3929 27.2528 18.2403 25.7713 25.5582V25.5604Z" fill="#290056"/>
</g>
<path id="Vector_20" d="M16.2093 0.288696C11.9611 0.288696 8.301 2.81152 6.64744 6.4389C6.04179 7.76567 5.7041 9.24059 5.7041 10.7939C5.7041 12.6893 6.20518 14.4649 7.08316 16.0008C8.17246 17.9071 9.84563 19.4386 11.8543 20.3558C11.2487 19.0291 10.911 17.5541 10.911 16.0008C10.911 14.4475 11.2487 12.9725 11.8543 11.6458C12.7693 9.63709 14.3009 7.96392 16.2093 6.87462C17.7453 5.99664 19.5208 5.49556 21.4162 5.49556C22.9696 5.49556 24.4445 5.83325 25.7712 6.4389C24.1177 2.81152 20.4576 0.288696 16.2093 0.288696Z" fill="url(#paint3_linear_3046_3436)"/>
<g id="Vector_21" style="mix-blend-mode:multiply" opacity="0.2">
<path d="M11.1702 18.3208C11.1702 18.3208 11.5602 19.7064 11.8543 20.3535C9.84563 19.4384 8.17246 17.9069 7.08316 15.9984C6.20518 14.4625 5.7041 12.6869 5.7041 10.7916C5.7041 8.36677 6.64744 6.43652 6.64744 6.43652C6.64744 6.43652 4.06579 13.1902 11.1702 18.3208Z" fill="#290056"/>
</g>
</g>
</g>
</g>
<defs>
<linearGradient id="paint0_linear_3046_3436" x1="15.2988" y1="26.5363" x2="1.27945" y2="6.90057" gradientUnits="userSpaceOnUse">
<stop offset="0.09" stop-color="#430585"/>
<stop offset="0.2" stop-color="#4C0F8E"/>
<stop offset="0.4" stop-color="#652CA6"/>
<stop offset="0.65" stop-color="#8E5CCD"/>
<stop offset="0.93" stop-color="#C297FF"/>
</linearGradient>
<linearGradient id="paint1_linear_3046_3436" x1="16.9611" y1="6.24503" x2="32.3704" y2="23.7283" gradientUnits="userSpaceOnUse">
<stop offset="0.1" stop-color="#430585"/>
<stop offset="0.21" stop-color="#4C0F8E"/>
<stop offset="0.4" stop-color="#652CA6"/>
<stop offset="0.65" stop-color="#8E5CCD"/>
<stop offset="0.93" stop-color="#C297FF"/>
</linearGradient>
<linearGradient id="paint2_linear_3046_3436" x1="11.8129" y1="31.1877" x2="24.5534" y2="15.6891" gradientUnits="userSpaceOnUse">
<stop offset="0.15" stop-color="#D52EB2"/>
<stop offset="0.24" stop-color="#CB2BAF"/>
<stop offset="0.38" stop-color="#B224A7"/>
<stop offset="0.55" stop-color="#89189A"/>
<stop offset="0.76" stop-color="#500889"/>
<stop offset="0.81" stop-color="#430585"/>
</linearGradient>
<linearGradient id="paint3_linear_3046_3436" x1="17.4882" y1="-1.78316" x2="13.4338" y2="21.2425" gradientUnits="userSpaceOnUse">
<stop offset="0.15" stop-color="#D52EB2"/>
<stop offset="0.24" stop-color="#CB2BAF"/>
<stop offset="0.38" stop-color="#B224A7"/>
<stop offset="0.55" stop-color="#89189A"/>
<stop offset="0.76" stop-color="#500889"/>
<stop offset="0.81" stop-color="#430585"/>
</linearGradient>
<clipPath id="clip0_3046_3436">
<rect width="109" height="31.422" fill="white" transform="translate(0.5 0.28894)"/>
</clipPath>
</defs>
</svg>
