<svg width="136" height="32" viewBox="0 0 136 32" fill="none" xmlns="http://www.w3.org/2000/svg">
<rect width="136" height="32" rx="8" fill="#F7931A"/>
<path fill-rule="evenodd" clip-rule="evenodd" d="M46.9682 14.4325C47.2178 12.7514 45.9471 11.8476 44.2095 11.2447L44.7732 8.96741L43.397 8.62194L42.8482 10.8393C42.4865 10.7484 42.1149 10.6628 41.7457 10.5779L42.2983 8.34596L40.9229 8.00049L40.3589 10.277C40.0594 10.2083 39.7655 10.1404 39.4801 10.069L39.4817 10.0619L37.5838 9.58451L37.2177 11.0651C37.2177 11.0651 38.2388 11.3008 38.2172 11.3154C38.7746 11.4556 38.8753 11.8271 38.8585 12.1216L38.2164 14.716C38.2548 14.7259 38.3046 14.7401 38.3595 14.7622L38.3129 14.7505C38.2809 14.7424 38.2479 14.7341 38.2141 14.7259L37.3141 18.3602C37.2459 18.5308 37.0731 18.7866 36.6835 18.6895C36.6972 18.7096 35.6832 18.438 35.6832 18.438L35 20.0248L36.7909 20.4745C36.9909 20.525 37.1885 20.5769 37.384 20.6282L37.384 20.6282L37.3845 20.6284C37.5145 20.6625 37.6436 20.6964 37.772 20.7295L37.2024 23.0329L38.577 23.3784L39.1411 21.0995C39.5166 21.2021 39.8811 21.2969 40.2378 21.3861L39.6757 23.6544L41.0519 23.9998L41.6214 21.7008C43.9681 22.1481 45.7327 21.9677 46.4755 19.8297C47.074 18.1083 46.4457 17.1153 45.211 16.4678C46.1101 16.259 46.7875 15.6632 46.9682 14.4325ZM43.8238 18.8742C43.4336 20.4535 40.9794 19.8006 39.8565 19.5018L39.8564 19.5018C39.7554 19.4749 39.6652 19.4509 39.5882 19.4317L40.3439 16.3801C40.4377 16.4037 40.5523 16.4296 40.6821 16.4589C41.8435 16.7214 44.2236 17.2594 43.8238 18.8742ZM40.9155 15.0425C41.8518 15.2942 43.8939 15.8432 44.2496 14.4077C44.6128 12.9395 42.6281 12.4969 41.6587 12.2808C41.5497 12.2565 41.4535 12.235 41.3749 12.2153L40.6898 14.983C40.7545 14.9992 40.8305 15.0197 40.9155 15.0425Z" fill="white"/>
<path d="M56.078 21V11.13H60.39C61.426 11.13 62.2287 11.3587 62.798 11.816C63.3673 12.264 63.652 12.8893 63.652 13.692C63.652 14.224 63.5167 14.6813 63.246 15.064C62.9753 15.4467 62.602 15.7267 62.126 15.904C62.686 16.0627 63.12 16.3427 63.428 16.744C63.7453 17.136 63.904 17.6353 63.904 18.242C63.904 19.1193 63.6053 19.8007 63.008 20.286C62.42 20.762 61.5987 21 60.544 21H56.078ZM57.8 15.316H60.082C61.3047 15.316 61.916 14.8447 61.916 13.902C61.916 12.9593 61.3047 12.488 60.082 12.488H57.8V15.316ZM57.8 19.642H60.32C61.552 19.642 62.168 19.1473 62.168 18.158C62.168 17.1687 61.552 16.674 60.32 16.674H57.8V19.642ZM65.5367 12.684V10.976H67.4967V12.684H65.5367ZM65.6487 21V14.154H67.3987V21H65.6487ZM72.453 21.14C70.6424 21.14 69.737 20.244 69.737 18.452V15.47H68.421V14.154H69.737V12.11H71.487V14.154H73.559V15.47H71.487V18.354C71.487 18.802 71.585 19.138 71.781 19.362C71.977 19.586 72.2944 19.698 72.733 19.698C72.8637 19.698 72.999 19.684 73.139 19.656C73.279 19.6187 73.4237 19.5813 73.573 19.544L73.839 20.832C73.671 20.9253 73.4564 21 73.195 21.056C72.943 21.112 72.6957 21.14 72.453 21.14ZM77.8857 21.14C77.1671 21.14 76.5417 20.9953 76.0097 20.706C75.4777 20.4073 75.0671 19.9873 74.7777 19.446C74.4884 18.9047 74.3437 18.27 74.3437 17.542C74.3437 16.814 74.4884 16.1887 74.7777 15.666C75.0671 15.134 75.4777 14.728 76.0097 14.448C76.5417 14.1587 77.1671 14.014 77.8857 14.014C78.3244 14.014 78.7584 14.084 79.1877 14.224C79.6171 14.364 79.9717 14.56 80.2517 14.812L79.7337 16.03C79.4911 15.8153 79.2157 15.652 78.9077 15.54C78.6091 15.428 78.3197 15.372 78.0397 15.372C77.4331 15.372 76.9617 15.5633 76.6257 15.946C76.2991 16.3193 76.1357 16.856 76.1357 17.556C76.1357 18.2467 76.2991 18.7927 76.6257 19.194C76.9617 19.586 77.4331 19.782 78.0397 19.782C78.3104 19.782 78.5997 19.726 78.9077 19.614C79.2157 19.502 79.4911 19.334 79.7337 19.11L80.2517 20.342C79.9717 20.5847 79.6124 20.7807 79.1737 20.93C78.7444 21.07 78.3151 21.14 77.8857 21.14ZM84.4105 21.14C83.7012 21.14 83.0852 20.9953 82.5625 20.706C82.0398 20.4167 81.6338 20.006 81.3445 19.474C81.0552 18.9327 80.9105 18.298 80.9105 17.57C80.9105 16.842 81.0552 16.212 81.3445 15.68C81.6338 15.148 82.0398 14.7373 82.5625 14.448C83.0852 14.1587 83.7012 14.014 84.4105 14.014C85.1198 14.014 85.7358 14.1587 86.2585 14.448C86.7812 14.7373 87.1872 15.148 87.4765 15.68C87.7658 16.212 87.9105 16.842 87.9105 17.57C87.9105 18.298 87.7658 18.9327 87.4765 19.474C87.1872 20.006 86.7812 20.4167 86.2585 20.706C85.7358 20.9953 85.1198 21.14 84.4105 21.14ZM84.4105 19.81C84.9332 19.81 85.3532 19.6233 85.6705 19.25C85.9878 18.8673 86.1465 18.3073 86.1465 17.57C86.1465 16.8233 85.9878 16.268 85.6705 15.904C85.3532 15.5307 84.9332 15.344 84.4105 15.344C83.8878 15.344 83.4678 15.5307 83.1505 15.904C82.8332 16.268 82.6745 16.8233 82.6745 17.57C82.6745 18.3073 82.8332 18.8673 83.1505 19.25C83.4678 19.6233 83.8878 19.81 84.4105 19.81ZM89.3429 12.684V10.976H91.3029V12.684H89.3429ZM89.4549 21V14.154H91.2049V21H89.4549ZM93.1233 21V14.154H94.8313V15.218C95.0646 14.826 95.3773 14.5273 95.7693 14.322C96.1706 14.1167 96.6186 14.014 97.1133 14.014C98.7279 14.014 99.5353 14.952 99.5353 16.828V21H97.7853V16.912C97.7853 16.38 97.6826 15.9927 97.4773 15.75C97.2813 15.5073 96.9733 15.386 96.5533 15.386C96.0399 15.386 95.6293 15.5493 95.3213 15.876C95.0226 16.1933 94.8733 16.618 94.8733 17.15V21H93.1233Z" fill="white"/>
</svg>
