<svg width="24" height="26" viewBox="0 0 24 26" fill="none" xmlns="http://www.w3.org/2000/svg">
<path d="M6.55933 14.7771L11.96 0L17.3607 14.7771L11.9347 11.5772L6.55933 14.7771Z" fill="#F16534"/>
<path d="M17.3607 17.3232L11.96 25.9028L6.55933 17.3232L11.9853 20.5274L17.3607 17.3232Z" fill="#F16534"/>
<path d="M15.9526 10.6963L15.9779 10.7511C18.9207 11.2149 20.2065 12.1424 20.2065 13.3018C20.2065 14.0775 19.4772 14.7774 18.1281 15.2875L17.698 15.4393C16.3025 15.8862 14.3589 16.156 11.9558 16.156C9.55269 16.156 7.60911 15.8862 6.2094 15.4393L5.78358 15.2917C4.43445 14.7816 3.70509 14.0817 3.70509 13.306C3.70509 12.1508 4.99517 11.2191 7.93373 10.7553L7.95902 10.7005C2.99257 11.3034 0.711731 12.9013 0.711731 14.7352C0.711731 17.0077 4.96989 19.0187 11.9516 19.0187C18.9333 19.0187 23.1915 17.0077 23.1915 14.7352C23.1999 12.8928 20.919 11.2992 15.9526 10.6963Z" fill="#F16534"/>
</svg>
