<svg width="40" height="40" viewBox="0 0 40 40" fill="none" xmlns="http://www.w3.org/2000/svg">
<path d="M39.4024 24.8364C36.731 35.5499 25.8788 42.07 15.1628 39.3983C4.45122 36.7273 -2.06962 25.8757 0.602964 15.1629C3.27305 4.44813 14.1253 -2.07258 24.8381 0.598447C35.5535 3.26947 42.0737 14.1223 39.4024 24.8364Z" fill="#F3BA2F"/>
<path d="M22.8199 28.8128V31.8003L19.9588 33.3324L17.1819 31.8003V28.8128L19.9588 30.3449L22.8199 28.8128ZM7.50195 18.469L10.2789 20.001V25.1346L15.0768 27.7391V30.7266L7.50195 26.6667V18.469ZM32.4143 18.469V26.6667L24.7553 30.7266V27.7391L29.5532 25.1346V20.001L32.4143 18.469ZM24.7553 14.409L27.6164 15.9411V18.9286L22.8185 21.5331V26.7433L20.0416 28.2753L17.2647 26.7433V21.5331L12.2985 18.9286V15.9411L15.1596 14.409L19.9574 17.0135L24.7553 14.409ZM12.2998 21.0747L15.0768 22.6067V25.5942L12.2998 24.0622V21.0747ZM27.6178 21.0747V24.0622L24.8408 25.5942V22.6067L27.6178 21.0747ZM10.2789 11.8045L13.14 13.3366L10.2789 14.8686V17.8561L7.50195 16.3241V13.3366L10.2789 11.8045ZM29.636 11.8045L32.4971 13.3366V16.3241L29.636 17.8561V14.8686L26.8591 13.3366L29.636 11.8045ZM19.9574 11.8045L22.8185 13.3366L19.9574 14.8686L17.1805 13.3366L19.9574 11.8045ZM19.9574 6.6709L27.6164 10.7308L24.8395 12.2629L20.0416 9.65841L15.1596 12.2629L12.3826 10.7308L19.9574 6.6709Z" fill="white"/>
</svg>
