<svg width="40" height="40" viewBox="0 0 40 40" fill="none" xmlns="http://www.w3.org/2000/svg">
<path d="M39.4052 24.8407C36.7334 35.556 25.8793 42.0772 15.1615 39.4051C4.44807 36.7336 -2.07389 25.8801 0.59916 15.1655C3.26971 4.44889 14.1238 -2.07293 24.8385 0.59855C35.5557 3.27003 42.077 14.1247 39.4052 24.8407Z" fill="#B2B1B8"/>
<path fill-rule="evenodd" clip-rule="evenodd" d="M29.1196 17.3876C29.5358 14.5853 27.4176 13.0788 24.5213 12.0738L25.4608 8.27777L23.1668 7.70191L22.2521 11.3979C21.6491 11.2466 21.0297 11.1038 20.4142 10.9623L21.3355 7.24188L19.0428 6.66602L18.1027 10.4608C17.6035 10.3463 17.1135 10.2331 16.6378 10.1139L16.6404 10.1021L13.4769 9.30642L12.8666 11.7744C12.8666 11.7744 14.5686 12.1673 14.5327 12.1916C15.4618 12.4253 15.6297 13.0446 15.6016 13.5355L14.5314 17.8601C14.5954 17.8765 14.6784 17.9002 14.7699 17.9371L14.692 17.9175L14.6919 17.9175C14.6388 17.9041 14.5837 17.8902 14.5275 17.8765L13.0274 23.9346C12.9137 24.2189 12.6255 24.6454 11.9761 24.4835C11.999 24.517 10.3087 24.0643 10.3087 24.0643L9.16992 26.7093L12.1551 27.4589C12.4884 27.543 12.8176 27.6295 13.1434 27.7151L13.1438 27.7152C13.3608 27.7722 13.5763 27.8288 13.7905 27.884L12.8411 31.7235L15.1325 32.2994L16.0727 28.5007C16.6986 28.6718 17.3062 28.8298 17.9008 28.9785L16.9638 32.7594L19.2578 33.3353L20.2071 29.503C24.1188 30.2487 27.0602 29.9479 28.2983 26.3842C29.296 23.5147 28.2487 21.8595 26.1906 20.7802C27.6894 20.4321 28.8184 19.4389 29.1196 17.3876ZM23.8778 24.7908C23.2273 27.4236 19.1361 26.3352 17.2641 25.8371C17.0957 25.7923 16.9452 25.7523 16.8169 25.7202L18.0767 20.633C18.233 20.6723 18.424 20.7155 18.6403 20.7644C20.5764 21.202 24.5443 22.0988 23.8778 24.7908ZM19.0288 18.4052C20.5895 18.8247 23.9938 19.7398 24.5868 17.3469C25.1924 14.8993 21.8836 14.1615 20.2677 13.8012C20.0859 13.7606 19.9256 13.7249 19.7946 13.692L18.6524 18.3059C18.7603 18.333 18.8869 18.367 19.0288 18.4052Z" fill="white"/>
</svg>
