<svg width="32" height="32" viewBox="0 0 32 32" fill="none" xmlns="http://www.w3.org/2000/svg">
<g id="Ethereum icon">
<path id="Coin" d="M31.5233 19.8616C29.3885 28.427 20.7132 33.6573 12.1321 31.5212C3.56672 29.3798 -1.65519 20.7045 0.479619 12.1392C2.61443 3.57381 11.2845 -1.6565 19.8446 0.479604C28.4309 2.58953 33.6528 11.291 31.5233 19.8616Z" fill="#ECEFF0"/>
<g id="Ethereum">
<path d="M16.1862 19.8808C16.1241 19.9019 16.0886 19.8479 16.0464 19.823C13.9745 18.6002 11.9049 17.3765 9.83755 16.152C9.81753 16.1419 9.79675 16.1334 9.77539 16.1265V16.0992L9.81206 16.0781C9.86414 16.0644 9.9154 16.0478 9.96559 16.0283L14.848 13.8069C15.2831 13.6086 15.7182 13.4134 16.1533 13.217H16.1844C16.1844 13.2792 16.1844 13.3345 16.1844 13.3935C16.186 15.5562 16.1866 17.7186 16.1862 19.8808Z" fill="#343535"/>
<path d="M16.1893 13.2185H16.1582C16.1582 13.1563 16.1645 13.0942 16.1645 13.0289C16.1645 10.5998 16.1645 8.17056 16.1645 5.74106C16.1573 5.67866 16.1615 5.61549 16.1769 5.55459H16.1899C16.4454 5.93188 16.6679 6.32968 16.9029 6.7194C18.7643 9.80693 20.6246 12.894 22.4839 15.9807C22.502 16.0112 22.5162 16.0429 22.5324 16.0765C22.4798 16.0652 22.428 16.0501 22.3776 16.0311C22.0364 15.8769 21.6939 15.7203 21.3558 15.5631C20.8262 15.3206 20.2964 15.0786 19.7664 14.8371L17.213 13.6803C16.873 13.5237 16.5312 13.3714 16.1893 13.2185Z" fill="#2F3030"/>
<path d="M16.1789 5.55138C16.1636 5.61227 16.1594 5.67545 16.1665 5.73785C16.1665 8.16693 16.1665 10.5962 16.1665 13.0257C16.1665 13.0879 16.1628 13.15 16.1603 13.2153C15.7252 13.4117 15.2901 13.6069 14.855 13.8052L9.97259 16.0266C9.92239 16.0461 9.87113 16.0627 9.81906 16.0764C9.96016 15.783 10.1435 15.517 10.3107 15.236C12.2479 12.0159 14.1866 8.79637 16.1267 5.57748C16.1395 5.55965 16.1535 5.54263 16.1684 5.52652L16.1789 5.55138Z" fill="#828384"/>
<path d="M16.1893 13.2185C16.5312 13.3714 16.8731 13.5237 17.2144 13.6779L19.7678 14.8346C20.2982 15.0758 20.828 15.3178 21.3571 15.5606C21.6978 15.7166 22.0409 15.8745 22.379 16.0287C22.4294 16.0476 22.4811 16.0628 22.5338 16.074C22.5959 16.1517 22.5039 16.1548 22.476 16.1716C21.9458 16.4886 21.4131 16.8013 20.8816 17.1158C19.3563 18.0183 17.8314 18.9206 16.3069 19.8227C16.2684 19.8451 16.2266 19.8615 16.1862 19.8808C16.1862 17.719 16.1863 15.5573 16.1863 13.3951C16.1869 13.336 16.1887 13.2776 16.1893 13.2185Z" fill="#131313"/>
<path d="M16.1644 21.1088L20.158 18.755C20.9204 18.3049 21.6825 17.8545 22.4441 17.4037L22.5131 17.3658C22.5199 17.4279 22.477 17.4609 22.4509 17.4969C20.7105 19.9504 18.9701 22.4031 17.2298 24.855C16.9003 25.3199 16.5715 25.7874 16.239 26.2486C16.2216 26.2728 16.1949 26.3865 16.1414 26.266C16.1837 26.2299 16.165 26.1814 16.165 26.1416C16.1654 24.4634 16.1652 22.7858 16.1644 21.1088Z" fill="#2F3030"/>
<path d="M16.1641 21.1091C16.1641 22.7861 16.1641 24.4627 16.1641 26.1389C16.1641 26.1817 16.1827 26.2302 16.1404 26.2632C16.0515 26.2097 16.013 26.114 15.954 26.0351C13.9359 23.1924 11.919 20.3494 9.90301 17.5059C9.87752 17.4699 9.8539 17.4313 9.8278 17.3915C9.88001 17.3611 9.90798 17.4027 9.93844 17.4208C11.9792 18.6258 14.0196 19.8318 16.0596 21.0389C16.0975 21.0625 16.1299 21.0868 16.1641 21.1091Z" fill="#828384"/>
<path d="M16.1794 5.55134L16.1645 5.52835C16.1918 5.51094 16.1881 5.53643 16.1925 5.54948L16.1794 5.55134Z" fill="#393939"/>
</g>
</g>
</svg>
