<svg width="16" height="16" viewBox="0 0 16 16" fill="none" xmlns="http://www.w3.org/2000/svg">
<path d="M7.3335 4.66695H8.66683V6.00029H7.3335V4.66695ZM7.3335 7.33362H8.66683V11.3336H7.3335V7.33362ZM8.00016 1.33362C4.32016 1.33362 1.3335 4.32028 1.3335 8.00029C1.3335 11.6803 4.32016 14.667 8.00016 14.667C11.6802 14.667 14.6668 11.6803 14.6668 8.00029C14.6668 4.32028 11.6802 1.33362 8.00016 1.33362ZM8.00016 13.3336C5.06016 13.3336 2.66683 10.9403 2.66683 8.00029C2.66683 5.06029 5.06016 2.66695 8.00016 2.66695C10.9402 2.66695 13.3335 5.06029 13.3335 8.00029C13.3335 10.9403 10.9402 13.3336 8.00016 13.3336Z" fill="#0B006B"/>
</svg>
