<svg width="24" height="25" viewBox="0 0 24 25" fill="none" xmlns="http://www.w3.org/2000/svg">
<g id="library_books">
<path id="Vector" d="M4 6.20117H2V20.2012C2 21.3012 2.9 22.2012 4 22.2012H18V20.2012H4V6.20117ZM20 2.20117H8C6.9 2.20117 6 3.10117 6 4.20117V16.2012C6 17.3012 6.9 18.2012 8 18.2012H20C21.1 18.2012 22 17.3012 22 16.2012V4.20117C22 3.10117 21.1 2.20117 20 2.20117ZM19 11.2012H9V9.20117H19V11.2012ZM15 15.2012H9V13.2012H15V15.2012ZM19 7.20117H9V5.20117H19V7.20117Z" fill="#A2A2FF"/>
</g>
</svg>
