<svg width="20" height="20" fill="none" xmlns="http://www.w3.org/2000/svg"><rect x="1" y=".998" width="18.003" height="18.003" rx="9.002" fill="#FFCC49"/><rect x="1" y=".998" width="18.003" height="18.003" rx="9.002" stroke="#1F1F1F" stroke-width="2"/><path d="M11.596 7.815L9.573 5.792v1.365a3.552 3.552 0 000 7.051v-.898a2.666 2.666 0 01-2.223-2.628c0-1.32.96-2.414 2.223-2.627v1.738l2.023-1.978zm1.947 2.423a3.515 3.515 0 00-.72-1.73l-.632.632c.24.333.392.711.454 1.098h.898zm-3.081 3.067v.899a3.522 3.522 0 001.734-.716l-.64-.64c-.334.24-.707.395-1.094.457zm1.73-1.075l.63.626c.4-.515.645-1.111.72-1.729h-.897a2.622 2.622 0 01-.454 1.103z" fill="#fff"/></svg>