<svg width="20" height="20" fill="none" xmlns="http://www.w3.org/2000/svg"><rect x="1" y="1" width="18.003" height="18.003" rx="9.002" fill="#FFCC49"/><rect x="1" y="1" width="18.003" height="18.003" rx="9.002" stroke="#F3F5F6" stroke-width="2"/><path d="M11.595 7.82L9.573 5.797v1.365a3.555 3.555 0 00-3.112 3.525 3.551 3.551 0 003.112 3.526v-.898a2.666 2.666 0 01-2.223-2.628c0-1.32.96-2.414 2.223-2.627v1.738l2.022-1.978zm1.948 2.423a3.515 3.515 0 00-.72-1.73l-.632.632c.24.333.391.71.454 1.098h.898zm-3.081 3.067v.898a3.523 3.523 0 001.734-.715l-.64-.64c-.334.24-.707.395-1.094.457zm1.73-1.076l.63.627c.4-.515.645-1.111.72-1.73h-.897a2.621 2.621 0 01-.454 1.103z" fill="#fff"/></svg>