<svg width="40" height="40" fill="none" xmlns="http://www.w3.org/2000/svg"><g clip-path="url(#clip0_22595_157675)"><path d="M26.333 27.5l-5.25-5.25a5.08 5.08 0 01-3.167 1.083c-1.513 0-2.795-.524-3.843-1.573-1.049-1.048-1.573-2.33-1.573-3.843 0-1.514.524-2.796 1.573-3.844 1.048-1.049 2.33-1.573 3.844-1.573 1.514 0 2.795.524 3.843 1.573 1.049 1.048 1.573 2.33 1.573 3.844a5.08 5.08 0 01-1.083 3.166l5.25 5.25-1.167 1.167zm-8.416-5.833c1.041 0 1.927-.365 2.656-1.094.73-.73 1.094-1.615 1.094-2.656 0-1.042-.365-1.927-1.094-2.657-.73-.729-1.615-1.093-2.656-1.093-1.042 0-1.927.364-2.657 1.093-.729.73-1.093 1.615-1.093 2.657 0 1.041.364 1.927 1.093 2.656.73.73 1.615 1.094 2.657 1.094z" fill="#47464A"/></g><defs><clipPath id="clip0_22595_157675"><rect x="3.332" y="3.333" width="33.333" height="33.333" rx="16.667" fill="#fff"/></clipPath></defs></svg>