<svg width="24" height="24" fill="none" xmlns="http://www.w3.org/2000/svg"><path d="M9.25 22l-.4-3.2a3.79 3.79 0 01-.613-.3 8.266 8.266 0 01-.563-.375L4.7 19.375l-2.75-4.75 2.575-1.95a2.387 2.387 0 01-.025-.338v-.675c0-.108.009-.22.025-.337L1.95 9.375l2.75-4.75 2.975 1.25c.184-.133.375-.258.575-.375.2-.117.4-.217.6-.3l.4-3.2h5.5l.4 3.2c.217.083.421.183.613.3.191.117.379.242.562.375l2.975-1.25 2.75 4.75-2.575 1.95c.017.117.025.23.025.338v.675c0 .108-.016.22-.05.337l2.575 1.95-2.75 4.75-2.95-1.25a6.826 6.826 0 01-.575.375c-.2.117-.4.217-.6.3l-.4 3.2h-5.5zM11 20h1.974l.35-2.65c.517-.133.996-.33 1.438-.588a5.97 5.97 0 001.212-.937l2.475 1.025.975-1.7-2.15-1.625c.084-.233.142-.48.175-.738a6.135 6.135 0 000-1.575 3.522 3.522 0 00-.175-.737l2.15-1.625-.975-1.7-2.475 1.05a5.551 5.551 0 00-1.212-.962 5.604 5.604 0 00-1.438-.588L13 4h-1.975l-.35 2.65c-.516.133-.996.33-1.437.587-.442.259-.846.571-1.213.938L5.55 7.15l-.975 1.7 2.15 1.6c-.083.25-.141.5-.175.75-.033.25-.05.517-.05.8 0 .267.017.525.05.775.034.25.092.5.175.75l-2.15 1.625.975 1.7 2.475-1.05c.367.383.771.704 1.213.962.441.259.92.455 1.437.588L11 20zm1.05-4.5c.966 0 1.79-.342 2.474-1.025A3.372 3.372 0 0015.55 12c0-.967-.341-1.792-1.025-2.475A3.372 3.372 0 0012.05 8.5c-.983 0-1.812.342-2.487 1.025A3.393 3.393 0 008.549 12c0 .967.338 1.792 1.013 2.475.675.683 1.504 1.025 2.487 1.025z" fill="var(--ion-color-inverse-primary)"/></svg>