<svg width="40" height="40" viewBox="0 0 40 40" fill="none" xmlns="http://www.w3.org/2000/svg">
<rect width="40" height="40" rx="20" fill="#B2B1B8"/>
<path d="M31.5373 25.5067L27.4103 29.8185C27.3206 29.9122 27.212 29.9869 27.0914 30.0379C26.9708 30.089 26.8406 30.1153 26.7092 30.1152H7.14513C7.05178 30.1152 6.96046 30.0886 6.8824 30.0388C6.80434 29.9889 6.74293 29.9179 6.70572 29.8345C6.66851 29.7511 6.65713 29.6589 6.67296 29.5693C6.68879 29.4796 6.73115 29.3965 6.79483 29.33L10.925 25.0182C11.0144 24.9247 11.1226 24.8502 11.2428 24.7992C11.3631 24.7482 11.4928 24.7217 11.624 24.7215H31.1869C31.2803 24.7215 31.3716 24.7481 31.4497 24.7979C31.5277 24.8478 31.589 24.9188 31.6264 25.0022C31.6635 25.0856 31.6749 25.1778 31.6591 25.2674C31.6432 25.357 31.6009 25.4402 31.5373 25.5067ZM27.4103 16.8239C27.3206 16.7302 27.212 16.6556 27.0914 16.6045C26.9708 16.5535 26.8406 16.5272 26.7092 16.5273H7.14513C7.05178 16.5273 6.96046 16.5538 6.8824 16.6037C6.80434 16.6536 6.74293 16.7246 6.70572 16.808C6.66851 16.8914 6.65713 16.9836 6.67296 17.0732C6.68879 17.1628 6.73115 17.246 6.79483 17.3125L10.925 21.6243C11.0144 21.7177 11.1226 21.7922 11.2428 21.8433C11.3631 21.8943 11.4928 21.9207 11.624 21.9209H31.1869C31.2803 21.9209 31.3716 21.8944 31.4497 21.8445C31.5277 21.7946 31.589 21.7236 31.6264 21.6402C31.6635 21.5568 31.6749 21.4646 31.6591 21.375C31.6432 21.2854 31.6009 21.2022 31.5373 21.1357L27.4103 16.8239ZM7.14513 13.7267H26.7092C26.8406 13.7267 26.9708 13.7005 27.0914 13.6494C27.212 13.5984 27.3206 13.5237 27.4103 13.43L31.5373 9.1182C31.6009 9.05171 31.6432 8.96855 31.6591 8.87892C31.6749 8.7893 31.6635 8.69712 31.6264 8.61372C31.589 8.53032 31.5277 8.45932 31.4497 8.40945C31.3716 8.35958 31.2803 8.33301 31.1869 8.33301H11.624C11.4928 8.33323 11.3631 8.35967 11.2428 8.41069C11.1226 8.46172 11.0144 8.53625 10.925 8.62966L6.7959 12.9415C6.73227 13.0079 6.68993 13.091 6.67406 13.1805C6.6582 13.27 6.6695 13.3621 6.70657 13.4455C6.74365 13.5289 6.8049 13.5999 6.8828 13.6498C6.9607 13.6998 7.05187 13.7265 7.14513 13.7267Z" fill="white"/>
</svg>
