<svg width="24" height="24" viewBox="0 0 24 24" fill="none" xmlns="http://www.w3.org/2000/svg">
<rect width="24" height="24" rx="12" fill="#000008"/>
<path d="M18.9228 15.3042L16.4466 17.8913C16.3927 17.9475 16.3276 17.9923 16.2552 18.0229C16.1829 18.0536 16.1048 18.0694 16.0259 18.0693H4.28747C4.23146 18.0693 4.17667 18.0534 4.12983 18.0234C4.08299 17.9935 4.04615 17.9509 4.02382 17.9009C4.0015 17.8508 3.99467 17.7955 4.00416 17.7418C4.01366 17.688 4.03908 17.6381 4.07729 17.5982L6.55536 15.0111C6.60905 14.955 6.67397 14.9103 6.7461 14.8797C6.81825 14.8491 6.89607 14.8332 6.97477 14.8331H18.7125C18.7685 14.8331 18.8233 14.849 18.8702 14.879C18.917 14.9089 18.9538 14.9515 18.9762 15.0015C18.9985 15.0516 19.0053 15.1069 18.9958 15.1606C18.9863 15.2144 18.9609 15.2643 18.9228 15.3042ZM16.4466 10.0945C16.3927 10.0383 16.3276 9.99353 16.2552 9.96291C16.1829 9.9323 16.1048 9.91651 16.0259 9.91655H4.28747C4.23146 9.91655 4.17667 9.93249 4.12983 9.96242C4.08299 9.99234 4.04615 10.0349 4.02382 10.085C4.0015 10.135 3.99467 10.1903 4.00416 10.2441C4.01366 10.2979 4.03908 10.3478 4.07729 10.3877L6.55536 12.9748C6.60905 13.0308 6.67397 13.0755 6.7461 13.1061C6.81825 13.1368 6.89607 13.1526 6.97477 13.1528H18.7125C18.7685 13.1528 18.8233 13.1368 18.8702 13.1069C18.917 13.077 18.9538 13.0344 18.9762 12.9843C18.9985 12.9343 19.0053 12.879 18.9958 12.8252C18.9863 12.7714 18.9609 12.7215 18.9228 12.6816L16.4466 10.0945ZM4.28747 8.23621H16.0259C16.1048 8.23624 16.1829 8.22047 16.2552 8.18985C16.3276 8.15922 16.3927 8.11442 16.4466 8.05822L18.9228 5.47112C18.9609 5.43122 18.9863 5.38132 18.9958 5.32755C19.0053 5.27378 18.9985 5.21847 18.9762 5.16843C18.9538 5.11839 18.917 5.07579 18.8702 5.04586C18.8233 5.01594 18.7685 5 18.7125 5H6.97477C6.89607 5.00013 6.81825 5.01599 6.7461 5.04661C6.67397 5.07723 6.60905 5.12194 6.55536 5.17799L4.07793 7.76509C4.03975 7.80494 4.01435 7.8548 4.00483 7.9085C3.99531 7.96222 4.00209 8.01748 4.02434 8.0675C4.04658 8.11752 4.08333 8.16011 4.13007 8.19008C4.17681 8.22005 4.23151 8.23608 4.28747 8.23621Z" fill="url(#paint0_linear_5370_54384)"/>
<defs>
<linearGradient id="paint0_linear_5370_54384" x1="5.26618" y1="18.3808" x2="17.2168" y2="4.55205" gradientUnits="userSpaceOnUse">
<stop offset="0.08" stop-color="#9945FF"/>
<stop offset="0.3" stop-color="#8752F3"/>
<stop offset="0.5" stop-color="#5497D5"/>
<stop offset="0.6" stop-color="#43B4CA"/>
<stop offset="0.72" stop-color="#28E0B9"/>
<stop offset="0.97" stop-color="#19FB9B"/>
</linearGradient>
</defs>
</svg>
