<svg width="24" height="24" viewBox="0 0 24 24" fill="none" xmlns="http://www.w3.org/2000/svg">
<rect width="24" height="24" rx="12" fill="#2775CA"/>
<path d="M5.00101 9.39953C3.55094 13.2496 5.55097 17.5996 9.45097 18.9995C9.60097 19.0996 9.75097 19.2995 9.75097 19.4495V20.1496C9.75097 20.2496 9.75097 20.2996 9.70093 20.3495C9.65101 20.5496 9.45097 20.6495 9.25093 20.5496C6.45097 19.6496 4.30093 17.4995 3.40093 14.6996C1.90093 9.94961 4.50097 4.89953 9.25093 3.39953C9.30097 3.34961 9.40093 3.34961 9.45097 3.34961C9.65101 3.39953 9.75097 3.54953 9.75097 3.74957V4.44953C9.75097 4.69961 9.65101 4.84961 9.45097 4.94957C7.40101 5.69957 5.75101 7.29953 5.00101 9.39953Z" fill="white"/>
<path d="M14.301 3.59957C14.3509 3.39953 14.551 3.29957 14.751 3.39953C17.5009 4.29953 19.701 6.44957 20.601 9.29957C22.101 14.0495 19.501 19.0996 14.751 20.5996C14.701 20.6495 14.601 20.6495 14.551 20.6495C14.3509 20.5996 14.251 20.4496 14.251 20.2496V19.5496C14.251 19.2995 14.3509 19.1495 14.551 19.0496C16.6009 18.2996 18.2509 16.6996 19.0009 14.5996C20.451 10.7495 18.451 6.39953 14.551 4.99961C14.401 4.89953 14.251 4.69961 14.251 4.49957V3.79961C14.251 3.69953 14.251 3.64961 14.301 3.59957Z" fill="white"/>
<path d="M12.1509 11.1496C14.2509 11.3996 15.3009 11.9996 15.3009 13.7496C15.3009 15.0996 14.301 16.1496 12.801 16.3996V17.5996C12.7509 17.8496 12.6009 17.9996 12.4009 17.9996H11.6509C11.4009 17.9496 11.2509 17.7996 11.2509 17.5996V16.3996C9.60094 16.1496 8.8009 15.2496 8.60098 13.9996V13.9496C8.60098 13.7496 8.75098 13.5996 8.9509 13.5996H9.80098C9.95098 13.5996 10.101 13.6996 10.1509 13.8996C10.3009 14.6496 10.7509 15.1996 12.051 15.1996C13.0009 15.1996 13.701 14.6497 13.701 13.8496C13.701 13.0496 13.251 12.7496 11.8509 12.4996C9.75094 12.2496 8.75098 11.5996 8.75098 9.94964C8.75098 8.6996 9.7009 7.69964 11.2009 7.4996V6.34964C11.2509 6.09956 11.4009 5.94956 11.601 5.94956H12.351C12.6009 5.9996 12.7509 6.1496 12.7509 6.34964V7.54964C13.9009 7.6496 14.8009 8.49956 15.0009 9.5996V9.64964C15.0009 9.84956 14.8509 9.99956 14.6509 9.99956H13.851C13.701 9.99956 13.551 9.8996 13.5009 9.7496C13.251 8.9996 12.7509 8.6996 11.8509 8.6996C10.851 8.6996 10.3509 9.14948 10.3509 9.84956C10.3509 10.5496 10.6509 10.9496 12.1509 11.1496Z" fill="white"/>
</svg>
