<svg width="25" height="24" viewBox="0 0 25 24" fill="none" xmlns="http://www.w3.org/2000/svg">
<path d="M12.1719 0C18.799 0 24.1719 5.37288 24.1719 12C24.1719 18.6271 18.7988 24 12.1719 24C5.54499 24 0.171875 18.6286 0.171875 12C0.171875 5.37144 5.54403 0 12.1719 0Z" fill="#53AE94"/>
<path d="M13.6529 10.4011V8.616H17.7351V5.89608H6.61924V8.616H10.7019V10.3997C7.38387 10.5521 4.88907 11.2092 4.88907 11.9964C4.88907 12.7836 7.38507 13.4407 10.7019 13.5941V19.3121H13.6539V13.5936C16.9659 13.4407 19.4556 12.7841 19.4556 11.9976C19.4556 11.2111 16.9659 10.5545 13.6539 10.4016M13.6539 13.1093V13.1078C13.5706 13.1131 13.1427 13.1388 12.1899 13.1388C11.4281 13.1388 10.8922 13.1172 10.7033 13.1074V13.1098C7.77195 12.9799 5.58387 12.4694 5.58387 11.8586C5.58387 11.2478 7.77219 10.7381 10.7033 10.608V12.6012C10.8953 12.6144 11.4444 12.6468 12.2024 12.6468C13.1127 12.6468 13.5704 12.6089 13.6544 12.6012V10.608C16.58 10.7383 18.763 11.2493 18.763 11.8579C18.763 12.4666 16.5785 12.9775 13.6539 13.1078" fill="white"/>
</svg>
