<svg xmlns="http://www.w3.org/2000/svg" width="20" height="20" fill="none"><path d="M10 5.417A8.142 8.142 0 0117.35 10 8.142 8.142 0 0110 14.583 8.142 8.142 0 012.65 10 8.142 8.142 0 0110 5.417zm0-1.667C5.833 3.75 2.275 6.342.833 10c1.442 3.658 5 6.25 9.167 6.25s7.725-2.592 9.167-6.25c-1.442-3.658-5-6.25-9.167-6.25zm0 4.167A2.084 2.084 0 1110 12.085 2.084 2.084 0 0110 7.917zm0-1.667A3.756 3.756 0 006.25 10 3.756 3.756 0 0010 13.75 3.756 3.756 0 0013.75 10 3.756 3.756 0 0010 6.25z" fill="var(--ion-color-primary-70)"/></svg>