<svg width="136" height="32" viewBox="0 0 136 32" fill="none" xmlns="http://www.w3.org/2000/svg">
<rect width="136" height="32" rx="8" fill="#F3BA2F"/>
<path d="M27.2131 10.1933L25.3022 9.07093L30.5 6L35.7131 9.07093L33.8021 10.1933L30.5 8.26032L27.2131 10.1933ZM37.0737 12.1263V14.3866L38.9847 13.2642V11.0039L37.0737 9.86594L35.1627 10.9883L37.0737 12.1263ZM28.589 11.0039L30.5 12.1263L32.411 11.0039L30.5 9.86594L28.589 11.0039ZM35.7131 12.9368L33.8021 11.8145L30.5 13.7475L27.2131 11.8145L25.3022 12.9368V15.1972L28.589 17.1301V20.9961L30.5 22.1184L32.411 20.9961V17.1301L35.7131 15.1972V12.9368ZM37.0737 19.8737L33.7869 21.8067V24.067L39 20.9961V14.8698L37.0737 16.0078V19.8737ZM33.7869 20.2011L35.6978 19.0787V16.8028L33.7869 17.9251V20.2011ZM28.589 22.6173V24.8776L30.5 26L32.411 24.8776V22.6173L30.5 23.7397L28.589 22.6173ZM22 13.2642L23.911 14.3866V12.1263L25.822 11.0039L23.9263 9.86594L22.0153 10.9883V13.2642H22ZM23.9263 16.0078L22.0153 14.8854V21.0117L27.2284 24.0826V21.8223L23.9263 19.8737V16.0078ZM27.2131 17.9408L25.3022 16.8184V19.0787L27.2131 20.2011V17.9408Z" fill="white"/>
<path d="M44.2052 21V11.13H48.3212C49.3479 11.13 50.1412 11.3587 50.7012 11.816C51.2706 12.264 51.5552 12.894 51.5552 13.706C51.5552 14.3033 51.3779 14.8073 51.0232 15.218C50.6686 15.6287 50.1879 15.904 49.5812 16.044V15.834C50.0386 15.8993 50.4306 16.0393 50.7572 16.254C51.0932 16.4593 51.3499 16.7347 51.5272 17.08C51.7046 17.416 51.7932 17.8127 51.7932 18.27C51.7932 18.8487 51.6626 19.3433 51.4012 19.754C51.1399 20.1647 50.7619 20.4773 50.2672 20.692C49.7726 20.8973 49.1799 21 48.4892 21H44.2052ZM45.6052 19.88H48.3212C48.6012 19.88 48.8486 19.8613 49.0632 19.824C49.2872 19.7773 49.4786 19.712 49.6372 19.628C49.8052 19.5347 49.9452 19.4227 50.0572 19.292C50.1692 19.152 50.2486 18.9933 50.2952 18.816C50.3512 18.6387 50.3792 18.438 50.3792 18.214C50.3792 17.99 50.3512 17.7893 50.2952 17.612C50.2486 17.4347 50.1692 17.2807 50.0572 17.15C49.9452 17.0193 49.8052 16.912 49.6372 16.828C49.4786 16.7347 49.2872 16.6693 49.0632 16.632C48.8486 16.5853 48.6012 16.562 48.3212 16.562H45.6052V19.88ZM45.6052 15.442H48.0972C48.7692 15.442 49.2779 15.3067 49.6232 15.036C49.9686 14.7653 50.1412 14.3687 50.1412 13.846C50.1412 13.3233 49.9686 12.9267 49.6232 12.656C49.2779 12.3853 48.7692 12.25 48.0972 12.25H45.6052V15.442ZM53.8982 21V11.13H55.0042L61.0102 19.054H60.6602V11.13H62.0042V21H60.9262L54.9202 13.076H55.2422V21H53.8982ZM64.4525 21V11.13H68.5685C69.5952 11.13 70.3885 11.3587 70.9485 11.816C71.5178 12.264 71.8025 12.894 71.8025 13.706C71.8025 14.3033 71.6252 14.8073 71.2705 15.218C70.9158 15.6287 70.4352 15.904 69.8285 16.044V15.834C70.2858 15.8993 70.6778 16.0393 71.0045 16.254C71.3405 16.4593 71.5972 16.7347 71.7745 17.08C71.9518 17.416 72.0405 17.8127 72.0405 18.27C72.0405 18.8487 71.9098 19.3433 71.6485 19.754C71.3872 20.1647 71.0092 20.4773 70.5145 20.692C70.0198 20.8973 69.4272 21 68.7365 21H64.4525ZM65.8525 19.88H68.5685C68.8485 19.88 69.0958 19.8613 69.3105 19.824C69.5345 19.7773 69.7258 19.712 69.8845 19.628C70.0525 19.5347 70.1925 19.4227 70.3045 19.292C70.4165 19.152 70.4958 18.9933 70.5425 18.816C70.5985 18.6387 70.6265 18.438 70.6265 18.214C70.6265 17.99 70.5985 17.7893 70.5425 17.612C70.4958 17.4347 70.4165 17.2807 70.3045 17.15C70.1925 17.0193 70.0525 16.912 69.8845 16.828C69.7258 16.7347 69.5345 16.6693 69.3105 16.632C69.0958 16.5853 68.8485 16.562 68.5685 16.562H65.8525V19.88ZM65.8525 15.442H68.3445C69.0165 15.442 69.5252 15.3067 69.8705 15.036C70.2158 14.7653 70.3885 14.3687 70.3885 13.846C70.3885 13.3233 70.2158 12.9267 69.8705 12.656C69.5252 12.3853 69.0165 12.25 68.3445 12.25H65.8525V15.442ZM82.3972 21.126C81.3985 21.126 80.5445 20.9207 79.8352 20.51C79.1259 20.0993 78.5799 19.516 78.1972 18.76C77.8239 17.9947 77.6372 17.094 77.6372 16.058C77.6372 15.022 77.8239 14.126 78.1972 13.37C78.5799 12.614 79.1259 12.0307 79.8352 11.62C80.5445 11.2093 81.3985 11.004 82.3972 11.004C83.0692 11.004 83.6945 11.1113 84.2732 11.326C84.8612 11.5313 85.3512 11.83 85.7432 12.222L85.2392 13.384C84.8099 13.0013 84.3665 12.726 83.9092 12.558C83.4612 12.3807 82.9712 12.292 82.4392 12.292C81.3752 12.292 80.5632 12.6187 80.0032 13.272C79.4432 13.9253 79.1632 14.854 79.1632 16.058C79.1632 17.262 79.4432 18.1953 80.0032 18.858C80.5632 19.5113 81.3752 19.838 82.4392 19.838C82.9712 19.838 83.4612 19.754 83.9092 19.586C84.3665 19.4087 84.8099 19.1287 85.2392 18.746L85.7432 19.908C85.3512 20.3 84.8612 20.6033 84.2732 20.818C83.6945 21.0233 83.0692 21.126 82.3972 21.126ZM87.4301 21V11.13H88.8441V15.624H88.6481C88.8535 15.1013 89.1755 14.7093 89.6141 14.448C90.0528 14.1773 90.5568 14.042 91.1261 14.042C91.6675 14.042 92.1155 14.1447 92.4701 14.35C92.8341 14.546 93.1048 14.8493 93.2821 15.26C93.4595 15.6613 93.5481 16.17 93.5481 16.786V21H92.1341V16.87C92.1341 16.478 92.0828 16.1607 91.9801 15.918C91.8775 15.666 91.7235 15.4793 91.5181 15.358C91.3128 15.2367 91.0468 15.176 90.7201 15.176C90.3468 15.176 90.0155 15.2553 89.7261 15.414C89.4461 15.5727 89.2268 15.8013 89.0681 16.1C88.9188 16.3987 88.8441 16.744 88.8441 17.136V21H87.4301ZM97.8305 21.126C97.3545 21.126 96.9252 21.0327 96.5425 20.846C96.1692 20.6593 95.8752 20.4073 95.6605 20.09C95.4459 19.7727 95.3385 19.4133 95.3385 19.012C95.3385 18.508 95.4645 18.1113 95.7165 17.822C95.9779 17.5233 96.4025 17.3133 96.9905 17.192C97.5879 17.0613 98.3905 16.996 99.3985 16.996H100.057V17.864H99.4125C98.9085 17.864 98.4839 17.8827 98.1385 17.92C97.7932 17.9573 97.5179 18.018 97.3125 18.102C97.1072 18.1767 96.9579 18.284 96.8645 18.424C96.7805 18.564 96.7385 18.732 96.7385 18.928C96.7385 19.2827 96.8599 19.572 97.1025 19.796C97.3452 20.0107 97.6812 20.118 98.1105 20.118C98.4559 20.118 98.7592 20.0387 99.0205 19.88C99.2819 19.712 99.4872 19.488 99.6365 19.208C99.7952 18.928 99.8745 18.606 99.8745 18.242V16.632C99.8745 16.1 99.7625 15.7173 99.5385 15.484C99.3145 15.2507 98.9459 15.134 98.4325 15.134C98.0405 15.134 97.6485 15.1947 97.2565 15.316C96.8645 15.428 96.4632 15.61 96.0525 15.862L95.6185 14.868C95.8612 14.7 96.1412 14.5553 96.4585 14.434C96.7759 14.3127 97.1072 14.2193 97.4525 14.154C97.8072 14.0793 98.1479 14.042 98.4745 14.042C99.0999 14.042 99.6132 14.14 100.015 14.336C100.425 14.532 100.729 14.8307 100.925 15.232C101.121 15.6333 101.219 16.1513 101.219 16.786V21H99.8885V19.474H100.015C99.9399 19.8193 99.7999 20.118 99.5945 20.37C99.3985 20.6127 99.1512 20.7993 98.8525 20.93C98.5539 21.0607 98.2132 21.126 97.8305 21.126ZM103.19 12.586V11.116H104.842V12.586H103.19ZM103.316 21V14.168H104.73V21H103.316ZM106.87 21V14.168H108.242V15.624H108.088C108.294 15.1013 108.616 14.7093 109.054 14.448C109.493 14.1773 109.997 14.042 110.566 14.042C111.108 14.042 111.556 14.1447 111.91 14.35C112.274 14.546 112.545 14.8493 112.722 15.26C112.9 15.6613 112.988 16.17 112.988 16.786V21H111.574V16.87C111.574 16.478 111.523 16.1607 111.42 15.918C111.318 15.666 111.164 15.4793 110.958 15.358C110.753 15.2367 110.487 15.176 110.16 15.176C109.787 15.176 109.456 15.2553 109.166 15.414C108.886 15.5727 108.667 15.8013 108.508 16.1C108.359 16.3987 108.284 16.744 108.284 17.136V21H106.87Z" fill="white"/>
</svg>
