<svg width="136" height="32" viewBox="0 0 136 32" fill="none" xmlns="http://www.w3.org/2000/svg">
<rect width="136" height="32" rx="8" fill="#5065E4"/>
<path d="M37.497 16.1479L32.4985 19.05L27.5 16.1479L32.4985 8.00049L37.497 16.1479Z" fill="white"/>
<path d="M37.5 17.0792L32.4985 23.9995L27.5 17.0791L32.4985 19.9805L37.5 17.0792Z" fill="white"/>
<path d="M46.564 11.13H53.172V12.558H48.328V15.274H52.892V16.688H48.328V19.572H53.172V21H46.564V11.13ZM58.2541 19.796C58.4595 19.796 58.6741 19.782 58.8981 19.754L58.8141 21.056C58.5341 21.084 58.2775 21.098 58.0441 21.098C57.0828 21.098 56.3735 20.8787 55.9161 20.44C55.4588 19.992 55.2301 19.3293 55.2301 18.452V15.47H53.9141V14.154H55.2301V12.11H56.9801V14.154H58.7861V15.47H56.9801V18.424C56.9801 19.3387 57.4048 19.796 58.2541 19.796ZM63.9981 13.986C64.8194 13.986 65.4308 14.2193 65.8321 14.686C66.2334 15.1527 66.4341 15.8573 66.4341 16.8V21H64.6841V16.898C64.6841 16.366 64.5814 15.9787 64.3761 15.736C64.1801 15.4933 63.8674 15.372 63.4381 15.372C62.9341 15.372 62.5281 15.5307 62.2201 15.848C61.9214 16.1653 61.7721 16.59 61.7721 17.122V21H60.0221V11.13H61.7721V15.106C62.0054 14.742 62.3134 14.4667 62.6961 14.28C63.0881 14.084 63.5221 13.986 63.9981 13.986ZM74.3176 17.892H69.6556C69.7116 18.5267 69.9029 18.998 70.2296 19.306C70.5562 19.614 71.0229 19.768 71.6296 19.768C72.3856 19.768 73.0762 19.5253 73.7016 19.04L74.2056 20.244C73.8882 20.5053 73.4869 20.7153 73.0016 20.874C72.5256 21.0327 72.0449 21.112 71.5596 21.112C70.4396 21.112 69.5529 20.7947 68.8996 20.16C68.2556 19.5253 67.9336 18.6573 67.9336 17.556C67.9336 16.856 68.0736 16.2353 68.3536 15.694C68.6336 15.1527 69.0256 14.7327 69.5296 14.434C70.0429 14.1353 70.6216 13.986 71.2656 13.986C72.2082 13.986 72.9502 14.2893 73.4916 14.896C74.0422 15.5027 74.3176 16.338 74.3176 17.402V17.892ZM71.3076 15.218C70.8409 15.218 70.4629 15.3673 70.1736 15.666C69.8936 15.9647 69.7209 16.394 69.6556 16.954H72.8196C72.8009 16.3847 72.6609 15.9553 72.3996 15.666C72.1382 15.3673 71.7742 15.218 71.3076 15.218ZM80.3571 15.442L79.3351 15.54C78.1777 15.6613 77.5991 16.2493 77.5991 17.304V21H75.8491V14.154H77.5151V15.358C77.8697 14.5367 78.6024 14.0887 79.7131 14.014L80.2451 13.972L80.3571 15.442ZM87.1777 17.892H82.5157C82.5717 18.5267 82.7631 18.998 83.0897 19.306C83.4164 19.614 83.8831 19.768 84.4897 19.768C85.2457 19.768 85.9364 19.5253 86.5617 19.04L87.0657 20.244C86.7484 20.5053 86.3471 20.7153 85.8617 20.874C85.3857 21.0327 84.9051 21.112 84.4197 21.112C83.2997 21.112 82.4131 20.7947 81.7597 20.16C81.1157 19.5253 80.7937 18.6573 80.7937 17.556C80.7937 16.856 80.9337 16.2353 81.2137 15.694C81.4937 15.1527 81.8857 14.7327 82.3897 14.434C82.9031 14.1353 83.4817 13.986 84.1257 13.986C85.0684 13.986 85.8104 14.2893 86.3517 14.896C86.9024 15.5027 87.1777 16.338 87.1777 17.402V17.892ZM84.1677 15.218C83.7011 15.218 83.3231 15.3673 83.0337 15.666C82.7537 15.9647 82.5811 16.394 82.5157 16.954H85.6797C85.6611 16.3847 85.5211 15.9553 85.2597 15.666C84.9984 15.3673 84.6344 15.218 84.1677 15.218ZM94.9952 14.154V21H93.2872V19.95C93.0726 20.3233 92.7832 20.6127 92.4192 20.818C92.0552 21.014 91.6446 21.112 91.1872 21.112C89.5072 21.112 88.6672 20.1693 88.6672 18.284V14.154H90.4172V18.298C90.4172 18.7833 90.5152 19.1427 90.7112 19.376C90.9072 19.6093 91.2152 19.726 91.6352 19.726C92.1206 19.726 92.5079 19.5673 92.7972 19.25C93.0959 18.9233 93.2452 18.494 93.2452 17.962V14.154H94.9952ZM105.051 13.986C105.825 13.986 106.404 14.2193 106.787 14.686C107.169 15.1433 107.361 15.848 107.361 16.8V21H105.611V16.87C105.611 16.3473 105.522 15.9693 105.345 15.736C105.167 15.4933 104.883 15.372 104.491 15.372C104.024 15.372 103.66 15.5307 103.399 15.848C103.137 16.1653 103.007 16.6087 103.007 17.178V21H101.257V16.87C101.257 16.3473 101.168 15.9693 100.991 15.736C100.823 15.4933 100.538 15.372 100.137 15.372C99.6793 15.372 99.32 15.5307 99.0586 15.848C98.7973 16.1653 98.6666 16.6087 98.6666 17.178V21H96.9166V14.154H98.6246V15.12C98.83 14.7467 99.1146 14.4667 99.4786 14.28C99.8426 14.084 100.258 13.986 100.725 13.986C101.761 13.986 102.447 14.4153 102.783 15.274C102.997 14.8727 103.305 14.56 103.707 14.336C104.108 14.1027 104.556 13.986 105.051 13.986Z" fill="white"/>
</svg>
