<svg width="24" height="24" viewBox="0 0 24 24" fill="none" xmlns="http://www.w3.org/2000/svg">
<circle cx="12" cy="12" r="12" fill="#A2A2FF"/>
<g clip-path="url(#clip0_14240_102681)">
<path fill-rule="evenodd" clip-rule="evenodd" d="M6.24466 11.8148C6.2453 11.7954 6.24562 11.7758 6.24562 11.7563C6.24375 8.58188 8.82562 6 12 6C13.7307 6 15.2853 6.76746 16.3413 7.97998C17.0962 7.35743 18.0372 6.95314 19.0669 6.8644C19.2975 6.84378 19.4981 7.02378 19.4981 7.25628H19.5V9.28315C19.4998 9.28315 19.4996 9.28315 19.4994 9.28315V9.7148C19.4994 9.9023 19.3682 10.0654 19.1844 10.0992C18.4017 10.242 17.7984 10.9094 17.7562 11.7234C17.7562 11.7343 17.7562 11.7453 17.7562 11.7563H17.7548C17.7541 11.7757 17.7538 11.7952 17.7538 11.8148C17.7538 14.9892 15.1719 17.5711 11.9975 17.5711H11.9994C10.2684 17.5711 8.71359 16.8033 7.65753 15.5904C6.90287 16.2124 5.96227 16.6163 4.93312 16.705C4.70062 16.7256 4.5 16.5456 4.5 16.3131V15.0731V14.2863V13.8563C4.5 13.6688 4.63125 13.5056 4.815 13.4719C5.59775 13.3291 6.20098 12.6616 6.24326 11.8477C6.24319 11.8367 6.24316 11.8258 6.24316 11.8148H6.24466ZM9.47063 11.7981C9.47041 11.8231 9.47001 11.848 9.46942 11.8729C9.50086 13.2504 10.6396 14.3604 12.0263 14.3457C13.4175 14.3307 14.5181 13.1625 14.5294 11.7713C14.5296 11.7463 14.53 11.7214 14.5306 11.6965C14.4991 10.319 13.3604 9.20896 11.9738 9.22376C10.5825 9.23875 9.48188 10.4069 9.47063 11.7981Z" fill="white"/>
</g>
<defs>
<clipPath id="clip0_14240_102681">
<rect width="15" height="11.5706" fill="white" transform="translate(4.5 6)"/>
</clipPath>
</defs>
</svg>
