<svg width="24" height="24" viewBox="0 0 24 24" fill="none" xmlns="http://www.w3.org/2000/svg">
<g clip-path="url(#clip0_61740_27388)">
<path d="M12.0003 0C18.6278 0 24.0006 5.3727 24.0006 12.0003C24.0006 18.6278 18.6278 24.0006 12.0003 24.0006C5.3727 24.0006 0 18.6278 0 12.0003C0 5.3727 5.3727 0 12.0003 0Z" fill="#DE2910"/>
<path d="M11.6415 12.1736C12.0241 7.74803 17.6452 7.82733 18.5985 11.6335C17.9669 11.008 17.2083 11.1295 16.6804 11.7794C16.0854 12.5019 14.7135 12.3683 14.2095 11.8154C13.3904 10.8988 12.0363 11.0995 11.6415 12.1736C15.964 11.1661 17.633 16.5443 14.3065 18.6265C14.7069 17.8314 14.3553 17.1515 13.5779 16.8476C12.7034 16.5077 12.4062 15.1602 12.7827 14.5104C13.3954 13.4357 12.7827 12.2163 11.6415 12.1736ZM11.6415 12.1675C7.54973 10.4374 9.36521 5.11353 13.2746 5.38081C12.4855 5.78782 12.3701 6.5464 12.8193 7.25063C13.3233 8.03971 12.7705 9.30234 12.0907 9.61176C10.9678 10.1158 10.7432 11.4694 11.6415 12.1675ZM11.6354 12.1736C8.72752 15.5307 4.22319 12.1614 5.68656 8.51937C5.82629 9.39938 6.51168 9.73985 7.3257 9.52748C8.23012 9.2907 9.26207 10.2073 9.34747 10.9542C9.48055 12.1803 10.6938 12.8113 11.6354 12.1736ZM11.6415 12.1797C13.9361 15.9798 9.33472 19.2276 6.32979 16.7085C7.20981 16.8421 7.75046 16.2959 7.79261 15.4641C7.84695 14.5292 9.03694 13.8316 9.77112 13.983C10.9794 14.232 11.9576 13.2721 11.6415 12.1797Z" fill="white"/>
<path d="M14.0819 15.1558L14.0575 14.7311L14.3731 15.0228L14.7734 14.8647L14.591 15.2534L14.8644 15.5812L14.4396 15.5329L14.2089 15.8972L14.1241 15.4786L13.711 15.3693L14.0808 15.157L14.0819 15.1558ZM15.2353 10.773L14.8222 10.6637L15.1987 10.4574L15.1743 10.0327L15.4899 10.3238L15.8908 10.1658L15.7083 10.5539L15.9817 10.8816L15.557 10.8328L15.3263 11.1911L15.2353 10.773ZM11.7086 12.1177C11.8173 11.5931 12.1849 11.0746 12.7106 10.7303C13.3422 10.3177 14.1185 10.1841 14.8411 10.3659L14.8655 10.2689C14.113 10.0809 13.3056 10.214 12.6557 10.6454C12.1018 11.0125 11.7214 11.5365 11.606 12.0944C11.1419 11.8287 10.7665 11.318 10.5974 10.7125C10.3972 9.98387 10.5125 9.207 10.9134 8.5754L10.8286 8.52051C10.4155 9.1765 10.2946 9.98942 10.5009 10.7425C10.6756 11.3829 11.0565 11.9058 11.5534 12.1886C11.1569 12.5513 10.5574 12.7443 9.93029 12.7154C9.17725 12.6794 8.47302 12.3334 7.99336 11.7567L7.91462 11.8238C8.41257 12.4188 9.14731 12.7825 9.92419 12.8191C10.5868 12.8485 11.2001 12.6489 11.6238 12.2635C11.8428 12.7531 11.845 13.3853 11.6238 13.9725C11.3565 14.6767 10.8042 15.2412 10.1122 15.5207L10.1488 15.6178C10.8713 15.3261 11.4419 14.7438 11.7147 14.0152C11.9482 13.3903 11.946 12.742 11.707 12.223C12.2465 12.1581 12.8542 12.3522 13.3478 12.7459C13.9367 13.2134 14.301 13.9115 14.3492 14.6579L14.4529 14.6518C14.398 13.8744 14.0215 13.1524 13.4149 12.6666C12.8947 12.2518 12.2742 12.0511 11.7086 12.1177ZM11.6437 12.172H11.6476V12.1759L11.6437 12.1775L11.6415 12.1753L11.6437 12.172ZM11.4175 8.32643L11.1868 8.69074L11.102 8.27208L10.6894 8.16284L11.0659 7.95601L11.0415 7.53125L11.3576 7.82293L11.758 7.66489L11.5755 8.0536L11.8489 8.38132L11.4175 8.32643ZM7.91462 11.1977L8.188 11.5254L7.76324 11.4766L7.53256 11.8409L7.44772 11.4223L7.0285 11.313L7.40447 11.1068L7.38007 10.682L7.69559 10.9737L8.09595 10.8156L7.91462 11.1977ZM9.55987 15.4231L9.96023 15.2651L9.77835 15.6538L10.0517 15.9815L9.62696 15.9327L9.39629 16.2909L9.31145 15.8723L8.89888 15.763L9.27485 15.5568L9.25045 15.132L9.55987 15.4231Z" fill="#DE2910"/>
</g>
<defs>
<clipPath id="clip0_61740_27388">
<rect width="24" height="24" fill="white"/>
</clipPath>
</defs>
</svg>
