<svg width="136" height="32" viewBox="0 0 136 32" fill="none" xmlns="http://www.w3.org/2000/svg">
<rect width="136" height="32" rx="8" fill="#000008"/>
<path d="M52.731 20.6149L49.4294 23.7821C49.3576 23.8509 49.2708 23.9057 49.1743 23.9432C49.0778 23.9807 48.9737 24.0001 48.8685 24H33.2173C33.1426 24 33.0695 23.9805 33.0071 23.9439C32.9446 23.9072 32.8955 23.8551 32.8657 23.7938C32.836 23.7325 32.8269 23.6648 32.8395 23.599C32.8522 23.5332 32.8861 23.4721 32.937 23.4232L36.2411 20.256C36.3127 20.1874 36.3993 20.1326 36.4954 20.0952C36.5916 20.0577 36.6954 20.0383 36.8003 20.0381H52.4507C52.5254 20.0381 52.5984 20.0576 52.6609 20.0942C52.7233 20.1309 52.7724 20.183 52.8023 20.2443C52.832 20.3056 52.8411 20.3733 52.8284 20.4391C52.8158 20.5049 52.7819 20.566 52.731 20.6149ZM49.4294 14.2369C49.3576 14.1681 49.2708 14.1133 49.1743 14.0758C49.0778 14.0383 48.9737 14.019 48.8685 14.0191H33.2173C33.1426 14.0191 33.0695 14.0386 33.0071 14.0752C32.9446 14.1118 32.8955 14.164 32.8657 14.2252C32.836 14.2865 32.8269 14.3542 32.8395 14.4201C32.8522 14.4859 32.8861 14.547 32.937 14.5958L36.2411 17.7631C36.3127 17.8317 36.3993 17.8864 36.4954 17.9239C36.5916 17.9614 36.6954 17.9808 36.8003 17.9809H52.4507C52.5254 17.9809 52.5984 17.9614 52.6609 17.9248C52.7233 17.8882 52.7724 17.836 52.8023 17.7748C52.832 17.7135 52.8411 17.6458 52.8284 17.5799C52.8158 17.5141 52.7819 17.453 52.731 17.4042L49.4294 14.2369ZM33.2173 11.9619H48.8685C48.9737 11.9619 49.0778 11.9426 49.1743 11.9051C49.2708 11.8677 49.3576 11.8128 49.4294 11.744L52.731 8.57676C52.7819 8.52792 52.8158 8.46683 52.8284 8.401C52.8411 8.33517 52.832 8.26746 52.8023 8.2062C52.7724 8.14493 52.7233 8.09278 52.6609 8.05615C52.5984 8.01952 52.5254 8 52.4507 8H36.8003C36.6954 8.00016 36.5916 8.01958 36.4954 8.05706C36.3993 8.09455 36.3127 8.14929 36.2411 8.21791L32.9379 11.3851C32.887 11.4339 32.8531 11.495 32.8404 11.5607C32.8277 11.6265 32.8368 11.6941 32.8664 11.7554C32.8961 11.8166 32.9451 11.8687 33.0074 11.9054C33.0697 11.9421 33.1427 11.9617 33.2173 11.9619Z" fill="white"/>
<path d="M62.7241 21.126C62.2108 21.126 61.7208 21.084 61.2541 21C60.7968 20.9067 60.3721 20.776 59.9801 20.608C59.5975 20.4307 59.2568 20.2207 58.9581 19.978L59.4201 18.83C59.7375 19.0633 60.0641 19.2593 60.4001 19.418C60.7361 19.5767 61.0955 19.698 61.4781 19.782C61.8608 19.8567 62.2761 19.894 62.7241 19.894C63.5175 19.894 64.1008 19.754 64.4741 19.474C64.8568 19.1847 65.0481 18.8113 65.0481 18.354C65.0481 18.102 64.9875 17.8873 64.8661 17.71C64.7541 17.5327 64.5675 17.3833 64.3061 17.262C64.0448 17.1313 63.7041 17.024 63.2841 16.94L61.7861 16.632C60.8995 16.4453 60.2368 16.1373 59.7981 15.708C59.3688 15.2787 59.1541 14.7 59.1541 13.972C59.1541 13.3747 59.3128 12.852 59.6301 12.404C59.9475 11.956 60.3815 11.6107 60.9321 11.368C61.4921 11.1253 62.1361 11.004 62.8641 11.004C63.3121 11.004 63.7368 11.0507 64.1381 11.144C64.5488 11.228 64.9268 11.3587 65.2721 11.536C65.6268 11.7133 65.9348 11.928 66.1961 12.18L65.7201 13.286C65.3188 12.9313 64.8848 12.67 64.4181 12.502C63.9515 12.3247 63.4288 12.236 62.8501 12.236C62.3928 12.236 61.9915 12.306 61.6461 12.446C61.3101 12.586 61.0488 12.782 60.8621 13.034C60.6848 13.286 60.5961 13.5847 60.5961 13.93C60.5961 14.322 60.7221 14.6347 60.9741 14.868C61.2261 15.1013 61.6461 15.2787 62.2341 15.4L63.7181 15.708C64.6515 15.904 65.3468 16.2073 65.8041 16.618C66.2615 17.0287 66.4901 17.5747 66.4901 18.256C66.4901 18.8253 66.3361 19.3293 66.0281 19.768C65.7201 20.1973 65.2861 20.5333 64.7261 20.776C64.1661 21.0093 63.4988 21.126 62.7241 21.126ZM71.1071 21.126C70.4165 21.126 69.8191 20.9813 69.3151 20.692C68.8205 20.4027 68.4331 19.992 68.1531 19.46C67.8731 18.928 67.7331 18.3027 67.7331 17.584C67.7331 16.856 67.8731 16.2307 68.1531 15.708C68.4331 15.176 68.8205 14.7653 69.3151 14.476C69.8191 14.1867 70.4165 14.042 71.1071 14.042C71.7885 14.042 72.3765 14.1867 72.8711 14.476C73.3751 14.7653 73.7671 15.176 74.0471 15.708C74.3271 16.24 74.4671 16.8653 74.4671 17.584C74.4671 18.3027 74.3271 18.928 74.0471 19.46C73.7671 19.992 73.3751 20.4027 72.8711 20.692C72.3765 20.9813 71.7885 21.126 71.1071 21.126ZM71.0931 20.034C71.6811 20.034 72.1525 19.824 72.5071 19.404C72.8618 18.984 73.0391 18.3773 73.0391 17.584C73.0391 16.7813 72.8618 16.1747 72.5071 15.764C72.1525 15.3533 71.6811 15.148 71.0931 15.148C70.5145 15.148 70.0478 15.3533 69.6931 15.764C69.3385 16.1747 69.1611 16.7813 69.1611 17.584C69.1611 18.3773 69.3385 18.984 69.6931 19.404C70.0478 19.824 70.5145 20.034 71.0931 20.034ZM78.4311 21.126C77.6845 21.126 77.1245 20.916 76.7511 20.496C76.3871 20.0667 76.2051 19.4507 76.2051 18.648V11.13H77.6191V18.564C77.6191 18.8627 77.6611 19.1193 77.7451 19.334C77.8291 19.5393 77.9551 19.6933 78.1231 19.796C78.2911 19.8987 78.5011 19.95 78.7531 19.95C78.8651 19.95 78.9725 19.9453 79.0751 19.936C79.1778 19.9267 79.2758 19.908 79.3691 19.88L79.3411 21.014C79.1825 21.0513 79.0285 21.0793 78.8791 21.098C78.7298 21.1167 78.5805 21.126 78.4311 21.126ZM82.8184 21.126C82.3424 21.126 81.9131 21.0327 81.5304 20.846C81.1571 20.6593 80.8631 20.4073 80.6484 20.09C80.4338 19.7727 80.3264 19.4133 80.3264 19.012C80.3264 18.508 80.4524 18.1113 80.7044 17.822C80.9658 17.5233 81.3904 17.3133 81.9784 17.192C82.5758 17.0613 83.3784 16.996 84.3864 16.996H85.0444V17.864H84.4004C83.8964 17.864 83.4718 17.8827 83.1264 17.92C82.7811 17.9573 82.5058 18.018 82.3004 18.102C82.0951 18.1767 81.9458 18.284 81.8524 18.424C81.7684 18.564 81.7264 18.732 81.7264 18.928C81.7264 19.2827 81.8478 19.572 82.0904 19.796C82.3331 20.0107 82.6691 20.118 83.0984 20.118C83.4438 20.118 83.7471 20.0387 84.0084 19.88C84.2698 19.712 84.4751 19.488 84.6244 19.208C84.7831 18.928 84.8624 18.606 84.8624 18.242V16.632C84.8624 16.1 84.7504 15.7173 84.5264 15.484C84.3024 15.2507 83.9338 15.134 83.4204 15.134C83.0284 15.134 82.6364 15.1947 82.2444 15.316C81.8524 15.428 81.4511 15.61 81.0404 15.862L80.6064 14.868C80.8491 14.7 81.1291 14.5553 81.4464 14.434C81.7638 14.3127 82.0951 14.2193 82.4404 14.154C82.7951 14.0793 83.1358 14.042 83.4624 14.042C84.0878 14.042 84.6011 14.14 85.0024 14.336C85.4131 14.532 85.7164 14.8307 85.9124 15.232C86.1084 15.6333 86.2064 16.1513 86.2064 16.786V21H84.8764V19.474H85.0024C84.9278 19.8193 84.7878 20.118 84.5824 20.37C84.3864 20.6127 84.1391 20.7993 83.8404 20.93C83.5418 21.0607 83.2011 21.126 82.8184 21.126ZM88.304 21V14.168H89.676V15.624H89.522C89.7273 15.1013 90.0493 14.7093 90.488 14.448C90.9266 14.1773 91.4306 14.042 92 14.042C92.5413 14.042 92.9893 14.1447 93.344 14.35C93.708 14.546 93.9786 14.8493 94.156 15.26C94.3333 15.6613 94.422 16.17 94.422 16.786V21H93.008V16.87C93.008 16.478 92.9566 16.1607 92.854 15.918C92.7513 15.666 92.5973 15.4793 92.392 15.358C92.1866 15.2367 91.9206 15.176 91.594 15.176C91.2206 15.176 90.8893 15.2553 90.6 15.414C90.32 15.5727 90.1006 15.8013 89.942 16.1C89.7926 16.3987 89.718 16.744 89.718 17.136V21H88.304ZM98.7044 21.126C98.2284 21.126 97.799 21.0327 97.4164 20.846C97.043 20.6593 96.749 20.4073 96.5344 20.09C96.3197 19.7727 96.2124 19.4133 96.2124 19.012C96.2124 18.508 96.3384 18.1113 96.5904 17.822C96.8517 17.5233 97.2764 17.3133 97.8644 17.192C98.4617 17.0613 99.2644 16.996 100.272 16.996H100.93V17.864H100.286C99.7824 17.864 99.3577 17.8827 99.0124 17.92C98.667 17.9573 98.3917 18.018 98.1864 18.102C97.981 18.1767 97.8317 18.284 97.7384 18.424C97.6544 18.564 97.6124 18.732 97.6124 18.928C97.6124 19.2827 97.7337 19.572 97.9764 19.796C98.219 20.0107 98.555 20.118 98.9844 20.118C99.3297 20.118 99.633 20.0387 99.8944 19.88C100.156 19.712 100.361 19.488 100.51 19.208C100.669 18.928 100.748 18.606 100.748 18.242V16.632C100.748 16.1 100.636 15.7173 100.412 15.484C100.188 15.2507 99.8197 15.134 99.3064 15.134C98.9144 15.134 98.5224 15.1947 98.1304 15.316C97.7384 15.428 97.337 15.61 96.9264 15.862L96.4924 14.868C96.735 14.7 97.015 14.5553 97.3324 14.434C97.6497 14.3127 97.981 14.2193 98.3264 14.154C98.681 14.0793 99.0217 14.042 99.3484 14.042C99.9737 14.042 100.487 14.14 100.888 14.336C101.299 14.532 101.602 14.8307 101.798 15.232C101.994 15.6333 102.092 16.1513 102.092 16.786V21H100.762V19.474H100.888C100.814 19.8193 100.674 20.118 100.468 20.37C100.272 20.6127 100.025 20.7993 99.7264 20.93C99.4277 21.0607 99.087 21.126 98.7044 21.126Z" fill="white"/>
</svg>
