<svg width="136" height="32" viewBox="0 0 136 32" fill="none" xmlns="http://www.w3.org/2000/svg">
<rect width="136" height="32" rx="8" fill="#EB0029"/>
<path fill-rule="evenodd" clip-rule="evenodd" d="M53.4092 10.2235L41.5 8L47.7674 24L56.5 13.2057L53.4092 10.2235ZM53.2175 11.2032L55.0392 12.9599L50.0566 13.8753L53.2175 11.2032ZM43.7229 9.27325L48.9746 13.6922L52.3063 10.8756L43.7229 9.27325ZM48.6003 14.4737L47.7443 21.6562L43.1271 9.86789L48.6003 14.4737ZM54.9102 13.8412L49.393 14.855L48.5817 21.6638L54.9102 13.8412Z" fill="white"/>
<path d="M67.888 12.614H64.668V11.13H72.914V12.614H69.694V21H67.888V12.614ZM77.5102 15.442L76.4882 15.54C75.3309 15.6613 74.7522 16.2493 74.7522 17.304V21H73.0022V14.154H74.6682V15.358C75.0229 14.5367 75.7555 14.0887 76.8662 14.014L77.3982 13.972L77.5102 15.442ZM81.4468 21.112C80.7468 21.112 80.1308 20.9673 79.5988 20.678C79.0762 20.3887 78.6702 19.9733 78.3808 19.432C78.0915 18.8907 77.9468 18.2607 77.9468 17.542C77.9468 16.8233 78.0915 16.198 78.3808 15.666C78.6702 15.1247 79.0762 14.7093 79.5988 14.42C80.1308 14.1307 80.7468 13.986 81.4468 13.986C82.1468 13.986 82.7582 14.1307 83.2808 14.42C83.8128 14.7093 84.2188 15.1247 84.4988 15.666C84.7882 16.198 84.9328 16.8233 84.9328 17.542C84.9328 18.2607 84.7882 18.8907 84.4988 19.432C84.2188 19.9733 83.8128 20.3887 83.2808 20.678C82.7582 20.9673 82.1468 21.112 81.4468 21.112ZM81.4328 19.754C82.0022 19.754 82.4362 19.5673 82.7348 19.194C83.0335 18.8207 83.1828 18.27 83.1828 17.542C83.1828 16.8233 83.0335 16.2773 82.7348 15.904C82.4362 15.5213 82.0068 15.33 81.4468 15.33C80.8868 15.33 80.4528 15.5213 80.1448 15.904C79.8462 16.2773 79.6968 16.8233 79.6968 17.542C79.6968 18.27 79.8462 18.8207 80.1448 19.194C80.4435 19.5673 80.8728 19.754 81.4328 19.754ZM90.4536 13.986C91.2749 13.986 91.8862 14.2193 92.2876 14.686C92.6889 15.1527 92.8896 15.8573 92.8896 16.8V21H91.1396V16.898C91.1396 16.366 91.0369 15.9787 90.8316 15.736C90.6356 15.4933 90.3229 15.372 89.8936 15.372C89.3896 15.372 88.9836 15.5307 88.6756 15.848C88.3769 16.1653 88.2276 16.59 88.2276 17.122V21H86.4776V14.154H88.1856V15.176C88.4189 14.7933 88.7316 14.4993 89.1236 14.294C89.5156 14.0887 89.9589 13.986 90.4536 13.986Z" fill="white"/>
</svg>
