<svg width="168" height="50" viewBox="0 0 168 50" fill="none" xmlns="http://www.w3.org/2000/svg">
<g clip-path="url(#clip0_450_19420)">
<path d="M70.9398 25.4006H63.0855L62.0497 28.1561H56.0492L64.423 7.97241H69.6324L77.9794 28.1561H71.979L70.9431 25.4006H70.9398ZM69.1933 20.7645L67.0378 14.9819L64.8555 20.7645H69.1933Z" fill="#430585"/>
<path d="M88.9652 28.156L84.7649 23.0572V28.156H79.3108V6.87939H84.7649V17.5696L88.6099 13.1514H95.4819L88.8546 20.2414L95.8373 28.1493H88.9652V28.156Z" fill="#430585"/>
<path d="M109.692 18.7463V28.156H104.429L104.375 26.8184C103.447 27.8811 102.113 28.4275 100.748 28.4275C97.5032 28.4275 95.3209 26.4631 95.3209 23.4897C95.3209 20.5162 97.9658 18.4982 101.921 18.4982C102.632 18.4982 103.393 18.5518 104.184 18.6893C103.993 17.6534 103.068 17.1339 101.455 17.1339C100.366 17.1339 99.4106 17.3786 98.5357 17.8982L96.2461 14.7068C98.0731 13.4799 100.064 12.8799 102.9 12.8799C106.936 12.8799 109.692 15.1996 109.692 18.7429V18.7463ZM104.238 22.3197C103.665 22.2393 103.118 22.1823 102.629 22.1823C101.62 22.1823 100.966 22.6717 100.966 23.3824C100.966 24.0931 101.321 24.5825 102.33 24.5825C103.45 24.5825 104.211 23.7377 104.241 22.3197H104.238Z" fill="#430585"/>
<path d="M112.012 26.4631L114.03 23.1913C115.585 23.9556 116.919 24.2003 118.31 24.2003C118.991 24.2003 119.484 24.0629 119.484 23.7109C119.484 23.2751 118.719 23.084 117.493 22.7823L116.591 22.5645C113.892 21.9108 112.065 20.9018 112.065 18.4178C112.065 15.089 114.63 12.8799 118.555 12.8799C121.066 12.8799 123.218 13.4531 124.747 14.5158L122.484 18.0356C121.311 17.4356 120.137 17.1372 118.911 17.1372C118.119 17.1372 117.6 17.2478 117.6 17.5462C117.6 17.9015 118.31 18.1194 119.319 18.3641L120.191 18.582C123.054 19.2927 125.018 20.5196 125.018 23.3288C125.018 26.4095 122.263 28.4275 118.227 28.4275C115.773 28.4275 113.617 27.8006 112.008 26.4631H112.012Z" fill="#430585"/>
<path d="M143.019 18.7731V28.156H137.565V19.5642C137.565 18.3373 136.667 17.5462 135.276 17.5462C133.885 17.5462 132.986 18.3373 132.986 19.5642V28.156H127.532V6.87939H132.986V14.5158C134.159 13.3961 135.742 12.8799 137.24 12.8799C140.703 12.8799 143.023 15.2264 143.023 18.7697L143.019 18.7731Z" fill="#430585"/>
<path d="M145.553 8.95437C145.553 7.15422 146.864 5.84351 148.664 5.84351C150.464 5.84351 151.744 7.15422 151.744 8.95437C151.744 10.7545 150.464 12.0351 148.664 12.0351C146.864 12.0351 145.553 10.7545 145.553 8.95437ZM145.908 13.1547H151.362V28.1559H145.908V13.1547Z" fill="#430585"/>
<path d="M153.682 20.6537C153.682 15.9907 157.038 12.8799 162.11 12.8799C164.155 12.8799 166.065 13.6174 167.483 14.7068L164.429 18.3876C163.94 17.8982 163.229 17.5428 162.22 17.5428C160.474 17.5428 159.331 18.7697 159.331 20.6537C159.331 22.5376 160.45 23.7646 162.22 23.7646C163.42 23.7646 164.292 23.436 164.919 22.6751L168 26.2754C166.501 27.747 164.372 28.4308 162.026 28.4308C157.008 28.4308 153.679 25.32 153.679 20.657L153.682 20.6537Z" fill="#430585"/>
<path d="M103.42 37.8909C103.42 39.7547 102.105 41.0051 100.121 41.0051H98.1967V44.1562H96.4335V34.9041H100.185C102.136 34.9041 103.423 36.1041 103.423 37.8909H103.42ZM101.606 37.9546C101.606 37.0059 100.969 36.3656 99.9935 36.3656H98.1934V39.5402H99.9935C100.992 39.5402 101.606 38.9033 101.606 37.9512V37.9546Z" fill="#C297FF"/>
<path d="M113.68 42.3159H109.416L108.665 44.1529H106.778L110.73 34.9008H112.366L116.315 44.1529H114.428L113.677 42.3159H113.68ZM113.093 40.8543L111.555 37.0898L110.016 40.8543H113.09H113.093Z" fill="#C297FF"/>
<path d="M127.62 34.9041L124.318 40.7436V44.1562H122.555V40.7436L119.243 34.9041H121.13L123.443 39.1781L125.743 34.9041H127.617H127.62Z" fill="#C297FF"/>
<path d="M24.1729 39.041C27.1061 37.3649 29.4627 34.7904 30.874 31.6996C28.8325 32.6316 26.563 33.1512 24.1729 33.1512C21.7827 33.1512 19.5133 32.6316 17.4718 31.6996C14.381 30.2917 11.8065 27.9351 10.1304 24.9985C8.77947 22.6352 8.00846 19.9032 8.00846 16.9867C8.00846 14.5966 8.52805 12.3271 9.45997 10.2856C3.88187 12.8333 0 18.4617 0 24.9985C0 31.5354 3.88187 37.1671 9.46332 39.7115C11.5048 40.6434 13.7743 41.163 16.1644 41.163C19.0809 41.163 21.8129 40.392 24.1762 39.041H24.1729Z" fill="url(#paint0_linear_450_19420)"/>
<g style="mix-blend-mode:multiply" opacity="0.2">
<path d="M9.46338 39.711C9.46338 39.711 12.1586 41.1625 16.1645 41.1625C19.0809 41.1625 21.813 40.3915 24.1763 39.0406C27.1095 37.3645 29.4661 34.79 30.8774 31.6992C30.0159 32.0914 29.1175 32.4099 28.1855 32.6479C28.1855 32.6479 20.7268 41.9905 9.46673 39.711H9.46338Z" fill="#290056"/>
</g>
<path d="M48.349 24.9982C48.349 18.4613 44.4671 12.8296 38.8857 10.2853C36.8442 9.35333 34.5747 8.83374 32.1846 8.83374C29.2682 8.83374 26.5361 9.60475 24.1728 10.9557C21.2396 12.6318 18.883 15.2063 17.4717 18.2971C19.5132 17.3651 21.7826 16.8456 24.1728 16.8456C26.5629 16.8456 28.8324 17.3651 30.8739 18.2971C33.9646 19.705 36.5391 22.0616 38.2152 24.9982C39.5662 27.3615 40.3372 30.0935 40.3372 33.01C40.3372 35.4001 39.8176 37.6696 38.8857 39.7111C44.4671 37.1667 48.349 31.535 48.349 24.9982Z" fill="url(#paint1_linear_450_19420)"/>
<g style="mix-blend-mode:multiply" opacity="0.2">
<path d="M20.5993 17.2445C20.5993 17.2445 18.4673 17.8445 17.4717 18.2971C18.8796 15.2063 21.2362 12.6318 24.1728 10.9557C26.5361 9.60475 29.2682 8.83374 32.1846 8.83374C35.9156 8.83374 38.8857 10.2853 38.8857 10.2853C38.8857 10.2853 28.4938 6.31287 20.5993 17.2445Z" fill="#290056"/>
</g>
<path d="M38.2161 24.9982C36.5399 22.065 33.9654 19.7084 30.8747 18.2971C31.8066 20.3386 32.3262 22.6081 32.3262 24.9982C32.3262 27.3883 31.8066 29.6578 30.8747 31.6993C29.4668 34.7901 27.1101 37.3646 24.1736 39.0407C21.8103 40.3916 19.0782 41.1626 16.1618 41.1626C13.7717 41.1626 11.5022 40.643 9.46069 39.7111C12.005 45.2926 17.6368 49.1744 24.1736 49.1744C30.7104 49.1744 36.3422 45.2926 38.8865 39.7111C39.8184 37.6696 40.338 35.4002 40.338 33.01C40.338 30.0936 39.567 27.3615 38.2161 24.9982Z" fill="url(#paint2_linear_450_19420)"/>
<g style="mix-blend-mode:multiply" opacity="0.2">
<path d="M38.8856 39.7111C38.8856 39.7111 40.3371 37.0159 40.3371 33.01C40.3371 30.0936 39.5661 27.3615 38.2151 24.9982C36.539 22.065 33.9645 19.7084 30.8738 18.2971C31.266 19.1586 31.5845 20.057 31.8225 20.989C31.8225 20.989 41.1651 28.4476 38.8856 39.7078V39.7111Z" fill="#290056"/>
</g>
<path d="M24.1727 0.825439C17.6359 0.825439 12.0042 4.70731 9.45981 10.2888C8.5279 12.3303 8.0083 14.5997 8.0083 16.9899C8.0083 19.9063 8.77931 22.6384 10.1303 25.0017C11.8064 27.9349 14.3809 30.2915 17.4716 31.7028C16.5397 29.6613 16.0201 27.3918 16.0201 25.0017C16.0201 22.6115 16.5397 20.3421 17.4716 18.3006C18.8796 15.2098 21.2362 12.6353 24.1727 10.9592C26.536 9.60826 29.2681 8.83725 32.1845 8.83725C34.5747 8.83725 36.8441 9.35685 38.8856 10.2888C36.3413 4.70731 30.7096 0.825439 24.1727 0.825439Z" fill="url(#paint3_linear_450_19420)"/>
<g style="mix-blend-mode:multiply" opacity="0.2">
<path d="M16.419 28.572C16.419 28.572 17.0191 30.704 17.4716 31.6996C14.3809 30.2917 11.8064 27.9351 10.1303 24.9986C8.77931 22.6352 8.0083 19.9032 8.0083 16.9867C8.0083 13.2557 9.45981 10.2856 9.45981 10.2856C9.45981 10.2856 5.48743 20.6775 16.419 28.572Z" fill="#290056"/>
</g>
</g>
<defs>
<linearGradient id="paint0_linear_450_19420" x1="22.775" y1="41.2133" x2="1.20009" y2="10.9997" gradientUnits="userSpaceOnUse">
<stop offset="0.09" stop-color="#430585"/>
<stop offset="0.2" stop-color="#4C0F8E"/>
<stop offset="0.4" stop-color="#652CA6"/>
<stop offset="0.65" stop-color="#8E5CCD"/>
<stop offset="0.93" stop-color="#C297FF"/>
</linearGradient>
<linearGradient id="paint1_linear_450_19420" x1="25.3293" y1="9.99026" x2="49.0396" y2="36.8918" gradientUnits="userSpaceOnUse">
<stop offset="0.1" stop-color="#430585"/>
<stop offset="0.21" stop-color="#4C0F8E"/>
<stop offset="0.4" stop-color="#652CA6"/>
<stop offset="0.65" stop-color="#8E5CCD"/>
<stop offset="0.93" stop-color="#C297FF"/>
</linearGradient>
<linearGradient id="paint2_linear_450_19420" x1="17.4088" y1="48.3699" x2="37.0126" y2="24.5222" gradientUnits="userSpaceOnUse">
<stop offset="0.15" stop-color="#D52EB2"/>
<stop offset="0.24" stop-color="#CB2BAF"/>
<stop offset="0.38" stop-color="#B224A7"/>
<stop offset="0.55" stop-color="#89189A"/>
<stop offset="0.76" stop-color="#500889"/>
<stop offset="0.81" stop-color="#430585"/>
</linearGradient>
<linearGradient id="paint3_linear_450_19420" x1="26.1405" y1="-2.36252" x2="19.902" y2="33.0671" gradientUnits="userSpaceOnUse">
<stop offset="0.15" stop-color="#D52EB2"/>
<stop offset="0.24" stop-color="#CB2BAF"/>
<stop offset="0.38" stop-color="#B224A7"/>
<stop offset="0.55" stop-color="#89189A"/>
<stop offset="0.76" stop-color="#500889"/>
<stop offset="0.81" stop-color="#430585"/>
</linearGradient>
<clipPath id="clip0_450_19420">
<rect width="168" height="48.3491" fill="white" transform="translate(0 0.825439)"/>
</clipPath>
</defs>
</svg>
