<svg width="42" height="20" viewBox="0 0 42 20" fill="none" xmlns="http://www.w3.org/2000/svg">
<g clip-path="url(#clip0_101_11777)">
<path d="M16.5494 17.0122C16.5494 17.8539 15.9375 18.4174 15.0165 18.4174H13.9616V19.9988H13.3134V15.647H15.034C15.9425 15.647 16.5482 16.1936 16.5482 17.011L16.5494 17.0122ZM15.8774 17.0292C15.8774 16.5118 15.5133 16.1656 14.9564 16.1656H13.9628V17.9H14.9564C15.5258 17.9 15.8774 17.5527 15.8774 17.0292Z" fill="white"/>
<path d="M21.5976 18.9883H19.3676L18.9259 20H18.2351L20.1797 15.6483H20.7792L22.7175 20H22.033L21.5976 18.9883ZM21.3723 18.4709L20.4826 16.4183L19.5916 18.4709H21.3723Z" fill="white"/>
<path d="M28.0921 15.6483L26.4616 18.3118V20H25.8134V18.3118L24.1841 15.6483H24.8811L26.1412 17.7531L27.4014 15.6483H28.0921Z" fill="white"/>
<path d="M6.77625 11.9985V2.47644H9.09129V5.96827L10.2163 2.47644H12.6427L11.1711 6.82453L13.0419 11.9985H10.5504L9.09129 7.71965V11.9985H6.77625Z" fill="white"/>
<path d="M15.1617 12.1006C14.6161 12.1006 14.2006 11.9779 13.9153 11.7326C13.63 11.4872 13.4348 11.1508 13.3296 10.7233C13.2245 10.2957 13.1732 9.81114 13.1732 9.26945C13.1732 8.69011 13.232 8.21522 13.3497 7.84356C13.4673 7.47313 13.6688 7.16949 13.9553 6.93265C14.2406 6.69581 14.6348 6.4942 15.1354 6.32902L16.587 5.84684V4.86913C16.587 4.35659 16.4143 4.10153 16.0702 4.10153C15.7561 4.10153 15.5996 4.30922 15.5996 4.72338V5.29422H13.3234C13.3196 5.26022 13.3171 5.21649 13.3171 5.16427V4.9833C13.3171 4.03473 13.5474 3.36309 14.0066 2.96715C14.4671 2.5712 15.1967 2.37323 16.1953 2.37323C16.7184 2.37323 17.1876 2.46311 17.6018 2.64286C18.0161 2.82261 18.3439 3.0886 18.5867 3.4396C18.8282 3.79061 18.9496 4.2242 18.9496 4.7416V11.9985H16.6208V10.869C16.5069 11.2674 16.3192 11.5722 16.0576 11.7836C15.7961 11.9949 15.497 12.1006 15.1617 12.1006ZM16.0839 10.3358C16.2754 10.3358 16.4068 10.2581 16.4769 10.1014C16.5469 9.94474 16.582 9.77591 16.582 9.59373V6.93994C16.2591 7.06747 16.0088 7.22657 15.8299 7.41969C15.6509 7.6128 15.5621 7.89458 15.5621 8.26744V9.49292C15.5621 10.0553 15.736 10.337 16.0852 10.337L16.0839 10.3358Z" fill="white"/>
<path d="M22.541 12.1006C20.6052 12.1006 19.6366 11.1484 19.6366 9.24395V8.4885H21.9917V9.60589C21.9917 9.82208 22.0355 9.9909 22.1218 10.1136C22.2094 10.2362 22.3483 10.2982 22.541 10.2982C22.8814 10.2982 23.0516 10.0504 23.0516 9.55488C23.0516 9.14072 22.9628 8.82979 22.7838 8.62453C22.6049 8.41927 22.3871 8.2213 22.1293 8.03062L20.8805 7.09784C20.4875 6.80149 20.1897 6.48814 19.9845 6.15778C19.7793 5.82742 19.6766 5.36832 19.6766 4.78048C19.6766 4.23393 19.8105 3.78334 20.0783 3.42869C20.3461 3.07282 20.7015 2.80805 21.1445 2.63559C21.5875 2.4619 22.0655 2.37567 22.5798 2.37567C24.4807 2.37567 25.4317 3.2963 25.4317 5.13756V5.31488H23.0116V4.95295C23.0116 4.76226 22.9778 4.57887 22.9102 4.40033C22.8426 4.22179 22.71 4.13434 22.5148 4.13434C22.1832 4.13434 22.018 4.30316 22.018 4.64202C22.018 4.98088 22.1569 5.25416 22.4372 5.44848L23.8888 6.47721C24.3418 6.79421 24.7222 7.17072 25.03 7.60674C25.3379 8.04276 25.4918 8.6221 25.4918 9.34598C25.4918 10.2435 25.229 10.9273 24.7034 11.3961C24.1778 11.8662 23.4571 12.1006 22.541 12.1006Z" fill="white"/>
<path d="M26.2101 11.9985V0.825867H28.6177V3.42258C28.7441 3.06671 28.9381 2.80315 29.1996 2.6319C29.4612 2.46065 29.7665 2.37442 30.1156 2.37442C30.7964 2.37442 31.2907 2.58211 31.601 2.99627C31.9101 3.41164 32.0653 3.96791 32.0653 4.66628V11.9985H29.6977V4.81202C29.6977 4.60433 29.6526 4.43551 29.5638 4.30434C29.4749 4.17317 29.3335 4.10758 29.1421 4.10758C28.9806 4.10758 28.853 4.1756 28.7591 4.31041C28.6653 4.44644 28.619 4.60676 28.619 4.79259V11.9985H26.2113H26.2101Z" fill="white"/>
<path d="M35.3089 0H32.9675V1.89227H35.3089V0Z" fill="white"/>
<path d="M32.9675 11.9985V2.47644H35.3089V11.9997H32.9675V11.9985Z" fill="white"/>
<path d="M39.1882 12.1006C38.0894 12.1006 37.3098 11.8273 36.8493 11.282C36.3888 10.7354 36.1586 9.93382 36.1586 8.87595V5.94281C36.1586 5.14728 36.2462 4.48535 36.4201 3.9558C36.5953 3.42626 36.9006 3.03153 37.3361 2.76919C37.7716 2.50684 38.3785 2.37567 39.1544 2.37567C39.695 2.37567 40.1805 2.46919 40.6097 2.65502C41.0389 2.84084 41.3781 3.11412 41.6271 3.47362C41.8761 3.83313 42 4.27401 42 4.79384V6.24766H39.6124V4.91408C39.6124 4.69425 39.5798 4.50842 39.5135 4.35903C39.4472 4.20964 39.307 4.13313 39.088 4.13313C38.7039 4.13313 38.5124 4.3979 38.5124 4.92623V9.54152C38.5124 9.73585 38.5562 9.9156 38.6426 10.0784C38.7301 10.2411 38.8741 10.3225 39.0743 10.3225C39.2745 10.3225 39.4222 10.2435 39.5023 10.0844C39.5823 9.92532 39.6236 9.7407 39.6236 9.52937V7.92981H41.9975V9.59374C41.9975 10.1184 41.8761 10.5678 41.6346 10.9431C41.3931 11.3172 41.0602 11.6038 40.6372 11.803C40.2143 12.0022 39.73 12.1018 39.1857 12.1018L39.1882 12.1006Z" fill="white"/>
<path d="M0 11.9985L1.11248 0.825867H5.01803L6.11048 11.9997H3.93183L3.7679 10.1973H2.38137L2.23746 11.9997H0V11.9985ZM2.54405 8.41195H3.59146L3.08715 2.73028H2.98203L2.54405 8.41195Z" fill="white"/>
</g>
<defs>
<clipPath id="clip0_101_11777">
<rect width="42" height="20" fill="white"/>
</clipPath>
</defs>
</svg>
