<svg xmlns="http://www.w3.org/2000/svg" width="10" height="10" viewBox="0 0 10 10" fill="none">
  <path
    d="M4.99984 2.48893C6.579 2.48893 7.98734 3.37643 8.67484 4.7806C8.429 5.28893 8.08317 5.72643 7.67067 6.0806L8.25817 6.6681C8.83734 6.1556 9.29567 5.51393 9.58317 4.7806C8.86234 2.95143 7.08317 1.6556 4.99984 1.6556C4.47067 1.6556 3.96234 1.73893 3.48317 1.8931L4.17067 2.5806C4.4415 2.52643 4.7165 2.48893 4.99984 2.48893ZM4.554 2.96393L5.4165 3.82643C5.654 3.9306 5.84567 4.12227 5.94984 4.35977L6.81234 5.22227C6.84567 5.0806 6.87067 4.9306 6.87067 4.77643C6.87484 3.7431 6.03317 2.9056 4.99984 2.9056C4.84567 2.9056 4.69984 2.92643 4.554 2.96393ZM0.837337 1.60143L1.954 2.7181C1.27484 3.25143 0.737337 3.95977 0.416504 4.7806C1.13734 6.60977 2.9165 7.9056 4.99984 7.9056C5.63317 7.9056 6.2415 7.78477 6.79984 7.56393L8.22484 8.98893L8.81234 8.40143L1.42484 1.00977L0.837337 1.60143ZM3.96234 4.72643L5.04984 5.81393C5.03317 5.8181 5.0165 5.82227 4.99984 5.82227C4.42484 5.82227 3.95817 5.3556 3.95817 4.7806C3.95817 4.75977 3.96234 4.74727 3.96234 4.72643ZM2.54567 3.30977L3.27484 4.03893C3.179 4.2681 3.12484 4.5181 3.12484 4.7806C3.12484 5.81393 3.9665 6.6556 4.99984 6.6556C5.26234 6.6556 5.51234 6.60143 5.73734 6.5056L6.14567 6.91393C5.779 7.01393 5.39567 7.07227 4.99984 7.07227C3.42067 7.07227 2.01234 6.18477 1.32484 4.7806C1.6165 4.18477 2.0415 3.6931 2.54567 3.30977Z"
    fill="#7B757F" />
</svg>
