<svg xmlns="http://www.w3.org/2000/svg" width="20" height="20" viewBox="0 0 20 20" fill="none">
  <path
    d="M10.0002 4.97982C13.1585 4.97982 15.9752 6.75482 17.3502 9.56315C16.8585 10.5798 16.1668 11.4548 15.3418 12.1631L16.5168 13.3382C17.6752 12.3132 18.5918 11.0298 19.1668 9.56315C17.7252 5.90482 14.1668 3.31315 10.0002 3.31315C8.94183 3.31315 7.92516 3.47982 6.96683 3.78815L8.34183 5.16315C8.8835 5.05482 9.4335 4.97982 10.0002 4.97982ZM9.1085 5.92982L10.8335 7.65482C11.3085 7.86315 11.6918 8.24648 11.9002 8.72148L13.6252 10.4465C13.6918 10.1632 13.7418 9.86315 13.7418 9.55482C13.7502 7.48815 12.0668 5.81315 10.0002 5.81315C9.69183 5.81315 9.40016 5.85482 9.1085 5.92982ZM1.67516 3.20482L3.9085 5.43815C2.55016 6.50482 1.47516 7.92148 0.833496 9.56315C2.27516 13.2215 5.8335 15.8131 10.0002 15.8131C11.2668 15.8131 12.4835 15.5715 13.6002 15.1298L16.4502 17.9798L17.6252 16.8048L2.85016 2.02148L1.67516 3.20482ZM7.92516 9.45482L10.1002 11.6298C10.0668 11.6382 10.0335 11.6465 10.0002 11.6465C8.85016 11.6465 7.91683 10.7132 7.91683 9.56315C7.91683 9.52148 7.92516 9.49648 7.92516 9.45482ZM5.09183 6.62148L6.55016 8.07982C6.3585 8.53815 6.25016 9.03815 6.25016 9.56315C6.25016 11.6298 7.9335 13.3132 10.0002 13.3132C10.5252 13.3132 11.0252 13.2048 11.4752 13.0132L12.2918 13.8298C11.5585 14.0298 10.7918 14.1465 10.0002 14.1465C6.84183 14.1465 4.02516 12.3715 2.65016 9.56315C3.2335 8.37148 4.0835 7.38815 5.09183 6.62148Z"
    fill="#7444B6" />
</svg>
